<?xml version="1.0" encoding="UTF-8" standalone="no"?>
<svg
   xmlns:dc="http://purl.org/dc/elements/1.1/"
   xmlns:cc="http://creativecommons.org/ns#"
   xmlns:rdf="http://www.w3.org/1999/02/22-rdf-syntax-ns#"
   xmlns:svg="http://www.w3.org/2000/svg"
   xmlns="http://www.w3.org/2000/svg"
   xmlns:sodipodi="http://sodipodi.sourceforge.net/DTD/sodipodi-0.dtd"
   xmlns:inkscape="http://www.inkscape.org/namespaces/inkscape"
   sodipodi:docname="FTHA_Engine.svg"
   inkscape:version="1.0 (4035a4fb49, 2020-05-01)"
   id="svg1097"
   version="1.1"
   viewBox="0 0 240 180"
   height="180"
   width="240">
  <defs
     id="defs1091">
    <marker
       inkscape:isstock="true"
       style="overflow:visible"
       id="SquareM"
       refX="0"
       refY="0"
       orient="auto"
       inkscape:stockid="SquareM">
      <path
         inkscape:connector-curvature="0"
         transform="scale(0.4)"
         style="fill:#666666;fill-opacity:1;fill-rule:evenodd;stroke:#666666;stroke-width:1.00000003pt;stroke-opacity:1"
         d="M -5,-5 V 5 H 5 V -5 Z"
         id="path1220" />
    </marker>
    <marker
       inkscape:isstock="true"
       style="overflow:visible"
       id="DiamondM"
       refX="0"
       refY="0"
       orient="auto"
       inkscape:stockid="DiamondM">
      <path
         inkscape:connector-curvature="0"
         transform="scale(0.4)"
         style="fill:#666666;fill-opacity:1;fill-rule:evenodd;stroke:#666666;stroke-width:1.00000003pt;stroke-opacity:1"
         d="M 0,-7.0710768 -7.0710894,0 0,7.0710589 7.0710462,0 Z"
         id="path1229" />
    </marker>
    <marker
       inkscape:isstock="true"
       style="overflow:visible"
       id="DotL"
       refX="0"
       refY="0"
       orient="auto"
       inkscape:stockid="DotL">
      <path
         inkscape:connector-curvature="0"
         transform="matrix(0.8,0,0,0.8,5.92,0.8)"
         style="fill:#666666;fill-opacity:1;fill-rule:evenodd;stroke:#666666;stroke-width:1.00000003pt;stroke-opacity:1"
         d="m -2.5,-1 c 0,2.76 -2.24,5 -5,5 -2.76,0 -5,-2.24 -5,-5 0,-2.76 2.24,-5 5,-5 2.76,0 5,2.24 5,5 z"
         id="path1208" />
    </marker>
    <marker
       inkscape:isstock="true"
       style="overflow:visible"
       id="DotM"
       refX="0"
       refY="0"
       orient="auto"
       inkscape:stockid="DotM">
      <path
         inkscape:connector-curvature="0"
         transform="matrix(0.4,0,0,0.4,2.96,0.4)"
         style="fill:#666666;fill-opacity:1;fill-rule:evenodd;stroke:#666666;stroke-width:1.00000003pt;stroke-opacity:1"
         d="m -2.5,-1 c 0,2.76 -2.24,5 -5,5 -2.76,0 -5,-2.24 -5,-5 0,-2.76 2.24,-5 5,-5 2.76,0 5,2.24 5,5 z"
         id="path1211" />
    </marker>
    <inkscape:path-effect
       only_selected="false"
       apply_with_weight="true"
       apply_no_weight="true"
       helper_size="0"
       steps="2"
       weight="33.333333"
       is_visible="true"
       id="path-effect1447"
       effect="bspline" />
    <marker
       inkscape:isstock="true"
       style="overflow:visible"
       id="marker1423"
       refX="0"
       refY="0"
       orient="auto"
       inkscape:stockid="Arrow1Mend">
      <path
         inkscape:connector-curvature="0"
         transform="matrix(-0.4,0,0,-0.4,-4,0)"
         style="fill:#747090;fill-opacity:1;fill-rule:evenodd;stroke:#747090;stroke-width:1.00000003pt;stroke-opacity:1"
         d="M 0,0 5,-5 -12.5,0 5,5 Z"
         id="path1421" />
    </marker>
    <marker
       inkscape:isstock="true"
       style="overflow:visible"
       id="Arrow1Mend"
       refX="0"
       refY="0"
       orient="auto"
       inkscape:stockid="Arrow1Mend">
      <path
         inkscape:connector-curvature="0"
         transform="matrix(-0.4,0,0,-0.4,-4,0)"
         style="fill:#747090;fill-opacity:1;fill-rule:evenodd;stroke:#747090;stroke-width:1.00000003pt;stroke-opacity:1"
         d="M 0,0 5,-5 -12.5,0 5,5 Z"
         id="path1156" />
    </marker>
    <inkscape:path-effect
       only_selected="false"
       apply_with_weight="true"
       apply_no_weight="true"
       helper_size="0"
       steps="2"
       weight="33.333333"
       is_visible="true"
       id="path-effect1145"
       effect="bspline" />
    <marker
       style="overflow:visible"
       id="Arrow1MendG-0-3-6-1-8"
       refX="0"
       refY="0"
       orient="auto"
       inkscape:stockid="Arrow1MendG">
      <path
         inkscape:connector-curvature="0"
         transform="matrix(-0.4,0,0,-0.4,-4,0)"
         style="fill:#000080;fill-rule:evenodd;stroke:#000080;stroke-width:1.00000003pt"
         d="M 0,0 5,-5 -12.5,0 5,5 Z"
         id="path5557-65-8-40-5-7" />
    </marker>
    <marker
       style="overflow:visible"
       id="Arrow1MendG-0-3-3-3-6"
       refX="0"
       refY="0"
       orient="auto"
       inkscape:stockid="Arrow1MendG">
      <path
         inkscape:connector-curvature="0"
         transform="matrix(-0.4,0,0,-0.4,-4,0)"
         style="fill:#000080;fill-rule:evenodd;stroke:#000080;stroke-width:1.00000003pt"
         d="M 0,0 5,-5 -12.5,0 5,5 Z"
         id="path5557-65-8-1-2-1" />
    </marker>
    <marker
       style="overflow:visible"
       id="Arrow1MendG-0-3-9-0-6-6"
       refX="0"
       refY="0"
       orient="auto"
       inkscape:stockid="Arrow1MendG">
      <path
         inkscape:connector-curvature="0"
         transform="matrix(-0.4,0,0,-0.4,-4,0)"
         style="fill:#000080;fill-rule:evenodd;stroke:#000080;stroke-width:1.00000003pt"
         d="M 0,0 5,-5 -12.5,0 5,5 Z"
         id="path5557-65-8-6-1-2" />
    </marker>
    <marker
       style="overflow:visible"
       id="Arrow1MendG-0-3-33-2-6"
       refX="0"
       refY="0"
       orient="auto"
       inkscape:stockid="Arrow1MendG">
      <path
         inkscape:connector-curvature="0"
         transform="matrix(-0.4,0,0,-0.4,-4,0)"
         style="fill:#000080;fill-rule:evenodd;stroke:#000080;stroke-width:1.00000003pt"
         d="M 0,0 5,-5 -12.5,0 5,5 Z"
         id="path5557-65-8-3-7-0" />
    </marker>
    <marker
       style="overflow:visible"
       id="Arrow1MendG-0-3-0-6-9"
       refX="0"
       refY="0"
       orient="auto"
       inkscape:stockid="Arrow1MendG">
      <path
         inkscape:connector-curvature="0"
         transform="matrix(-0.4,0,0,-0.4,-4,0)"
         style="fill:#000080;fill-rule:evenodd;stroke:#000080;stroke-width:1.00000003pt"
         d="M 0,0 5,-5 -12.5,0 5,5 Z"
         id="path5557-65-8-4-0-3" />
    </marker>
    <marker
       style="overflow:visible"
       id="Arrow1MendG-0-3-8-9-7"
       refX="0"
       refY="0"
       orient="auto"
       inkscape:stockid="Arrow1MendG">
      <path
         inkscape:connector-curvature="0"
         transform="matrix(-0.4,0,0,-0.4,-4,0)"
         style="fill:#000080;fill-rule:evenodd;stroke:#000080;stroke-width:1.00000003pt"
         d="M 0,0 5,-5 -12.5,0 5,5 Z"
         id="path5557-65-8-9-9-0" />
    </marker>
    <marker
       style="overflow:visible"
       id="Arrow1MendG-0-3-7-8-1"
       refX="0"
       refY="0"
       orient="auto"
       inkscape:stockid="Arrow1MendG">
      <path
         inkscape:connector-curvature="0"
         transform="matrix(-0.4,0,0,-0.4,-4,0)"
         style="fill:#000080;fill-rule:evenodd;stroke:#000080;stroke-width:1.00000003pt"
         d="M 0,0 5,-5 -12.5,0 5,5 Z"
         id="path5557-65-8-64-2-2" />
    </marker>
    <marker
       style="overflow:visible"
       id="Arrow1MendG-0-3-03-7-2"
       refX="0"
       refY="0"
       orient="auto"
       inkscape:stockid="Arrow1MendG">
      <path
         inkscape:connector-curvature="0"
         transform="matrix(-0.4,0,0,-0.4,-4,0)"
         style="fill:#000080;fill-rule:evenodd;stroke:#000080;stroke-width:1.00000003pt"
         d="M 0,0 5,-5 -12.5,0 5,5 Z"
         id="path5557-65-8-0-2-9" />
    </marker>
    <marker
       style="overflow:visible"
       id="Arrow1MendG-0-3-2-9-5"
       refX="0"
       refY="0"
       orient="auto"
       inkscape:stockid="Arrow1MendG">
      <path
         inkscape:connector-curvature="0"
         transform="matrix(-0.4,0,0,-0.4,-4,0)"
         style="fill:#000080;fill-rule:evenodd;stroke:#000080;stroke-width:1.00000003pt"
         d="M 0,0 5,-5 -12.5,0 5,5 Z"
         id="path5557-65-8-5-8-6" />
    </marker>
    <marker
       style="overflow:visible"
       id="Arrow1MendG-0-3-5-5-5"
       refX="0"
       refY="0"
       orient="auto"
       inkscape:stockid="Arrow1MendG">
      <path
         inkscape:connector-curvature="0"
         transform="matrix(-0.4,0,0,-0.4,-4,0)"
         style="fill:#000080;fill-rule:evenodd;stroke:#000080;stroke-width:1.00000003pt"
         d="M 0,0 5,-5 -12.5,0 5,5 Z"
         id="path5557-65-8-94-6-3" />
    </marker>
    <marker
       inkscape:isstock="true"
       style="overflow:visible"
       id="Arrow1Mstart"
       refX="0"
       refY="0"
       orient="auto"
       inkscape:stockid="Arrow1Mstart">
      <path
         transform="matrix(0.4,0,0,0.4,4,0)"
         style="fill:#000000;fill-opacity:1;fill-rule:evenodd;stroke:#000000;stroke-width:1.00000003pt;stroke-opacity:1"
         d="M 0,0 5,-5 -12.5,0 5,5 Z"
         id="path5266"
         inkscape:connector-curvature="0" />
    </marker>
    <marker
       inkscape:isstock="true"
       style="overflow:visible"
       id="marker5523"
       refX="0"
       refY="0"
       orient="auto"
       inkscape:stockid="Arrow1Mend">
      <path
         transform="matrix(-0.4,0,0,-0.4,-4,0)"
         style="fill:#000000;fill-opacity:1;fill-rule:evenodd;stroke:#000000;stroke-width:1.00000003pt;stroke-opacity:1"
         d="M 0,0 5,-5 -12.5,0 5,5 Z"
         id="path5269"
         inkscape:connector-curvature="0" />
    </marker>
    <marker
       style="overflow:visible"
       id="Arrow1MendG-0-5-91-9"
       refX="0"
       refY="0"
       orient="auto"
       inkscape:stockid="Arrow1MendG">
      <path
         inkscape:connector-curvature="0"
         transform="matrix(-0.4,0,0,-0.4,-4,0)"
         style="fill:#000080;fill-rule:evenodd;stroke:#000080;stroke-width:1.00000003pt"
         d="M 0,0 5,-5 -12.5,0 5,5 Z"
         id="path5557-65-6-0-0" />
    </marker>
    <marker
       style="overflow:visible"
       id="Arrow1MendG-0-9-1-9"
       refX="0"
       refY="0"
       orient="auto"
       inkscape:stockid="Arrow1MendG">
      <path
         inkscape:connector-curvature="0"
         transform="matrix(-0.4,0,0,-0.4,-4,0)"
         style="fill:#000080;fill-rule:evenodd;stroke:#000080;stroke-width:1.00000003pt"
         d="M 0,0 5,-5 -12.5,0 5,5 Z"
         id="path5557-65-7-4-3" />
    </marker>
    <marker
       inkscape:isstock="true"
       style="overflow:visible"
       id="Arrow1Mstart-3"
       refX="0"
       refY="0"
       orient="auto"
       inkscape:stockid="Arrow1Mstart">
      <path
         transform="matrix(0.4,0,0,0.4,4,0)"
         style="fill:#000000;fill-opacity:1;fill-rule:evenodd;stroke:#000000;stroke-width:1.00000003pt;stroke-opacity:1"
         d="M 0,0 5,-5 -12.5,0 5,5 Z"
         id="path5266-6"
         inkscape:connector-curvature="0" />
    </marker>
    <marker
       inkscape:isstock="true"
       style="overflow:visible"
       id="marker5523-7"
       refX="0"
       refY="0"
       orient="auto"
       inkscape:stockid="Arrow1Mend">
      <path
         transform="matrix(-0.4,0,0,-0.4,-4,0)"
         style="fill:#000000;fill-opacity:1;fill-rule:evenodd;stroke:#000000;stroke-width:1.00000003pt;stroke-opacity:1"
         d="M 0,0 5,-5 -12.5,0 5,5 Z"
         id="path5269-5"
         inkscape:connector-curvature="0" />
    </marker>
  </defs>
  <sodipodi:namedview
     inkscape:snap-grids="false"
     inkscape:snap-intersection-paths="true"
     inkscape:object-paths="true"
     inkscape:bbox-nodes="true"
     inkscape:bbox-paths="true"
     inkscape:snap-bbox="true"
     inkscape:document-rotation="0"
     inkscape:window-maximized="1"
     inkscape:window-y="0"
     inkscape:window-x="0"
     inkscape:window-height="1027"
     inkscape:window-width="1920"
     units="px"
     showgrid="true"
     inkscape:current-layer="layer1"
     inkscape:document-units="px"
     inkscape:cy="90"
     inkscape:cx="120"
     inkscape:zoom="4.55"
     inkscape:pageshadow="2"
     inkscape:pageopacity="0.0"
     borderopacity="1.0"
     bordercolor="#666666"
     pagecolor="#ffffff"
     id="base">
    <inkscape:grid
       visible="true"
       snapvisiblegridlinesonly="true"
       enabled="true"
       dotted="true"
       empspacing="2"
       spacingy="10"
       spacingx="10"
       id="grid1646"
       type="xygrid" />
    <inkscape:grid
       dotted="false"
       empspacing="5"
       spacingy="20"
       spacingx="20"
       id="grid1648"
       type="xygrid" />
  </sodipodi:namedview>
  <metadata
     id="metadata1094">
    <rdf:RDF>
      <cc:Work
         rdf:about="">
        <dc:format>image/svg+xml</dc:format>
        <dc:type
           rdf:resource="http://purl.org/dc/dcmitype/StillImage" />
        <dc:title></dc:title>
      </cc:Work>
    </rdf:RDF>
  </metadata>
  <g
     sodipodi:insensitive="true"
     style="display:none"
     inkscape:label="Hidden"
     id="layer2"
     inkscape:groupmode="layer">
    <rect
       y="588.25"
       x="20"
       height="20"
       width="40"
       id="rect1147"
       style="fill:#ffff00;fill-opacity:0.25213677;fill-rule:evenodd;stroke:#850000;stroke-width:1;stroke-linecap:round;stroke-miterlimit:4;stroke-dasharray:none;stroke-dashoffset:0;stroke-opacity:1"
       transform="translate(0,-558.24998)" />
    <rect
       y="598.25"
       x="70"
       height="20"
       width="20"
       id="rect1149"
       style="fill:#ffff00;fill-opacity:0.25213677;fill-rule:evenodd;stroke:#850000;stroke-width:1;stroke-linecap:round;stroke-miterlimit:4;stroke-dasharray:none;stroke-dashoffset:0;stroke-opacity:1"
       transform="translate(0,-558.24998)" />
    <rect
       y="698.25"
       x="180"
       height="20"
       width="30"
       id="rect1151"
       style="fill:#ffff00;fill-opacity:0.25213677;fill-rule:evenodd;stroke:#850000;stroke-width:1;stroke-linecap:round;stroke-miterlimit:4;stroke-dasharray:none;stroke-dashoffset:0;stroke-opacity:1"
       transform="translate(0,-558.24998)" />
    <rect
       y="578.25"
       x="120"
       height="20"
       width="20"
       id="rect1153"
       style="fill:#ffff00;fill-opacity:0.25213677;fill-rule:evenodd;stroke:#850000;stroke-width:1;stroke-linecap:round;stroke-miterlimit:4;stroke-dasharray:none;stroke-dashoffset:0;stroke-opacity:1"
       transform="translate(0,-558.24998)" />
    <rect
       y="638.25"
       x="180"
       height="20"
       width="20"
       id="rect1155"
       style="fill:#ffff00;fill-opacity:0.25213677;fill-rule:evenodd;stroke:#850000;stroke-width:1;stroke-linecap:round;stroke-miterlimit:4;stroke-dasharray:none;stroke-dashoffset:0;stroke-opacity:1"
       transform="translate(0,-558.24998)" />
    <rect
       y="668.25"
       x="180"
       height="20"
       width="20"
       id="rect1157"
       style="fill:#ffff00;fill-opacity:0.25213677;fill-rule:evenodd;stroke:#850000;stroke-width:1;stroke-linecap:round;stroke-miterlimit:4;stroke-dasharray:none;stroke-dashoffset:0;stroke-opacity:1"
       transform="translate(0,-558.24998)" />
  </g>
  <g
     transform="translate(0,-558.24998)"
     id="layer1"
     inkscape:groupmode="layer"
     inkscape:label="Layer 1">
    <g
       id="g1114">
      <path
         sodipodi:nodetypes="cc"
         inkscape:connector-curvature="0"
         id="path1154-6"
         d="M 77.32022,688.25017 60,638.24998"
         style="fill:none;stroke:#000000;stroke-width:1.5;stroke-linecap:round;stroke-linejoin:miter;stroke-miterlimit:4;stroke-dasharray:none;stroke-opacity:1" />
      <path
         style="display:inline;fill:#3c3c44;fill-opacity:1;stroke:#000000;stroke-width:2;stroke-linecap:round;stroke-linejoin:round;stroke-miterlimit:4;stroke-dasharray:none;stroke-dashoffset:0;stroke-opacity:1"
         id="path49256-3-4-0"
         sodipodi:type="arc"
         sodipodi:cx="60"
         sodipodi:cy="638.25"
         sodipodi:rx="2.5"
         sodipodi:ry="2.5"
         sodipodi:start="3.1379275"
         sodipodi:end="3.1317303"
         sodipodi:open="true"
         d="m 57.500017,638.25916 a 2.5,2.5 0 0 1 2.486947,-2.50913 2.5,2.5 0 0 1 2.512979,2.48306 2.5,2.5 0 0 1 -2.479161,2.51682 2.5,2.5 0 0 1 -2.52066,-2.47525"
         sodipodi:arc-type="arc" />
    </g>
    <g
       transform="rotate(-30,60,698.24998)"
       id="g1087">
      <path
         style="fill:none;stroke:#000000;stroke-width:1.5;stroke-linecap:round;stroke-linejoin:miter;stroke-miterlimit:4;stroke-dasharray:none;stroke-opacity:1"
         d="m 60,698.24998 20,2e-5"
         id="path1154"
         inkscape:connector-curvature="0"
         sodipodi:nodetypes="cc" />
      <path
         style="display:inline;fill:#3c3c44;fill-opacity:1;stroke:#000000;stroke-width:2;stroke-linecap:round;stroke-linejoin:round;stroke-miterlimit:4;stroke-dasharray:none;stroke-dashoffset:0;stroke-opacity:1"
         id="path49256-3-4-0-3"
         sodipodi:type="arc"
         sodipodi:cx="80"
         sodipodi:cy="698.25"
         sodipodi:rx="2.5"
         sodipodi:ry="2.5"
         sodipodi:start="3.1379275"
         sodipodi:end="3.1317303"
         sodipodi:open="true"
         d="m 77.500017,698.25916 a 2.5,2.5 0 0 1 2.486947,-2.50913 2.5,2.5 0 0 1 2.512979,2.48306 2.5,2.5 0 0 1 -2.479161,2.51682 2.5,2.5 0 0 1 -2.52066,-2.47525"
         sodipodi:arc-type="arc" />
    </g>
    <path
       sodipodi:arc-type="arc"
       d="m 57.500017,698.2345 a 2.5,2.5 0 0 1 2.486947,-2.50912 2.5,2.5 0 0 1 2.512979,2.48305 2.5,2.5 0 0 1 -2.479161,2.51683 2.5,2.5 0 0 1 -2.52066,-2.47526"
       sodipodi:open="true"
       sodipodi:end="3.1317303"
       sodipodi:start="3.1379275"
       sodipodi:ry="2.5"
       sodipodi:rx="2.5"
       sodipodi:cy="698.22534"
       sodipodi:cx="60"
       sodipodi:type="arc"
       id="path49256-3-81-6"
       style="display:inline;fill:#3c3c44;fill-opacity:1;stroke:#000000;stroke-width:2;stroke-linecap:round;stroke-linejoin:round;stroke-miterlimit:4;stroke-dasharray:none;stroke-dashoffset:0;stroke-opacity:1" />
    <circle
       r="20"
       cy="698.25"
       cx="60"
       id="path1083"
       style="fill:none;fill-opacity:0.997646;fill-rule:evenodd;stroke:#bebebe;stroke-width:0.5;stroke-linecap:round;stroke-linejoin:round;stroke-opacity:1;stroke-miterlimit:4;stroke-dasharray:0.5, 2;stroke-dashoffset:0" />
    <rect
       y="628.25"
       x="40"
       height="20"
       width="40"
       id="rect1118"
       style="fill:#808080;fill-opacity:0.5;fill-rule:evenodd;stroke:none;stroke-width:1.5;stroke-linecap:round;stroke-linejoin:round;stroke-miterlimit:4;stroke-dasharray:none;stroke-dashoffset:0;stroke-opacity:1" />
    <rect
       y="608.25"
       x="40"
       height="7.084981"
       width="40"
       id="rect1152"
       style="fill:#00ffff;fill-opacity:0.25;fill-rule:evenodd;stroke:none;stroke-width:1.5;stroke-linecap:round;stroke-linejoin:round;stroke-miterlimit:4;stroke-dasharray:none;stroke-dashoffset:0;stroke-opacity:1" />
    <path
       id="path1120"
       d="m 40,658.24998 v -50 h 40 v 50"
       style="fill:none;stroke:#000000;stroke-width:1.5;stroke-linecap:round;stroke-linejoin:miter;stroke-miterlimit:4;stroke-dasharray:none;stroke-opacity:1" />
  </g>
</svg>
