<?xml version="1.0" encoding="UTF-8" standalone="no"?>
<svg
   xmlns:dc="http://purl.org/dc/elements/1.1/"
   xmlns:cc="http://creativecommons.org/ns#"
   xmlns:rdf="http://www.w3.org/1999/02/22-rdf-syntax-ns#"
   xmlns:svg="http://www.w3.org/2000/svg"
   xmlns="http://www.w3.org/2000/svg"
   xmlns:sodipodi="http://sodipodi.sourceforge.net/DTD/sodipodi-0.dtd"
   xmlns:inkscape="http://www.inkscape.org/namespaces/inkscape"
   width="1100"
   height="550"
   viewBox="0 0 1100 550"
   version="1.1"
   id="svg1097"
   inkscape:version="1.0.1 (3bc2e813f5, 2020-09-07)"
   sodipodi:docname="02-GuideVanes.svg">
  <defs
     id="defs1091">
    <marker
       style="overflow:visible"
       id="marker4803"
       refX="0.0"
       refY="0.0"
       orient="auto"
       inkscape:stockid="Arrow2Lstart"
       inkscape:isstock="true">
      <path
         transform="scale(1.1) translate(1,0)"
         d="M 8.7185878,4.0337352 L -2.2072895,0.016013256 L 8.7185884,-4.0017078 C 6.9730900,-1.6296469 6.9831476,1.6157441 8.7185878,4.0337352 z "
         style="fill-rule:evenodd;stroke-width:0.625;stroke-linejoin:round;stroke:#000000;stroke-opacity:1;fill:#000000;fill-opacity:1"
         id="path4801" />
    </marker>
    <marker
       style="overflow:visible;"
       id="marker4731"
       refX="0.0"
       refY="0.0"
       orient="auto"
       inkscape:stockid="Arrow2Lend"
       inkscape:isstock="true">
      <path
         transform="scale(1.1) rotate(180) translate(1,0)"
         d="M 8.7185878,4.0337352 L -2.2072895,0.016013256 L 8.7185884,-4.0017078 C 6.9730900,-1.6296469 6.9831476,1.6157441 8.7185878,4.0337352 z "
         style="fill-rule:evenodd;stroke-width:0.625;stroke-linejoin:round;stroke:#000000;stroke-opacity:1;fill:#000000;fill-opacity:1"
         id="path4729" />
    </marker>
    <marker
       style="overflow:visible"
       id="marker4343"
       refX="0"
       refY="0"
       orient="auto"
       inkscape:stockid="Arrow2Lstart"
       inkscape:isstock="true">
      <path
         transform="matrix(1.1,0,0,1.1,1.1,0)"
         d="M 8.7185878,4.0337352 -2.2072895,0.01601326 8.7185884,-4.0017078 c -1.7454984,2.3720609 -1.7354408,5.6174519 -6e-7,8.035443 z"
         style="fill:#0000ff;fill-opacity:1;fill-rule:evenodd;stroke:#0000ff;stroke-width:0.625;stroke-linejoin:round;stroke-opacity:1"
         id="path4341" />
    </marker>
    <marker
       style="overflow:visible"
       id="marker4333"
       refX="0"
       refY="0"
       orient="auto"
       inkscape:stockid="Arrow2Lend"
       inkscape:isstock="true">
      <path
         transform="matrix(-1.1,0,0,-1.1,-1.1,0)"
         d="M 8.7185878,4.0337352 -2.2072895,0.01601326 8.7185884,-4.0017078 c -1.7454984,2.3720609 -1.7354408,5.6174519 -6e-7,8.035443 z"
         style="fill:#0000ff;fill-opacity:1;fill-rule:evenodd;stroke:#0000ff;stroke-width:0.625;stroke-linejoin:round;stroke-opacity:1"
         id="path4331" />
    </marker>
    <marker
       style="overflow:visible"
       id="Arrow2Lstart"
       refX="0"
       refY="0"
       orient="auto"
       inkscape:stockid="Arrow2Lstart"
       inkscape:isstock="true"
       inkscape:collect="always">
      <path
         transform="matrix(1.1,0,0,1.1,1.1,0)"
         d="M 8.7185878,4.0337352 -2.2072895,0.01601326 8.7185884,-4.0017078 c -1.7454984,2.3720609 -1.7354408,5.6174519 -6e-7,8.035443 z"
         style="fill:#0000ff;fill-opacity:1;fill-rule:evenodd;stroke:#0000ff;stroke-width:0.625;stroke-linejoin:round;stroke-opacity:1"
         id="path3989" />
    </marker>
    <marker
       style="overflow:visible"
       id="Arrow2Lend"
       refX="0"
       refY="0"
       orient="auto"
       inkscape:stockid="Arrow2Lend"
       inkscape:isstock="true"
       inkscape:collect="always">
      <path
         transform="matrix(-1.1,0,0,-1.1,-1.1,0)"
         d="M 8.7185878,4.0337352 -2.2072895,0.01601326 8.7185884,-4.0017078 c -1.7454984,2.3720609 -1.7354408,5.6174519 -6e-7,8.035443 z"
         style="fill:#0000ff;fill-opacity:1;fill-rule:evenodd;stroke:#0000ff;stroke-width:0.625;stroke-linejoin:round;stroke-opacity:1"
         id="path3992" />
    </marker>
    <marker
       style="overflow:visible"
       id="Arrow1Mstart"
       refX="0"
       refY="0"
       orient="auto"
       inkscape:stockid="Arrow1Mstart"
       inkscape:isstock="true">
      <path
         transform="matrix(0.4,0,0,0.4,4,0)"
         style="fill:#0000ff;fill-opacity:1;fill-rule:evenodd;stroke:#0000ff;stroke-width:1pt;stroke-opacity:1"
         d="M 0,0 5,-5 -12.5,0 5,5 Z"
         id="path3977" />
    </marker>
  </defs>
  <sodipodi:namedview
     id="base"
     pagecolor="#ffffff"
     bordercolor="#666666"
     borderopacity="1.0"
     inkscape:pageopacity="0.0"
     inkscape:pageshadow="2"
     inkscape:zoom="1.1336364"
     inkscape:cx="550"
     inkscape:cy="275"
     inkscape:document-units="px"
     inkscape:current-layer="layer3"
     showgrid="true"
     units="px"
     inkscape:window-width="1920"
     inkscape:window-height="1027"
     inkscape:window-x="0"
     inkscape:window-y="0"
     inkscape:window-maximized="1"
     inkscape:document-rotation="0"
     inkscape:snap-global="true"
     inkscape:snap-intersection-paths="true"
     inkscape:snap-bbox="true"
     inkscape:bbox-nodes="true"
     inkscape:snap-grids="false"
     inkscape:snap-to-guides="false"
     inkscape:object-nodes="false"
     inkscape:snap-others="false">
    <inkscape:grid
       type="xygrid"
       id="grid1646"
       spacingx="10"
       spacingy="10"
       empspacing="2"
       dotted="true"
       enabled="true"
       snapvisiblegridlinesonly="true"
       visible="true" />
    <inkscape:grid
       type="xygrid"
       id="grid1648"
       spacingx="20"
       spacingy="20"
       empspacing="5"
       dotted="false" />
  </sodipodi:namedview>
  <metadata
     id="metadata1094">
    <rdf:RDF>
      <cc:Work
         rdf:about="">
        <dc:format>image/svg+xml</dc:format>
        <dc:type
           rdf:resource="http://purl.org/dc/dcmitype/StillImage" />
        <dc:title></dc:title>
      </cc:Work>
    </rdf:RDF>
  </metadata>
  <g
     inkscape:groupmode="layer"
     id="layer2"
     inkscape:label="Layer 0"
     style="display:none"
     sodipodi:insensitive="true">
    <path
       style="fill:none;stroke:#000000;stroke-width:0.1849;stroke-linecap:round;stroke-linejoin:round;stroke-miterlimit:4;stroke-dasharray:1.1094, 0.5547, 0.27735, 0.5547;stroke-dashoffset:0;stroke-opacity:1"
       d="M 160,-40 V 40"
       id="path3776"
       transform="matrix(0.96592582,0.25881904,-3.3646476,12.557036,-19.962221,456.30752)" />
    <path
       style="fill:none;stroke:#000000;stroke-width:0.1849;stroke-linecap:round;stroke-linejoin:round;stroke-miterlimit:4;stroke-dasharray:1.1094, 0.5547, 0.27735, 0.5547;stroke-dashoffset:0;stroke-opacity:1"
       d="M 160,-40 V 40"
       id="path3746"
       transform="matrix(1,0,0,13,-160,480)" />
    <path
       style="fill:none;stroke:#000000;stroke-width:0.1849;stroke-linecap:round;stroke-linejoin:round;stroke-miterlimit:4;stroke-dasharray:1.1094, 0.5547, 0.27735, 0.5547;stroke-dashoffset:0;stroke-opacity:1"
       d="M 160,-40 V 40"
       id="path3762"
       transform="matrix(0.96592582,-0.25881904,3.3646476,12.557036,-289.13404,539.12962)" />
    <path
       style="fill:none;stroke:#ff0000;stroke-width:1.33333;stroke-linecap:butt;stroke-linejoin:round;stroke-miterlimit:4;stroke-dasharray:none;stroke-dashoffset:0;stroke-opacity:1"
       d="M -258.81887,34.074128 -2.8000002e-6,1.7180795e-8"
       id="path3832" />
    <path
       style="fill:none;stroke:#ff0000;stroke-width:1.33333;stroke-linecap:butt;stroke-linejoin:round;stroke-miterlimit:4;stroke-dasharray:none;stroke-dashoffset:0;stroke-opacity:1"
       d="M 0,0 258.81887,34.074127"
       id="path3834" />
    <path
       style="display:inline;fill:none;stroke:#ff00ff;stroke-width:19.2294;stroke-linecap:butt;stroke-linejoin:round;stroke-miterlimit:4;stroke-dasharray:none;stroke-dashoffset:0;stroke-opacity:1"
       d="M 160,-40 V 40"
       id="path3764"
       transform="matrix(-0.03485864,0.01625465,0.21131127,0.45315296,-261.69457,13.346049)" />
    <path
       style="fill:none;stroke:#ff00ff;stroke-width:19.2296;stroke-linecap:butt;stroke-linejoin:round;stroke-miterlimit:4;stroke-dasharray:none;stroke-dashoffset:0;stroke-opacity:1"
       d="M 160,-40 V 40"
       id="path3748"
       transform="matrix(0.03787722,-0.00667878,0.08682409,0.49240387,-9.5333167,-18.627556)" />
    <path
       style="display:inline;fill:none;stroke:#ff00ff;stroke-width:19.2294;stroke-linecap:butt;stroke-linejoin:round;stroke-miterlimit:4;stroke-dasharray:none;stroke-dashoffset:0;stroke-opacity:1"
       d="M 160,-40 V 40"
       id="path3778"
       transform="matrix(-0.03831582,-0.00335202,-0.0435802,0.49809725,266.69308,14.686777)" />
    <path
       style="display:inline;fill:none;stroke:#ff00ff;stroke-width:19.2294;stroke-linecap:butt;stroke-linejoin:round;stroke-miterlimit:4;stroke-dasharray:none;stroke-dashoffset:0;stroke-opacity:1"
       d="M 160,-40 V 40"
       id="path3886"
       transform="matrix(-0.03485864,0.01625465,0.21131127,0.45315296,-261.57576,293.44767)" />
    <path
       style="fill:none;stroke:#ff0000;stroke-width:1.33333;stroke-linecap:butt;stroke-linejoin:round;stroke-miterlimit:4;stroke-dasharray:none;stroke-dashoffset:0;stroke-opacity:1"
       d="M -258.81887,34.074128 -2.8000002e-6,1.7180795e-8"
       id="path3902"
       transform="translate(0.11881444,280.10162)" />
    <path
       style="fill:none;stroke:#ff0000;stroke-width:1.33333;stroke-linecap:butt;stroke-linejoin:round;stroke-miterlimit:4;stroke-dasharray:none;stroke-dashoffset:0;stroke-opacity:1"
       d="M 0,0 258.81887,34.074127"
       id="path3904"
       transform="translate(0.11881444,280.10162)" />
    <path
       style="fill:none;stroke:#ff00ff;stroke-width:19.2296;stroke-linecap:butt;stroke-linejoin:round;stroke-miterlimit:4;stroke-dasharray:none;stroke-dashoffset:0;stroke-opacity:1"
       d="M 160,-40 V 40"
       id="path3872"
       transform="matrix(0.03787722,-0.00667878,0.08682409,0.49240387,-9.4145067,261.47406)" />
    <path
       style="display:inline;fill:none;stroke:#ff00ff;stroke-width:19.2294;stroke-linecap:butt;stroke-linejoin:round;stroke-miterlimit:4;stroke-dasharray:none;stroke-dashoffset:0;stroke-opacity:1"
       d="M 160,-40 V 40"
       id="path3898"
       transform="matrix(-0.03831582,-0.00335202,-0.0435802,0.49809725,266.8119,294.7884)" />
    <path
       style="opacity:0.996;fill:#000000;fill-opacity:1;stroke:#000000;stroke-width:1.067;stroke-linecap:butt;stroke-linejoin:round;stroke-miterlimit:4;stroke-dasharray:none;stroke-dashoffset:0;stroke-opacity:1"
       d="m 612.2905,404.79017 86.08418,-47.62475"
       id="path4666"
       transform="translate(-2.781692,1.839431)" />
  </g>
  <g
     inkscape:label="Layer 1"
     inkscape:groupmode="layer"
     id="layer1"
     transform="translate(0,-238.24998)"
     style="display:none"
     sodipodi:insensitive="true">
    <g
       id="g3704">
      <g
         id="g3568"
         transform="matrix(1.6666667,0,0,1,-193.33333,0)"
         style="stroke-width:0.774597">
        <path
           style="fill:none;stroke:#000000;stroke-width:2.06559;stroke-linecap:round;stroke-linejoin:round;stroke-miterlimit:4;stroke-dasharray:none;stroke-opacity:1"
           d="M 60,-20 0,-10 v 20 l 60,10"
           id="path3562"
           transform="translate(20,238.24998)"
           sodipodi:nodetypes="cccc" />
        <path
           style="fill:none;stroke:#000000;stroke-width:2.06559;stroke-linecap:round;stroke-linejoin:round;stroke-miterlimit:4;stroke-dasharray:none;stroke-opacity:1"
           d="m 80,-20 c 0,0 50,-10 80,-10 16.66667,0 40,13.333333 40,30 0,16.666667 -23.33333,30 -40,30 C 130,30 80,20 80,20"
           id="path3564"
           transform="translate(0,238.24998)"
           sodipodi:nodetypes="cszsc" />
        <circle
           style="fill:none;stroke:#000000;stroke-width:1.33333;stroke-linecap:round;stroke-linejoin:round;stroke-miterlimit:4;stroke-dasharray:none;stroke-opacity:1"
           id="path3570"
           cx="165"
           cy="5"
           r="5"
           transform="matrix(0.59999999,0,0,1,16.999999,233.24998)" />
        <path
           style="fill:none;stroke:#0000ff;stroke-width:0.666667;stroke-linecap:round;stroke-linejoin:round;stroke-miterlimit:4;stroke-dasharray:none;stroke-dashoffset:0;stroke-opacity:1"
           d="M -30,0 H 330"
           id="path3572"
           transform="matrix(0.59999999,0,0,1,19.999999,238.24998)" />
        <path
           style="fill:none;stroke:#000000;stroke-width:0.1849;stroke-linecap:round;stroke-linejoin:round;stroke-miterlimit:4;stroke-dasharray:1.1094, 0.5547, 0.27735, 0.5547;stroke-dashoffset:0;stroke-opacity:1"
           d="M 160,-40 V 40"
           id="path3574"
           transform="matrix(0.59999999,0,0,13,19.999999,718.24998)" />
        <path
           style="fill:none;stroke:#0000ff;stroke-width:9.6148;stroke-linecap:butt;stroke-linejoin:round;stroke-miterlimit:4;stroke-dasharray:none;stroke-dashoffset:0;stroke-opacity:1"
           d="M 160,-40 V 40"
           id="path3620"
           transform="matrix(-0.04615385,0,0,1,123.38461,238.24998)" />
      </g>
      <circle
         style="fill:none;stroke:#000000;stroke-width:0.333334;stroke-linecap:round;stroke-linejoin:round;stroke-miterlimit:4;stroke-dasharray:2, 0.999997, 0.5, 0.999997;stroke-dashoffset:0;stroke-opacity:1"
         id="path3594"
         cx="0"
         cy="500"
         r="500"
         transform="matrix(2,0,0,2,0,238.24998)" />
      <g
         id="g3606"
         transform="matrix(1.6098764,-0.43136508,0.25881905,0.96592583,-507.22834,92.230688)"
         style="stroke-width:0.774597">
        <path
           style="fill:none;stroke:#000000;stroke-width:2.06559;stroke-linecap:round;stroke-linejoin:round;stroke-miterlimit:4;stroke-dasharray:none;stroke-opacity:1"
           d="M 60,-20 0,-10 v 20 l 60,10"
           id="path3596"
           transform="translate(20,238.24998)"
           sodipodi:nodetypes="cccc" />
        <path
           style="fill:none;stroke:#000000;stroke-width:2.06559;stroke-linecap:round;stroke-linejoin:round;stroke-miterlimit:4;stroke-dasharray:none;stroke-opacity:1"
           d="m 80,-20 c 0,0 50,-10 80,-10 16.66667,0 40,13.333333 40,30 0,16.666667 -23.33333,30 -40,30 C 130,30 80,20 80,20"
           id="path3598"
           transform="translate(0,238.24998)"
           sodipodi:nodetypes="cszsc" />
        <circle
           style="fill:none;stroke:#000000;stroke-width:1.33333;stroke-linecap:round;stroke-linejoin:round;stroke-miterlimit:4;stroke-dasharray:none;stroke-opacity:1"
           id="circle3600"
           cx="165"
           cy="5"
           r="5"
           transform="matrix(0.59999999,0,0,1,16.999999,233.24998)" />
        <path
           style="fill:none;stroke:#0000ff;stroke-width:0.666667;stroke-linecap:butt;stroke-linejoin:round;stroke-miterlimit:4;stroke-dasharray:none;stroke-dashoffset:0;stroke-opacity:1"
           d="M -30,0 H 330"
           id="path3602"
           transform="matrix(0.59999999,0,0,1,19.999999,238.24998)" />
        <path
           style="fill:none;stroke:#000000;stroke-width:0.1849;stroke-linecap:round;stroke-linejoin:round;stroke-miterlimit:4;stroke-dasharray:1.1094, 0.5547, 0.27735, 0.5547;stroke-dashoffset:0;stroke-opacity:1"
           d="M 160,-40 V 40"
           id="path3604"
           transform="matrix(0.59999999,0,0,13,19.999999,718.24998)" />
        <path
           style="display:inline;fill:none;stroke:#0000ff;stroke-width:9.6148;stroke-linecap:butt;stroke-linejoin:round;stroke-miterlimit:4;stroke-dasharray:none;stroke-dashoffset:0;stroke-opacity:1"
           d="M 160,-40 V 40"
           id="path3620-3"
           transform="matrix(-0.04615384,0,0,0.99999999,123.38461,238.24998)" />
      </g>
      <g
         id="g3618"
         transform="matrix(1.6098764,0.43136508,-0.25881905,0.96592583,133.73703,-7.8460078)"
         style="stroke-width:0.774597">
        <path
           style="fill:none;stroke:#000000;stroke-width:2.06559;stroke-linecap:round;stroke-linejoin:round;stroke-miterlimit:4;stroke-dasharray:none;stroke-opacity:1"
           d="M 60,-20 0,-10 v 20 l 60,10"
           id="path3608"
           transform="translate(20,238.24998)"
           sodipodi:nodetypes="cccc" />
        <path
           style="fill:none;stroke:#000000;stroke-width:2.06559;stroke-linecap:round;stroke-linejoin:round;stroke-miterlimit:4;stroke-dasharray:none;stroke-opacity:1"
           d="m 80,-20 c 0,0 50,-10 80,-10 16.66667,0 40,13.333333 40,30 0,16.666667 -23.33333,30 -40,30 C 130,30 80,20 80,20"
           id="path3610"
           transform="translate(0,238.24998)"
           sodipodi:nodetypes="cszsc" />
        <circle
           style="fill:none;stroke:#000000;stroke-width:1.33333;stroke-linecap:round;stroke-linejoin:round;stroke-miterlimit:4;stroke-dasharray:none;stroke-opacity:1"
           id="circle3612"
           cx="165"
           cy="5"
           r="5"
           transform="matrix(0.59999999,0,0,1,16.999999,233.24998)" />
        <path
           style="fill:none;stroke:#0000ff;stroke-width:0.666667;stroke-linecap:round;stroke-linejoin:round;stroke-miterlimit:4;stroke-dasharray:none;stroke-dashoffset:0;stroke-opacity:1"
           d="M -30,0 H 330"
           id="path3614"
           transform="matrix(0.59999999,0,0,1,19.999999,238.24998)" />
        <path
           style="fill:none;stroke:#000000;stroke-width:0.1849;stroke-linecap:round;stroke-linejoin:round;stroke-miterlimit:4;stroke-dasharray:1.1094, 0.5547, 0.27735, 0.5547;stroke-dashoffset:0;stroke-opacity:1"
           d="M 160,-40 V 40"
           id="path3616"
           transform="matrix(0.59999999,0,0,13,19.999999,718.24998)" />
        <path
           style="display:inline;fill:none;stroke:#0000ff;stroke-width:9.6148;stroke-linecap:butt;stroke-linejoin:round;stroke-miterlimit:4;stroke-dasharray:none;stroke-dashoffset:0;stroke-opacity:1"
           d="M 160,-40 V 40"
           id="path3620-5"
           transform="matrix(-0.04615384,0,0,0.99999999,123.38461,238.24998)" />
      </g>
    </g>
  </g>
  <g
     inkscape:groupmode="layer"
     id="layer3"
     inkscape:label="Layer 2">
    <rect
       style="opacity:0.996;fill:#fdfdfd;fill-opacity:0.2;stroke:none;stroke-width:1.067;stroke-linecap:butt;stroke-linejoin:round;stroke-miterlimit:4;stroke-dasharray:none;stroke-dashoffset:0;stroke-opacity:1"
       id="rect4660"
       width="1100"
       height="550"
       x="0"
       y="0"
       ry="100"
       rx="100" />
    <g
       id="g4622"
       transform="translate(554.6035,85.347524)">
      <g
         id="g4498">
        <g
           id="g3750"
           transform="matrix(1.6413463,-0.28941364,0.17364818,0.98480775,-231.76784,-201.05845)"
           style="stroke-width:0.774597"
           inkscape:transform-center-x="9.8480785"
           inkscape:transform-center-y="-3.1081729">
          <path
             style="fill:none;stroke:#000000;stroke-width:2.06559;stroke-linecap:round;stroke-linejoin:round;stroke-miterlimit:4;stroke-dasharray:none;stroke-opacity:1"
             d="M 60,-20 0,-10 v 20 l 60,10"
             id="path3738"
             transform="translate(20,238.24998)"
             sodipodi:nodetypes="cccc" />
          <path
             style="fill:none;stroke:#000000;stroke-width:2.06559;stroke-linecap:round;stroke-linejoin:round;stroke-miterlimit:4;stroke-dasharray:none;stroke-opacity:1"
             d="m 80,-20 c 0,0 50,-10 80,-10 16.66667,0 40,13.333333 40,30 0,16.666667 -23.33333,30 -40,30 C 130,30 80,20 80,20"
             id="path3740"
             transform="translate(0,238.24998)"
             sodipodi:nodetypes="cszsc" />
          <circle
             style="fill:none;stroke:#000000;stroke-width:1.33333;stroke-linecap:round;stroke-linejoin:round;stroke-miterlimit:4;stroke-dasharray:none;stroke-opacity:1"
             id="circle3742"
             cx="165"
             cy="5"
             r="5"
             transform="matrix(0.59999999,0,0,1,16.999999,233.24998)" />
          <path
             style="fill:none;stroke:#0000ff;stroke-width:0.666667;stroke-linecap:round;stroke-linejoin:round;stroke-miterlimit:4;stroke-dasharray:none;stroke-dashoffset:0;stroke-opacity:1"
             d="M -30,0 H 330"
             id="path3744"
             transform="matrix(0.59999999,0,0,1,19.999999,238.24998)" />
        </g>
        <path
           style="fill:none;stroke:#b2b2b2;stroke-width:1.33333;stroke-linecap:round;stroke-linejoin:round;stroke-miterlimit:4;stroke-dasharray:3, 3;stroke-dashoffset:0;stroke-opacity:1"
           id="circle3752"
           transform="scale(2)"
           sodipodi:type="arc"
           sodipodi:cx="0"
           sodipodi:cy="500"
           sodipodi:rx="500"
           sodipodi:ry="500"
           sodipodi:start="4.1767775"
           sodipodi:end="5.2371904"
           sodipodi:arc-type="arc"
           sodipodi:open="true"
           d="M -255.18349,70.021645 A 500,500 0 0 1 250.52058,67.288272" />
        <g
           id="g3766"
           transform="matrix(1.510513,-0.70436378,0.42261827,0.90630779,-534.72797,-100.14863)"
           style="stroke-width:0.774597"
           inkscape:transform-center-x="9.056631"
           inkscape:transform-center-y="4.2220009">
          <path
             style="fill:none;stroke:#000000;stroke-width:2.06559;stroke-linecap:round;stroke-linejoin:round;stroke-miterlimit:4;stroke-dasharray:none;stroke-opacity:1"
             d="M 60,-20 0,-10 v 20 l 60,10"
             id="path3754"
             transform="translate(20,238.24998)"
             sodipodi:nodetypes="cccc" />
          <path
             style="fill:none;stroke:#000000;stroke-width:2.06559;stroke-linecap:round;stroke-linejoin:round;stroke-miterlimit:4;stroke-dasharray:none;stroke-opacity:1"
             d="m 80,-20 c 0,0 50,-10 80,-10 16.66667,0 40,13.333333 40,30 0,16.666667 -23.33333,30 -40,30 C 130,30 80,20 80,20"
             id="path3756"
             transform="translate(0,238.24998)"
             sodipodi:nodetypes="cszsc" />
          <circle
             style="fill:none;stroke:#000000;stroke-width:1.33333;stroke-linecap:round;stroke-linejoin:round;stroke-miterlimit:4;stroke-dasharray:none;stroke-opacity:1"
             id="circle3758"
             cx="165"
             cy="5"
             r="5"
             transform="matrix(0.59999999,0,0,1,16.999999,233.24998)" />
          <path
             style="fill:none;stroke:#0000ff;stroke-width:0.666667;stroke-linecap:butt;stroke-linejoin:round;stroke-miterlimit:4;stroke-dasharray:none;stroke-dashoffset:0;stroke-opacity:1"
             d="M -30,0 H 330"
             id="path3760"
             transform="matrix(0.59999999,0,0,1,19.999999,238.24998)" />
        </g>
        <g
           id="g3780"
           transform="matrix(1.6603245,0.14525957,-0.08715575,0.9961947,86.986747,-220.11913)"
           style="stroke-width:0.774597"
           inkscape:transform-center-x="9.9627301"
           inkscape:transform-center-y="-1.6011998">
          <path
             style="fill:none;stroke:#000000;stroke-width:2.06559;stroke-linecap:round;stroke-linejoin:round;stroke-miterlimit:4;stroke-dasharray:none;stroke-opacity:1"
             d="M 60,-20 0,-10 v 20 l 60,10"
             id="path3768"
             transform="translate(20,238.24998)"
             sodipodi:nodetypes="cccc" />
          <path
             style="fill:none;stroke:#000000;stroke-width:2.06559;stroke-linecap:round;stroke-linejoin:round;stroke-miterlimit:4;stroke-dasharray:none;stroke-opacity:1"
             d="m 80,-20 c 0,0 50,-10 80,-10 16.66667,0 40,13.333333 40,30 0,16.666667 -23.33333,30 -40,30 C 130,30 80,20 80,20"
             id="path3770"
             transform="translate(0,238.24998)"
             sodipodi:nodetypes="cszsc" />
          <circle
             style="fill:none;stroke:#000000;stroke-width:1.33333;stroke-linecap:round;stroke-linejoin:round;stroke-miterlimit:4;stroke-dasharray:none;stroke-opacity:1"
             id="circle3772"
             cx="165"
             cy="5"
             r="5"
             transform="matrix(0.59999999,0,0,1,16.999999,233.24998)" />
          <path
             style="fill:none;stroke:#0000ff;stroke-width:0.666667;stroke-linecap:round;stroke-linejoin:round;stroke-miterlimit:4;stroke-dasharray:none;stroke-dashoffset:0;stroke-opacity:1"
             d="M -30,0 H 330"
             id="path3774"
             transform="matrix(0.59999999,0,0,1,19.999999,238.24998)" />
        </g>
      </g>
      <g
         id="g4539">
        <g
           id="g3874"
           transform="matrix(1.5661544,-0.57003359,0.34202015,0.93969262,-263.04139,122.34376)"
           style="stroke-width:0.774597"
           inkscape:transform-center-x="9.3969288"
           inkscape:transform-center-y="2.4451352">
          <path
             style="fill:none;stroke:#000000;stroke-width:2.06559;stroke-linecap:round;stroke-linejoin:round;stroke-miterlimit:4;stroke-dasharray:none;stroke-opacity:1"
             d="M 60,-20 0,-10 v 20 l 60,10"
             id="path3864"
             transform="translate(20,238.24998)"
             sodipodi:nodetypes="cccc" />
          <path
             style="fill:none;stroke:#000000;stroke-width:2.06559;stroke-linecap:round;stroke-linejoin:round;stroke-miterlimit:4;stroke-dasharray:none;stroke-opacity:1"
             d="m 80,-20 c 0,0 50,-10 80,-10 16.66667,0 40,13.333333 40,30 0,16.666667 -23.33333,30 -40,30 C 130,30 80,20 80,20"
             id="path3866"
             transform="translate(0,238.24998)"
             sodipodi:nodetypes="cszsc" />
          <circle
             style="fill:none;stroke:#000000;stroke-width:1.33333;stroke-linecap:round;stroke-linejoin:round;stroke-miterlimit:4;stroke-dasharray:none;stroke-opacity:1"
             id="circle3868"
             cx="165"
             cy="5"
             r="5"
             transform="matrix(0.59999999,0,0,1,16.999999,233.24998)" />
          <path
             style="fill:none;stroke:#0000ff;stroke-width:0.666667;stroke-linecap:round;stroke-linejoin:round;stroke-miterlimit:4;stroke-dasharray:none;stroke-dashoffset:0;stroke-opacity:1"
             d="M -30,0 H 330"
             id="path3870"
             transform="matrix(0.59999999,0,0,1,19.999999,238.24998)" />
        </g>
        <path
           style="fill:none;stroke:#b2b2b2;stroke-width:1.33333;stroke-linecap:round;stroke-linejoin:round;stroke-miterlimit:4;stroke-dasharray:3, 3;stroke-dashoffset:0;stroke-opacity:1"
           id="path3876"
           transform="matrix(2,0,0,2,0.11881444,280.10162)"
           sodipodi:type="arc"
           sodipodi:cx="0"
           sodipodi:cy="500"
           sodipodi:rx="500"
           sodipodi:ry="500"
           sodipodi:start="4.1767775"
           sodipodi:end="5.2371904"
           sodipodi:arc-type="arc"
           sodipodi:open="true"
           d="M -255.18349,70.021645 A 500,500 0 0 1 250.52058,67.288272" />
        <g
           id="g3888"
           transform="matrix(1.3652534,-0.95596074,0.57357644,0.81915205,-553.72566,229.90204)"
           style="stroke-width:0.774597"
           inkscape:transform-center-x="8.1859057"
           inkscape:transform-center-y="5.7305326">
          <path
             style="fill:none;stroke:#000000;stroke-width:2.06559;stroke-linecap:round;stroke-linejoin:round;stroke-miterlimit:4;stroke-dasharray:none;stroke-opacity:1"
             d="M 60,-20 0,-10 v 20 l 60,10"
             id="path3878"
             transform="translate(20,238.24998)"
             sodipodi:nodetypes="cccc" />
          <path
             style="fill:none;stroke:#000000;stroke-width:2.06559;stroke-linecap:round;stroke-linejoin:round;stroke-miterlimit:4;stroke-dasharray:none;stroke-opacity:1"
             d="m 80,-20 c 0,0 50,-10 80,-10 16.66667,0 40,13.333333 40,30 0,16.666667 -23.33333,30 -40,30 C 130,30 80,20 80,20"
             id="path3880"
             transform="translate(0,238.24998)"
             sodipodi:nodetypes="cszsc" />
          <circle
             style="fill:none;stroke:#000000;stroke-width:1.33333;stroke-linecap:round;stroke-linejoin:round;stroke-miterlimit:4;stroke-dasharray:none;stroke-opacity:1"
             id="circle3882"
             cx="165"
             cy="5"
             r="5"
             transform="matrix(0.59999999,0,0,1,16.999999,233.24998)" />
          <path
             style="fill:none;stroke:#0000ff;stroke-width:0.666667;stroke-linecap:butt;stroke-linejoin:round;stroke-miterlimit:4;stroke-dasharray:none;stroke-dashoffset:0;stroke-opacity:1"
             d="M -30,0 H 330"
             id="path3884"
             transform="matrix(0.59999999,0,0,1,19.999999,238.24998)" />
        </g>
        <g
           id="g3900"
           transform="matrix(1.6603245,-0.14525957,0.08715574,0.9961947,45.580691,93.692142)"
           style="stroke-width:0.774597"
           inkscape:transform-center-x="10.013431"
           inkscape:transform-center-y="-5.2977435">
          <path
             style="fill:none;stroke:#000000;stroke-width:2.06559;stroke-linecap:round;stroke-linejoin:round;stroke-miterlimit:4;stroke-dasharray:none;stroke-opacity:1"
             d="M 60,-20 0,-10 v 20 l 60,10"
             id="path3890"
             transform="translate(20,238.24998)"
             sodipodi:nodetypes="cccc" />
          <path
             style="fill:none;stroke:#000000;stroke-width:2.06559;stroke-linecap:round;stroke-linejoin:round;stroke-miterlimit:4;stroke-dasharray:none;stroke-opacity:1"
             d="m 80,-20 c 0,0 50,-10 80,-10 16.66667,0 40,13.333333 40,30 0,16.666667 -23.33333,30 -40,30 C 130,30 80,20 80,20"
             id="path3892"
             transform="translate(0,238.24998)"
             sodipodi:nodetypes="cszsc" />
          <circle
             style="fill:none;stroke:#000000;stroke-width:1.33333;stroke-linecap:round;stroke-linejoin:round;stroke-miterlimit:4;stroke-dasharray:none;stroke-opacity:1"
             id="circle3894"
             cx="165"
             cy="5"
             r="5"
             transform="matrix(0.59999999,0,0,1,16.999999,233.24998)" />
          <path
             style="fill:none;stroke:#0000ff;stroke-width:0.666667;stroke-linecap:round;stroke-linejoin:round;stroke-miterlimit:4;stroke-dasharray:none;stroke-dashoffset:0;stroke-opacity:1"
             d="M -30,0 H 330"
             id="path3896"
             transform="matrix(0.59999999,0,0,1,19.999999,238.24998)" />
        </g>
        <path
           style="fill:none;stroke:#0000ff;stroke-width:0.666667;stroke-linecap:round;stroke-linejoin:round;stroke-miterlimit:4;stroke-dasharray:none;stroke-dashoffset:0;stroke-opacity:1"
           d="M -30,0 H 330"
           id="path3960"
           transform="rotate(4.9999999,-3388.4373,1290.1188)" />
        <path
           style="fill:none;stroke:#0000ff;stroke-width:0.666667;stroke-linecap:round;stroke-linejoin:round;stroke-miterlimit:4;stroke-dasharray:none;stroke-dashoffset:0;stroke-opacity:1"
           d="M -30,0 H 330"
           id="path3963"
           transform="rotate(-10,1680.8474,1053.7759)" />
        <path
           style="fill:none;stroke:#0000ff;stroke-width:0.666667;stroke-linecap:butt;stroke-linejoin:round;stroke-miterlimit:4;stroke-dasharray:none;stroke-dashoffset:0;stroke-opacity:1"
           d="M -30,0 H 330"
           id="path3966"
           transform="rotate(-25,659.22462,1101.4061)" />
        <path
           style="fill:none;stroke:#0000ff;stroke-width:0.666667;stroke-linecap:butt;stroke-linejoin:round;stroke-miterlimit:4;stroke-dasharray:none;stroke-dashoffset:0;stroke-opacity:1;marker-start:url(#Arrow2Lend);marker-end:url(#Arrow2Lstart)"
           id="path3969"
           sodipodi:type="arc"
           sodipodi:cx="0"
           sodipodi:cy="280"
           sodipodi:rx="160"
           sodipodi:ry="160"
           sodipodi:start="2.7899817"
           sodipodi:end="2.9667823"
           sodipodi:open="true"
           sodipodi:arc-type="arc"
           d="m -150.21106,335.1057 a 160,160 0 0 1 -7.35047,-27.27828" />
        <path
           style="fill:none;stroke:#0000ff;stroke-width:0.666667;stroke-linecap:butt;stroke-linejoin:round;stroke-miterlimit:4;stroke-dasharray:none;stroke-dashoffset:0;stroke-opacity:1"
           id="path4329"
           sodipodi:type="arc"
           sodipodi:cx="0"
           sodipodi:cy="280"
           sodipodi:rx="160"
           sodipodi:ry="160"
           sodipodi:start="2.5497992"
           sodipodi:end="3.2510002"
           sodipodi:open="true"
           sodipodi:arc-type="arc"
           d="m -132.79065,369.25606 a 160,160 0 0 1 -26.2527,-106.72637" />
        <text
           xml:space="preserve"
           style="font-size:26.6667px;font-family:'SBL BibLit';-inkscape-font-specification:'SBL BibLit';text-align:end;text-anchor:end;fill:none;stroke:#0000ff;stroke-width:0.666667;stroke-linecap:butt;stroke-linejoin:round;stroke-miterlimit:4;stroke-dasharray:none;stroke-dashoffset:0;stroke-opacity:1"
           x="-200"
           y="400"
           id="text4457"
           transform="translate(31.41945,-66.886213)"><tspan
             sodipodi:role="line"
             id="tspan4455"
             x="-200"
             y="400"
             style="font-size:26.6667px;fill:#000000;fill-opacity:1;stroke:none">α</tspan></text>
      </g>
    </g>
    <text
       xml:space="preserve"
       style="font-size:26.6667px;font-family:'SBL BibLit';-inkscape-font-specification:'SBL BibLit';text-align:end;text-anchor:end;opacity:0.996;fill:#ffffff;fill-opacity:0.2;stroke:none;stroke-width:1.067;stroke-linecap:butt;stroke-linejoin:round;stroke-miterlimit:4;stroke-dasharray:none;stroke-dashoffset:0;stroke-opacity:1"
       x="550"
       y="230"
       id="text4664"
       transform="translate(310.81744,51.4323)"><tspan
         sodipodi:role="line"
         id="tspan4662"
         x="549.99994"
         y="230"
         style="fill:#000000;fill-opacity:1">Palhetas diretrizes: abertura, a, e ângulo de abertura, α.</tspan></text>
    <g
       id="g4725">
      <g
         id="g4468"
         transform="translate(554.6035,85.347524)">
        <circle
           style="opacity:0.996;fill:#999999;fill-opacity:1;stroke:#999999;stroke-width:0.845697;stroke-linecap:butt;stroke-linejoin:round;stroke-miterlimit:4;stroke-dasharray:none;stroke-dashoffset:0;stroke-opacity:1"
           id="path4459"
           cx="-85"
           cy="135"
           r="15"
           transform="matrix(1.2612872,0,0,1.2612872,205.15681,127.19593)" />
        <text
           xml:space="preserve"
           style="font-size:26.6667px;font-family:'SBL BibLit';-inkscape-font-specification:'SBL BibLit';text-align:end;text-anchor:end;opacity:0.996;fill:none;stroke:#0000ff;stroke-width:0.666667;stroke-linecap:butt;stroke-linejoin:round;stroke-miterlimit:4;stroke-dasharray:none;stroke-dashoffset:0;stroke-opacity:1"
           x="-200"
           y="400"
           id="text4463"
           transform="translate(303.631,-96.488624)"><tspan
             sodipodi:role="line"
             id="tspan4461"
             x="-200"
             y="400"
             style="font-size:26.6667px;fill:#000000;fill-opacity:1;stroke:none">a</tspan></text>
      </g>
      <path
         style="opacity:0.996;fill:#000000;fill-opacity:1;stroke:#000000;stroke-width:2.26757;stroke-linecap:butt;stroke-linejoin:round;stroke-miterlimit:4;stroke-dasharray:none;stroke-dashoffset:0;stroke-opacity:1;marker-end:url(#marker4731)"
         d="m 612.2905,404.79017 86.08418,-47.62475"
         id="path4727"
         transform="matrix(0.294,0,0,0.294,429.4954,287.62129)" />
      <path
         style="opacity:0.992;fill:#000000;fill-opacity:1;stroke:#000000;stroke-width:2.26757;stroke-linecap:butt;stroke-linejoin:round;stroke-miterlimit:4;stroke-dasharray:none;stroke-dashoffset:0;stroke-opacity:1;marker-start:url(#marker4803)"
         d="m 612.2905,404.79017 86.08418,-47.62475"
         id="path4799"
         transform="matrix(0.294,0,0,0.294,490.27083,253.99822)" />
    </g>
  </g>
</svg>
