<?xml version="1.0" encoding="UTF-8" standalone="no"?>
<svg
   xmlns:dc="http://purl.org/dc/elements/1.1/"
   xmlns:cc="http://creativecommons.org/ns#"
   xmlns:rdf="http://www.w3.org/1999/02/22-rdf-syntax-ns#"
   xmlns:svg="http://www.w3.org/2000/svg"
   xmlns="http://www.w3.org/2000/svg"
   xmlns:sodipodi="http://sodipodi.sourceforge.net/DTD/sodipodi-0.dtd"
   xmlns:inkscape="http://www.inkscape.org/namespaces/inkscape"
   width="700"
   height="500"
   viewBox="0 0 700 500"
   version="1.1"
   id="svg1097"
   inkscape:version="1.0.1 (3bc2e813f5, 2020-09-07)"
   sodipodi:docname="02-GuideVanes.svg">
  <defs
     id="defs1091" />
  <sodipodi:namedview
     id="base"
     pagecolor="#ffffff"
     bordercolor="#666666"
     borderopacity="1.0"
     inkscape:pageopacity="0.0"
     inkscape:pageshadow="2"
     inkscape:zoom="3.344"
     inkscape:cx="-279.33203"
     inkscape:cy="46.084373"
     inkscape:document-units="px"
     inkscape:current-layer="g3606"
     showgrid="true"
     units="px"
     inkscape:window-width="1920"
     inkscape:window-height="1027"
     inkscape:window-x="0"
     inkscape:window-y="0"
     inkscape:window-maximized="1"
     inkscape:document-rotation="0"
     inkscape:snap-global="true"
     inkscape:snap-intersection-paths="true"
     inkscape:snap-bbox="true"
     inkscape:bbox-nodes="true"
     inkscape:snap-grids="false"
     inkscape:snap-to-guides="false"
     inkscape:object-nodes="false"
     inkscape:snap-others="false">
    <inkscape:grid
       type="xygrid"
       id="grid1646"
       spacingx="10"
       spacingy="10"
       empspacing="2"
       dotted="true"
       enabled="true"
       snapvisiblegridlinesonly="true"
       visible="true" />
    <inkscape:grid
       type="xygrid"
       id="grid1648"
       spacingx="20"
       spacingy="20"
       empspacing="5"
       dotted="false" />
  </sodipodi:namedview>
  <metadata
     id="metadata1094">
    <rdf:RDF>
      <cc:Work
         rdf:about="">
        <dc:format>image/svg+xml</dc:format>
        <dc:type
           rdf:resource="http://purl.org/dc/dcmitype/StillImage" />
        <dc:title></dc:title>
      </cc:Work>
    </rdf:RDF>
  </metadata>
  <g
     inkscape:groupmode="layer"
     id="layer2"
     inkscape:label="Layer 0"
     style="display:inline" />
  <g
     inkscape:label="Layer 1"
     inkscape:groupmode="layer"
     id="layer1"
     transform="translate(0,-238.24998)"
     style="display:inline">
    <g
       id="g3568"
       transform="matrix(1.6666667,0,0,1,-193.33333,0)"
       style="stroke-width:0.774597">
      <path
         style="fill:none;stroke:#000000;stroke-width:2.06559;stroke-linecap:round;stroke-linejoin:round;stroke-miterlimit:4;stroke-dasharray:none;stroke-opacity:1"
         d="M 60,-20 0,-10 v 20 l 60,10"
         id="path3562"
         transform="translate(20,238.24998)"
         sodipodi:nodetypes="cccc" />
      <path
         style="fill:none;stroke:#000000;stroke-width:2.06559;stroke-linecap:round;stroke-linejoin:round;stroke-miterlimit:4;stroke-dasharray:none;stroke-opacity:1"
         d="m 80,-20 c 0,0 50,-10 80,-10 16.66667,0 40,13.333333 40,30 0,16.666667 -23.33333,30 -40,30 C 130,30 80,20 80,20"
         id="path3564"
         transform="translate(0,238.24998)"
         sodipodi:nodetypes="cszsc" />
      <circle
         style="fill:none;stroke:#000000;stroke-width:1.33333;stroke-linecap:round;stroke-linejoin:round;stroke-miterlimit:4;stroke-dasharray:none;stroke-opacity:1"
         id="path3570"
         cx="165"
         cy="5"
         r="5"
         transform="matrix(0.59999999,0,0,1,16.999999,233.24998)" />
      <path
         style="fill:none;stroke:#0000ff;stroke-width:0.66666675;stroke-linecap:round;stroke-linejoin:round;stroke-miterlimit:4;stroke-dasharray:none;stroke-dashoffset:0;stroke-opacity:1"
         d="M -30,0 H 330"
         id="path3572"
         transform="matrix(0.59999999,0,0,1,19.999999,238.24998)" />
      <path
         style="fill:none;stroke:#000000;stroke-width:0.1849;stroke-linecap:round;stroke-linejoin:round;stroke-miterlimit:4;stroke-dasharray:1.1094, 0.5547, 0.27735, 0.5547;stroke-dashoffset:0;stroke-opacity:1"
         d="M 160,-40 V 40"
         id="path3574"
         transform="matrix(0.59999999,0,0,13,19.999999,718.24998)" />
      <path
         style="fill:none;stroke:#0000ff;stroke-width:9.61480292;stroke-linecap:butt;stroke-linejoin:round;stroke-miterlimit:4;stroke-dasharray:none;stroke-dashoffset:0;stroke-opacity:1"
         d="M 160,-40 V 40"
         id="path3620"
         transform="matrix(-0.04615385,0,0,1,123.38461,238.24998)" />
    </g>
    <circle
       style="fill:none;stroke:#000000;stroke-width:0.333334;stroke-linecap:round;stroke-linejoin:round;stroke-miterlimit:4;stroke-dasharray:2, 0.999997, 0.5, 0.999997;stroke-dashoffset:0;stroke-opacity:1"
       id="path3594"
       cx="0"
       cy="500"
       r="500"
       transform="matrix(2,0,0,2,0,238.24998)" />
    <g
       id="g3606"
       transform="matrix(1.6098764,-0.43136508,0.25881905,0.96592583,-507.22834,92.230688)"
       style="stroke-width:0.774597">
      <path
         style="fill:none;stroke:#000000;stroke-width:2.06559;stroke-linecap:round;stroke-linejoin:round;stroke-miterlimit:4;stroke-dasharray:none;stroke-opacity:1"
         d="M 60,-20 0,-10 v 20 l 60,10"
         id="path3596"
         transform="translate(20,238.24998)"
         sodipodi:nodetypes="cccc" />
      <path
         style="fill:none;stroke:#000000;stroke-width:2.06559;stroke-linecap:round;stroke-linejoin:round;stroke-miterlimit:4;stroke-dasharray:none;stroke-opacity:1"
         d="m 80,-20 c 0,0 50,-10 80,-10 16.66667,0 40,13.333333 40,30 0,16.666667 -23.33333,30 -40,30 C 130,30 80,20 80,20"
         id="path3598"
         transform="translate(0,238.24998)"
         sodipodi:nodetypes="cszsc" />
      <circle
         style="fill:none;stroke:#000000;stroke-width:1.33333;stroke-linecap:round;stroke-linejoin:round;stroke-miterlimit:4;stroke-dasharray:none;stroke-opacity:1"
         id="circle3600"
         cx="165"
         cy="5"
         r="5"
         transform="matrix(0.59999999,0,0,1,16.999999,233.24998)" />
      <path
         style="fill:none;stroke:#000000;stroke-width:0.666667;stroke-linecap:round;stroke-linejoin:round;stroke-miterlimit:4;stroke-dasharray:4, 2, 1, 2;stroke-dashoffset:0;stroke-opacity:1"
         d="M -30,0 H 330"
         id="path3602"
         transform="matrix(0.59999999,0,0,1,19.999999,238.24998)" />
      <path
         style="fill:none;stroke:#000000;stroke-width:0.1849;stroke-linecap:round;stroke-linejoin:round;stroke-miterlimit:4;stroke-dasharray:1.1094, 0.5547, 0.27735, 0.5547;stroke-dashoffset:0;stroke-opacity:1"
         d="M 160,-40 V 40"
         id="path3604"
         transform="matrix(0.59999999,0,0,13,19.999999,718.24998)" />
      <path
         style="display:inline;fill:none;stroke:#0000ff;stroke-width:9.6148;stroke-linecap:butt;stroke-linejoin:round;stroke-miterlimit:4;stroke-dasharray:none;stroke-dashoffset:0;stroke-opacity:1"
         d="M 160,-40 V 40"
         id="path3620-3"
         transform="matrix(-0.04458119,-0.01990916,-0.15529143,0.96592582,123.21547,241.48961)" />
    </g>
    <g
       id="g3618"
       transform="matrix(1.6098764,0.43136508,-0.25881905,0.96592583,133.73703,-7.8460078)"
       style="stroke-width:0.774597">
      <path
         style="fill:none;stroke:#000000;stroke-width:2.06559;stroke-linecap:round;stroke-linejoin:round;stroke-miterlimit:4;stroke-dasharray:none;stroke-opacity:1"
         d="M 60,-20 0,-10 v 20 l 60,10"
         id="path3608"
         transform="translate(20,238.24998)"
         sodipodi:nodetypes="cccc" />
      <path
         style="fill:none;stroke:#000000;stroke-width:2.06559;stroke-linecap:round;stroke-linejoin:round;stroke-miterlimit:4;stroke-dasharray:none;stroke-opacity:1"
         d="m 80,-20 c 0,0 50,-10 80,-10 16.66667,0 40,13.333333 40,30 0,16.666667 -23.33333,30 -40,30 C 130,30 80,20 80,20"
         id="path3610"
         transform="translate(0,238.24998)"
         sodipodi:nodetypes="cszsc" />
      <circle
         style="fill:none;stroke:#000000;stroke-width:1.33333;stroke-linecap:round;stroke-linejoin:round;stroke-miterlimit:4;stroke-dasharray:none;stroke-opacity:1"
         id="circle3612"
         cx="165"
         cy="5"
         r="5"
         transform="matrix(0.59999999,0,0,1,16.999999,233.24998)" />
      <path
         style="fill:none;stroke:#0000ff;stroke-width:0.66666698;stroke-linecap:round;stroke-linejoin:round;stroke-miterlimit:4;stroke-dasharray:none;stroke-dashoffset:0;stroke-opacity:1"
         d="M -30,0 H 330"
         id="path3614"
         transform="matrix(0.59999999,0,0,1,19.999999,238.24998)" />
      <path
         style="fill:none;stroke:#000000;stroke-width:0.1849;stroke-linecap:round;stroke-linejoin:round;stroke-miterlimit:4;stroke-dasharray:1.1094, 0.5547, 0.27735, 0.5547;stroke-dashoffset:0;stroke-opacity:1"
         d="M 160,-40 V 40"
         id="path3616"
         transform="matrix(0.59999999,0,0,13,19.999999,718.24998)" />
      <path
         style="display:inline;fill:none;stroke:#0000ff;stroke-width:9.61480401;stroke-linecap:butt;stroke-linejoin:round;stroke-miterlimit:4;stroke-dasharray:none;stroke-dashoffset:0;stroke-opacity:1"
         d="M 160,-40 V 40"
         id="path3620-5"
         transform="matrix(-0.04615384,0,0,0.99999999,123.38461,238.24998)" />
    </g>
  </g>
</svg>
