<?xml version="1.0" encoding="UTF-8" standalone="no"?>
<svg
   xmlns:dc="http://purl.org/dc/elements/1.1/"
   xmlns:cc="http://creativecommons.org/ns#"
   xmlns:rdf="http://www.w3.org/1999/02/22-rdf-syntax-ns#"
   xmlns:svg="http://www.w3.org/2000/svg"
   xmlns="http://www.w3.org/2000/svg"
   xmlns:sodipodi="http://sodipodi.sourceforge.net/DTD/sodipodi-0.dtd"
   xmlns:inkscape="http://www.inkscape.org/namespaces/inkscape"
   width="230"
   height="330"
   viewBox="0 0 60.854165 87.312503"
   version="1.1"
   id="svg2727"
   inkscape:version="1.0.1 (3bc2e813f5, 2020-09-07)"
   sodipodi:docname="fig-08.svg">
  <defs
     id="defs2721">
    <clipPath
       clipPathUnits="userSpaceOnUse"
       id="clipPath142">
      <path
         d="M 0,0 H 360 V 260 H 0 Z"
         id="path140" />
    </clipPath>
    <clipPath
       clipPathUnits="userSpaceOnUse"
       id="clipPath148">
      <path
         d="M 0,0 H 360 V 260 H 0 Z"
         id="path146" />
    </clipPath>
    <clipPath
       clipPathUnits="userSpaceOnUse"
       id="clipPath156">
      <path
         d="M 0,0 H 360 V 360 H 0 Z"
         id="path154" />
    </clipPath>
    <clipPath
       clipPathUnits="userSpaceOnUse"
       id="clipPath166">
      <path
         d="M 0,0 H 360 V 360 H 0 Z"
         id="path164" />
    </clipPath>
    <clipPath
       clipPathUnits="userSpaceOnUse"
       id="clipPath260">
      <path
         d="M 0,0 H 360 V 360 H 0 Z"
         id="path258" />
    </clipPath>
  </defs>
  <sodipodi:namedview
     id="base"
     pagecolor="#ffffff"
     bordercolor="#666666"
     borderopacity="1.0"
     inkscape:pageopacity="0.0"
     inkscape:pageshadow="2"
     inkscape:zoom="1.2477489"
     inkscape:cx="249.84296"
     inkscape:cy="141.74653"
     inkscape:document-units="mm"
     inkscape:current-layer="layer1"
     inkscape:document-rotation="0"
     showgrid="false"
     units="px"
     inkscape:pagecheckerboard="true"
     inkscape:snap-bbox="true"
     inkscape:snap-page="true" />
  <metadata
     id="metadata2724">
    <rdf:RDF>
      <cc:Work
         rdf:about="">
        <dc:format>image/svg+xml</dc:format>
        <dc:type
           rdf:resource="http://purl.org/dc/dcmitype/StillImage" />
        <dc:title />
      </cc:Work>
    </rdf:RDF>
  </metadata>
  <g
     inkscape:label="Layer 1"
     inkscape:groupmode="layer"
     id="layer1">
    <rect
       style="opacity:0.4;fill:#ffffff;fill-opacity:0.2;stroke:none;stroke-width:0.653835;stroke-linecap:round;stroke-linejoin:round;stroke-miterlimit:10"
       id="rect4250"
       width="260"
       height="240"
       x="0"
       y="0"
       transform="matrix(0.23405449,0,0,0.23702257,0,15.213542)" />
    <g
       id="g132"
       transform="matrix(0.16709306,0,0,-0.16709306,0.35033073,59.53342)"
       style="opacity:0.4;stroke-width:1.13043">
      <g
         id="g134"
         style="stroke-width:1.13043">
        <g
           id="g136"
           style="stroke-width:1.13043">
          <g
             id="g138"
             clip-path="url(#clipPath142)"
             style="stroke-width:1.13043">
            <g
               id="g144"
               clip-path="url(#clipPath148)"
               style="stroke-width:1.13043">
              <g
                 id="g150"
                 style="stroke-width:1.13043">
                <g
                   id="g152"
                   clip-path="url(#clipPath156)"
                   style="stroke-width:1.13043">
                  <path
                     d="M 0,0 H 360 V 260 H 0"
                     style="fill:#ffffff;fill-opacity:1;fill-rule:evenodd;stroke:none;stroke-width:1.13043"
                     id="path158" />
                </g>
              </g>
              <g
                 id="g160"
                 style="stroke-width:1.13043">
                <g
                   id="g162"
                   clip-path="url(#clipPath166)"
                   style="stroke-width:1.13043">
                  <path
                     d="M 39.53,24.32 H 348.19 V 248.19 H 39.53"
                     style="fill:#ffffff;fill-opacity:1;fill-rule:evenodd;stroke:none;stroke-width:1.13043"
                     id="path168" />
                </g>
              </g>
              <path
                 d="M 89.86,24.32 V 248.19"
                 style="fill:none;stroke:#000000;stroke-width:0.565217;stroke-linecap:butt;stroke-linejoin:miter;stroke-miterlimit:10;stroke-dasharray:none;stroke-opacity:0.098039"
                 id="path170" />
              <path
                 d="M 182.3,24.32 V 248.19"
                 style="fill:none;stroke:#000000;stroke-width:0.565217;stroke-linecap:butt;stroke-linejoin:miter;stroke-miterlimit:10;stroke-dasharray:none;stroke-opacity:0.098039"
                 id="path172" />
              <path
                 d="M 274.74,24.32 V 248.19"
                 style="fill:none;stroke:#000000;stroke-width:0.565217;stroke-linecap:butt;stroke-linejoin:miter;stroke-miterlimit:10;stroke-dasharray:none;stroke-opacity:0.098039"
                 id="path174" />
              <path
                 d="M 39.53,24.32 H 348.19"
                 style="fill:none;stroke:#000000;stroke-width:1.13043;stroke-linecap:butt;stroke-linejoin:miter;stroke-miterlimit:10;stroke-dasharray:none;stroke-opacity:1"
                 id="path176" />
              <path
                 d="m 89.86,24.32 v 2.69"
                 style="fill:none;stroke:#000000;stroke-width:1.13043;stroke-linecap:butt;stroke-linejoin:miter;stroke-miterlimit:10;stroke-dasharray:none;stroke-opacity:1"
                 id="path178" />
              <path
                 d="m 182.3,24.32 v 2.69"
                 style="fill:none;stroke:#000000;stroke-width:1.13043;stroke-linecap:butt;stroke-linejoin:miter;stroke-miterlimit:10;stroke-dasharray:none;stroke-opacity:1"
                 id="path180" />
              <path
                 d="m 274.74,24.32 v 2.69"
                 style="fill:none;stroke:#000000;stroke-width:1.13043;stroke-linecap:butt;stroke-linejoin:miter;stroke-miterlimit:10;stroke-dasharray:none;stroke-opacity:1"
                 id="path182" />
              <path
                 d="m 78.54,19.58 v 0.37 c 0,0 1.44,0 2.18,0.77 0,0 0.2,0 0.24,-0.05 0,0 0.03,-0.04 0.03,-0.26 v -6.73 c 0,0 0,-0.36 0.18,-0.47 0,0 0.18,-0.11 0.94,-0.11 h 0.38 v -0.37 c 0,0 -0.42,0.04 -1.94,0.04 0,0 -1.52,0 -1.94,-0.04 v 0.37 h 0.38 c 0,0 0.76,0 0.94,0.11 0,0 0.18,0.11 0.18,0.47 v 6.21 c 0,0 -0.63,-0.31 -1.57,-0.31 z"
                 style="fill:#000000;fill-opacity:1;fill-rule:evenodd;stroke:none;stroke-width:1.13043"
                 id="path184" />
              <path
                 d="m 83.84,19.58 v 0.37 c 0,0 1.44,0 2.19,0.77 0,0 0.2,0 0.24,-0.05 0,0 0.03,-0.04 0.03,-0.26 v -6.73 c 0,0 0,-0.36 0.18,-0.47 0,0 0.17,-0.11 0.94,-0.11 h 0.38 v -0.37 c 0,0 -0.42,0.04 -1.94,0.04 0,0 -1.53,0 -1.94,-0.04 v 0.37 h 0.38 c 0,0 0.75,0 0.94,0.11 0,0 0.18,0.11 0.18,0.47 v 6.21 c 0,0 -0.63,-0.31 -1.58,-0.31 z"
                 style="fill:#000000;fill-opacity:1;fill-rule:evenodd;stroke:none;stroke-width:1.13043"
                 id="path186" />
              <path
                 d="m 89.3,12.73 c 0,0 0,0.22 0.02,0.28 0,0 0.02,0.07 0.11,0.17 l 2.3,2.56 c 0,0 1.26,1.42 1.26,2.66 0,0 0,0.8 -0.42,1.37 0,0 -0.41,0.58 -1.18,0.58 0,0 -0.53,0 -0.97,-0.33 0,0 -0.45,-0.32 -0.65,-0.89 0,0 0.03,0.01 0.15,0.01 0,0 0.3,0 0.47,-0.19 0,0 0.17,-0.19 0.17,-0.44 0,0 0,-0.32 -0.21,-0.48 0,0 -0.21,-0.15 -0.41,-0.15 0,0 -0.09,0 -0.2,0.02 0,0 -0.1,0.02 -0.27,0.18 0,0 -0.17,0.17 -0.17,0.47 0,0 0,0.84 0.63,1.5 0,0 0.64,0.67 1.61,0.67 0,0 1.1,0 1.82,-0.66 0,0 0.73,-0.65 0.73,-1.66 0,0 0,-0.36 -0.11,-0.69 0,0 -0.11,-0.32 -0.26,-0.57 0,0 -0.14,-0.26 -0.52,-0.66 0,0 -0.39,-0.4 -0.7,-0.69 0,0 -0.31,-0.29 -1.01,-0.9 l -1.27,-1.23 h 2.16 c 0,0 1.06,0 1.14,0.09 0,0 0.12,0.17 0.26,1.07 h 0.31 l -0.34,-2.09 z"
                 style="fill:#000000;fill-opacity:1;fill-rule:evenodd;stroke:none;stroke-width:1.13043"
                 id="path188" />
              <path
                 d="m 95.24,14.67 c 0,0 0,0.35 0.19,0.49 0,0 0.2,0.14 0.4,0.14 0,0 0.28,0 0.44,-0.18 0,0 0.16,-0.17 0.16,-0.41 0,0 0,-0.24 -0.16,-0.41 0,0 -0.16,-0.17 -0.44,-0.17 0,0 -0.13,0 -0.2,0.02 0,0 0.16,-0.55 0.64,-0.95 0,0 0.48,-0.4 1.12,-0.4 0,0 0.8,0 1.28,0.78 0,0 0.29,0.51 0.29,1.65 0,0 0,1 -0.22,1.51 0,0 -0.33,0.77 -1.02,0.77 0,0 -0.97,0 -1.54,-0.84 0,0 -0.07,-0.11 -0.15,-0.11 0,0 -0.12,0 -0.15,0.06 0,0 -0.02,0.07 -0.02,0.25 v 3.55 c 0,0 0,0.29 0.11,0.29 0,0 0.05,0 0.15,-0.04 0,0 0.76,-0.33 1.59,-0.34 0,0 0.86,0 1.64,0.36 0,0 0.05,0.03 0.09,0.03 0,0 0.12,0 0.12,-0.13 0,0 0,-0.05 -0.1,-0.19 0,0 -0.09,-0.14 -0.3,-0.32 0,0 -0.2,-0.17 -0.46,-0.34 0,0 -0.27,-0.17 -0.65,-0.29 0,0 -0.38,-0.11 -0.81,-0.11 0,0 -0.5,0 -1.01,0.16 v -2.34 c 0,0 0.62,0.61 1.52,0.61 0,0 0.96,0 1.62,-0.77 0,0 0.66,-0.78 0.66,-1.85 0,0 0,-1.13 -0.78,-1.91 0,0 -0.78,-0.77 -1.84,-0.77 0,0 -0.96,0 -1.57,0.68 0,0 -0.6,0.69 -0.6,1.52 z"
                 style="fill:#000000;fill-opacity:1;fill-rule:evenodd;stroke:none;stroke-width:1.13043"
                 id="path190" />
              <path
                 d="m 171.19,14.22 c 0,0 0,0.36 0.21,0.53 0,0 0.2,0.17 0.47,0.17 0,0 0.27,0 0.46,-0.18 0,0 0.2,-0.18 0.2,-0.49 0,0 0,-0.33 -0.23,-0.52 0,0 -0.23,-0.19 -0.56,-0.14 0,0 0.29,-0.48 0.82,-0.7 0,0 0.53,-0.22 1.02,-0.22 0,0 0.52,0 0.93,0.45 0,0 0.42,0.44 0.42,1.53 0,0 0,0.93 -0.36,1.46 0,0 -0.36,0.53 -1.06,0.53 h -0.53 c 0,0 -0.18,0 -0.24,0.02 0,0 -0.05,0.02 -0.05,0.12 0,0 0,0.12 0.18,0.14 0,0 0.18,0 0.47,0.04 0,0 0.7,0.02 1.07,0.62 0,0 0.33,0.56 0.33,1.37 0,0 0,0.73 -0.35,1.03 0,0 -0.35,0.31 -0.8,0.31 0,0 -0.42,0 -0.88,-0.17 0,0 -0.46,-0.18 -0.72,-0.57 0,0 0.75,0 0.75,-0.6 0,0 0,-0.27 -0.17,-0.44 0,0 -0.17,-0.17 -0.44,-0.17 0,0 -0.26,0 -0.44,0.16 0,0 -0.18,0.17 -0.18,0.46 0,0 0,0.68 0.61,1.16 0,0 0.62,0.47 1.52,0.47 0,0 0.89,0 1.55,-0.47 0,0 0.66,-0.47 0.66,-1.19 0,0 0,-0.7 -0.47,-1.28 0,0 -0.47,-0.58 -1.21,-0.82 0,0 0.91,-0.19 1.46,-0.81 0,0 0.54,-0.61 0.54,-1.37 0,0 0,-0.93 -0.74,-1.62 0,0 -0.74,-0.69 -1.81,-0.69 0,0 -1,0 -1.71,0.54 0,0 -0.72,0.54 -0.72,1.34 z"
                 style="fill:#000000;fill-opacity:1;fill-rule:evenodd;stroke:none;stroke-width:1.13043"
                 id="path192" />
              <path
                 d="m 177.14,14.22 c 0,0 0,0.36 0.2,0.53 0,0 0.21,0.17 0.47,0.17 0,0 0.28,0 0.47,-0.18 0,0 0.2,-0.18 0.2,-0.49 0,0 0,-0.33 -0.24,-0.52 0,0 -0.23,-0.19 -0.55,-0.14 0,0 0.28,-0.48 0.81,-0.7 0,0 0.53,-0.22 1.03,-0.22 0,0 0.51,0 0.93,0.45 0,0 0.42,0.44 0.42,1.53 0,0 0,0.93 -0.36,1.46 0,0 -0.36,0.53 -1.07,0.53 h -0.53 c 0,0 -0.18,0 -0.23,0.02 0,0 -0.05,0.02 -0.05,0.12 0,0 0,0.12 0.18,0.14 0,0 0.18,0 0.47,0.04 0,0 0.69,0.02 1.06,0.62 0,0 0.34,0.56 0.34,1.37 0,0 0,0.73 -0.36,1.03 0,0 -0.34,0.31 -0.79,0.31 0,0 -0.42,0 -0.89,-0.17 0,0 -0.46,-0.18 -0.71,-0.57 0,0 0.74,0 0.74,-0.6 0,0 0,-0.27 -0.17,-0.44 0,0 -0.16,-0.17 -0.44,-0.17 0,0 -0.26,0 -0.44,0.16 0,0 -0.17,0.17 -0.17,0.46 0,0 0,0.68 0.61,1.16 0,0 0.61,0.47 1.51,0.47 0,0 0.89,0 1.55,-0.47 0,0 0.66,-0.47 0.66,-1.19 0,0 0,-0.7 -0.47,-1.28 0,0 -0.47,-0.58 -1.21,-0.82 0,0 0.91,-0.19 1.46,-0.81 0,0 0.54,-0.61 0.54,-1.37 0,0 0,-0.93 -0.73,-1.62 0,0 -0.74,-0.69 -1.82,-0.69 0,0 -0.99,0 -1.71,0.54 0,0 -0.71,0.54 -0.71,1.34 z"
                 style="fill:#000000;fill-opacity:1;fill-rule:evenodd;stroke:none;stroke-width:1.13043"
                 id="path194" />
              <path
                 d="m 182.39,18.24 0.39,2.47 h 0.3 c 0,0 0.03,-0.15 0.09,-0.21 0,0 0.07,-0.07 0.41,-0.12 0,0 0.34,-0.05 1.04,-0.05 h 2.91 c 0,0 0,-0.28 -0.11,-0.42 l -1.62,-2.28 c 0,0 -0.51,-0.72 -0.74,-2.05 0,0 -0.14,-0.89 -0.13,-1.97 V 13 c 0,0 0,-0.66 -0.56,-0.66 0,0 -0.55,0 -0.55,0.66 0,0 0,2.29 1.48,4.51 0,0 0.15,0.23 0.73,1.04 0,0 0.59,0.82 0.61,0.85 h -2.48 c 0,0 -1.09,0 -1.18,-0.07 0,0 -0.11,-0.1 -0.29,-1.09 z"
                 style="fill:#000000;fill-opacity:1;fill-rule:evenodd;stroke:none;stroke-width:1.13043"
                 id="path196" />
              <path
                 d="m 187.47,14.54 c 0,0 0,0.35 0.19,0.49 0,0 0.19,0.14 0.4,0.14 0,0 0.27,0 0.43,-0.18 0,0 0.17,-0.17 0.17,-0.41 0,0 0,-0.24 -0.17,-0.41 0,0 -0.16,-0.17 -0.43,-0.17 0,0 -0.14,0 -0.21,0.02 0,0 0.16,-0.55 0.64,-0.95 0,0 0.49,-0.4 1.13,-0.4 0,0 0.8,0 1.28,0.78 0,0 0.29,0.51 0.29,1.65 0,0 0,1.01 -0.22,1.51 0,0 -0.33,0.77 -1.02,0.77 0,0 -0.97,0 -1.55,-0.84 0,0 -0.07,-0.11 -0.15,-0.11 0,0 -0.11,0 -0.14,0.06 0,0 -0.03,0.07 -0.03,0.25 v 3.55 c 0,0 0,0.29 0.12,0.29 0,0 0.05,0 0.15,-0.04 0,0 0.75,-0.33 1.59,-0.33 0,0 0.86,0 1.63,0.35 0,0 0.06,0.03 0.1,0.03 0,0 0.11,0 0.12,-0.13 0,0 0,-0.05 -0.1,-0.19 0,0 -0.09,-0.14 -0.3,-0.32 0,0 -0.2,-0.17 -0.47,-0.34 0,0 -0.26,-0.17 -0.65,-0.29 0,0 -0.38,-0.11 -0.8,-0.11 0,0 -0.5,0 -1.02,0.16 v -2.34 c 0,0 0.62,0.61 1.52,0.61 0,0 0.96,0 1.63,-0.77 0,0 0.66,-0.78 0.66,-1.85 0,0 0,-1.13 -0.79,-1.91 0,0 -0.78,-0.77 -1.83,-0.77 0,0 -0.96,0 -1.57,0.69 0,0 -0.6,0.68 -0.6,1.51 z"
                 style="fill:#000000;fill-opacity:1;fill-rule:evenodd;stroke:none;stroke-width:1.13043"
                 id="path198" />
              <path
                 d="m 262.86,14.67 c 0,0 0,0.35 0.19,0.49 0,0 0.19,0.14 0.4,0.14 0,0 0.27,0 0.43,-0.18 0,0 0.17,-0.17 0.17,-0.41 0,0 0,-0.24 -0.17,-0.41 0,0 -0.16,-0.17 -0.43,-0.17 0,0 -0.14,0 -0.21,0.02 0,0 0.16,-0.55 0.64,-0.95 0,0 0.49,-0.4 1.13,-0.4 0,0 0.8,0 1.28,0.78 0,0 0.28,0.51 0.28,1.65 0,0 0,1 -0.21,1.51 0,0 -0.34,0.77 -1.02,0.77 0,0 -0.97,0 -1.55,-0.84 0,0 -0.07,-0.11 -0.15,-0.11 0,0 -0.12,0 -0.15,0.06 0,0 -0.02,0.07 -0.02,0.25 v 3.55 c 0,0 0,0.29 0.12,0.29 0,0 0.05,0 0.14,-0.04 0,0 0.76,-0.33 1.6,-0.34 0,0 0.86,0 1.63,0.36 0,0 0.06,0.03 0.09,0.03 0,0 0.12,0 0.13,-0.13 0,0 0,-0.05 -0.1,-0.19 0,0 -0.1,-0.14 -0.3,-0.32 0,0 -0.21,-0.17 -0.47,-0.34 0,0 -0.26,-0.17 -0.65,-0.29 0,0 -0.38,-0.11 -0.8,-0.11 0,0 -0.5,0 -1.02,0.16 v -2.34 c 0,0 0.62,0.61 1.52,0.61 0,0 0.96,0 1.62,-0.77 0,0 0.67,-0.78 0.67,-1.85 0,0 0,-1.13 -0.79,-1.91 0,0 -0.78,-0.77 -1.83,-0.77 0,0 -0.96,0 -1.57,0.68 0,0 -0.6,0.69 -0.6,1.52 z"
                 style="fill:#000000;fill-opacity:1;fill-rule:evenodd;stroke:none;stroke-width:1.13043"
                 id="path200" />
              <path
                 d="m 268.8,16.52 c 0,0 0,1.89 0.96,3.04 0,0 0.96,1.16 2.2,1.16 0,0 0.72,0 1.11,-0.37 0,0 0.41,-0.36 0.41,-0.92 0,0 0,-0.31 -0.18,-0.45 0,0 -0.18,-0.13 -0.37,-0.13 0,0 -0.22,0 -0.39,0.14 0,0 -0.17,0.15 -0.17,0.41 0,0 0,0.54 0.66,0.54 0,0 -0.31,0.48 -1.05,0.48 0,0 -0.23,0 -0.46,-0.07 0,0 -0.24,-0.06 -0.54,-0.29 0,0 -0.31,-0.22 -0.54,-0.57 0,0 -0.23,-0.35 -0.4,-1.01 0,0 -0.16,-0.66 -0.16,-1.52 v -0.29 c 0,0 0.49,1.19 1.5,1.18 0,0 1,0 1.7,-0.77 0,0 0.7,-0.76 0.7,-1.9 0,0 0,-1.16 -0.73,-1.94 0,0 -0.72,-0.77 -1.74,-0.77 0,0 -0.46,0 -0.88,0.19 0,0 -0.41,0.19 -0.79,0.62 0,0 -0.38,0.44 -0.61,1.27 0,0 -0.23,0.83 -0.23,1.97 m 1.1,-1.08 c 0,0 0,-1.17 0.22,-1.73 0,0 0.03,-0.1 0.11,-0.23 0,0 0.08,-0.13 0.22,-0.3 0,0 0.14,-0.16 0.36,-0.27 0,0 0.23,-0.11 0.5,-0.11 0,0 0.8,0 1.19,0.78 0,0 0.2,0.44 0.2,1.61 0,0 0,1.2 -0.22,1.64 0,0 -0.37,0.75 -1.12,0.75 0,0 -0.5,0 -0.85,-0.35 0,0 -0.35,-0.35 -0.48,-0.81 0,0 -0.13,-0.46 -0.13,-0.98 z"
                 style="fill:#000000;fill-opacity:1;fill-rule:evenodd;stroke:none;stroke-width:1.13043"
                 id="path202" />
              <path
                 d="m 274.74,12.73 c 0,0 0,0.22 0.02,0.28 0,0 0.02,0.07 0.12,0.17 l 2.3,2.56 c 0,0 1.26,1.42 1.26,2.66 0,0 0,0.8 -0.42,1.37 0,0 -0.42,0.58 -1.19,0.58 0,0 -0.52,0 -0.97,-0.33 0,0 -0.44,-0.32 -0.65,-0.89 0,0 0.04,0.01 0.16,0.01 0,0 0.3,0 0.46,-0.19 0,0 0.17,-0.19 0.17,-0.44 0,0 0,-0.32 -0.21,-0.48 0,0 -0.2,-0.15 -0.41,-0.15 0,0 -0.08,0 -0.19,0.02 0,0 -0.11,0.02 -0.28,0.18 0,0 -0.17,0.17 -0.17,0.47 0,0 0,0.84 0.64,1.5 0,0 0.63,0.67 1.61,0.67 0,0 1.1,0 1.82,-0.66 0,0 0.72,-0.65 0.72,-1.66 0,0 0,-0.36 -0.11,-0.69 0,0 -0.1,-0.32 -0.25,-0.57 0,0 -0.14,-0.26 -0.53,-0.66 0,0 -0.38,-0.4 -0.69,-0.69 0,0 -0.31,-0.29 -1.01,-0.9 l -1.27,-1.23 h 2.16 c 0,0 1.05,0 1.14,0.09 0,0 0.11,0.17 0.26,1.07 h 0.3 l -0.34,-2.09 z"
                 style="fill:#000000;fill-opacity:1;fill-rule:evenodd;stroke:none;stroke-width:1.13043"
                 id="path204" />
              <path
                 d="m 280.69,14.67 c 0,0 0,0.35 0.19,0.49 0,0 0.19,0.14 0.4,0.14 0,0 0.27,0 0.43,-0.18 0,0 0.17,-0.17 0.17,-0.41 0,0 0,-0.24 -0.17,-0.41 0,0 -0.16,-0.17 -0.43,-0.17 0,0 -0.14,0 -0.21,0.02 0,0 0.16,-0.55 0.64,-0.95 0,0 0.49,-0.4 1.13,-0.4 0,0 0.8,0 1.28,0.78 0,0 0.29,0.51 0.29,1.65 0,0 0,1 -0.22,1.51 0,0 -0.33,0.77 -1.02,0.77 0,0 -0.97,0 -1.55,-0.84 0,0 -0.07,-0.11 -0.15,-0.11 0,0 -0.11,0 -0.14,0.06 0,0 -0.03,0.07 -0.03,0.25 v 3.55 c 0,0 0,0.29 0.12,0.29 0,0 0.05,0 0.15,-0.04 0,0 0.75,-0.33 1.59,-0.34 0,0 0.86,0 1.63,0.36 0,0 0.06,0.03 0.1,0.03 0,0 0.11,0 0.12,-0.13 0,0 0,-0.05 -0.1,-0.19 0,0 -0.09,-0.14 -0.3,-0.32 0,0 -0.2,-0.17 -0.47,-0.34 0,0 -0.26,-0.17 -0.65,-0.29 0,0 -0.38,-0.11 -0.8,-0.11 0,0 -0.5,0 -1.02,0.16 v -2.34 c 0,0 0.62,0.61 1.52,0.61 0,0 0.96,0 1.63,-0.77 0,0 0.66,-0.78 0.66,-1.85 0,0 0,-1.13 -0.79,-1.91 0,0 -0.78,-0.77 -1.83,-0.77 0,0 -0.96,0 -1.57,0.68 0,0 -0.6,0.69 -0.6,1.52 z"
                 style="fill:#000000;fill-opacity:1;fill-rule:evenodd;stroke:none;stroke-width:1.13043"
                 id="path206" />
              <path
                 d="M 39.53,30.72 H 348.19"
                 style="fill:none;stroke:#000000;stroke-width:0.565217;stroke-linecap:butt;stroke-linejoin:miter;stroke-miterlimit:10;stroke-dasharray:none;stroke-opacity:0.098039"
                 id="path208" />
              <path
                 d="M 39.53,101.08 H 348.19"
                 style="fill:none;stroke:#000000;stroke-width:0.565217;stroke-linecap:butt;stroke-linejoin:miter;stroke-miterlimit:10;stroke-dasharray:none;stroke-opacity:0.098039"
                 id="path210" />
              <path
                 d="M 39.53,171.43 H 348.19"
                 style="fill:none;stroke:#000000;stroke-width:0.565217;stroke-linecap:butt;stroke-linejoin:miter;stroke-miterlimit:10;stroke-dasharray:none;stroke-opacity:0.098039"
                 id="path212" />
              <path
                 d="M 39.53,241.79 H 348.19"
                 style="fill:none;stroke:#000000;stroke-width:0.565217;stroke-linecap:butt;stroke-linejoin:miter;stroke-miterlimit:10;stroke-dasharray:none;stroke-opacity:0.098039"
                 id="path214" />
              <path
                 d="M 39.53,24.32 V 248.19"
                 style="fill:none;stroke:#000000;stroke-width:1.13043;stroke-linecap:butt;stroke-linejoin:miter;stroke-miterlimit:10;stroke-dasharray:none;stroke-opacity:1"
                 id="path216" />
              <path
                 d="m 39.53,30.72 h 3.7"
                 style="fill:none;stroke:#000000;stroke-width:1.13043;stroke-linecap:butt;stroke-linejoin:miter;stroke-miterlimit:10;stroke-dasharray:none;stroke-opacity:1"
                 id="path218" />
              <path
                 d="m 39.53,101.08 h 3.7"
                 style="fill:none;stroke:#000000;stroke-width:1.13043;stroke-linecap:butt;stroke-linejoin:miter;stroke-miterlimit:10;stroke-dasharray:none;stroke-opacity:1"
                 id="path220" />
              <path
                 d="m 39.53,171.43 h 3.7"
                 style="fill:none;stroke:#000000;stroke-width:1.13043;stroke-linecap:butt;stroke-linejoin:miter;stroke-miterlimit:10;stroke-dasharray:none;stroke-opacity:1"
                 id="path222" />
              <path
                 d="m 39.53,241.79 h 3.7"
                 style="fill:none;stroke:#000000;stroke-width:1.13043;stroke-linecap:butt;stroke-linejoin:miter;stroke-miterlimit:10;stroke-dasharray:none;stroke-opacity:1"
                 id="path224" />
              <path
                 d="m 18.94,28.52 c 0,0 0,0.35 0.2,0.52 0,0 0.21,0.17 0.47,0.17 0,0 0.27,0 0.47,-0.18 0,0 0.2,-0.17 0.2,-0.48 0,0 0,-0.34 -0.24,-0.53 0,0 -0.23,-0.18 -0.55,-0.14 0,0 0.28,-0.48 0.81,-0.69 0,0 0.53,-0.22 1.02,-0.22 0,0 0.52,0 0.94,0.45 0,0 0.42,0.44 0.42,1.53 0,0 0,0.93 -0.37,1.46 0,0 -0.35,0.53 -1.06,0.53 h -0.53 c 0,0 -0.18,0 -0.23,0.02 0,0 -0.06,0.02 -0.06,0.12 0,0 0,0.11 0.19,0.14 0,0 0.18,0 0.46,0.03 0,0 0.7,0.02 1.07,0.63 0,0 0.33,0.56 0.33,1.36 0,0 0,0.73 -0.35,1.04 0,0 -0.34,0.31 -0.79,0.31 0,0 -0.43,0 -0.89,-0.18 0,0 -0.46,-0.17 -0.71,-0.56 0,0 0.74,0 0.74,-0.61 0,0 0,-0.26 -0.17,-0.44 0,0 -0.16,-0.17 -0.44,-0.17 0,0 -0.26,0 -0.44,0.17 0,0 -0.17,0.17 -0.17,0.45 0,0 0,0.69 0.61,1.16 0,0 0.61,0.48 1.51,0.48 0,0 0.89,0 1.55,-0.47 0,0 0.66,-0.47 0.66,-1.19 0,0 0,-0.71 -0.47,-1.29 0,0 -0.47,-0.58 -1.21,-0.82 0,0 0.91,-0.18 1.46,-0.8 0,0 0.54,-0.61 0.54,-1.37 0,0 0,-0.94 -0.74,-1.63 0,0 -0.73,-0.68 -1.81,-0.68 0,0 -1,0 -1.71,0.54 0,0 -0.71,0.53 -0.71,1.34 z"
                 style="fill:#000000;fill-opacity:1;fill-rule:evenodd;stroke:none;stroke-width:1.13043"
                 id="path226" />
              <path
                 d="m 25.06,27.09 c 0,0 -0.18,0.2 -0.18,0.45 0,0 0,0.25 0.18,0.43 0,0 0.18,0.19 0.46,0.19 0,0 0.26,0 0.44,-0.18 0,0 0.18,-0.17 0.18,-0.45 0,0 0,-0.27 -0.19,-0.45 0,0 -0.19,-0.18 -0.43,-0.18 0,0 -0.28,0 -0.46,0.19 z"
                 style="fill:#000000;fill-opacity:1;fill-rule:evenodd;stroke:none;stroke-width:1.13043"
                 id="path228" />
              <path
                 d="m 28.18,30.69 c 0,0 0,1.88 0.96,3.04 0,0 0.96,1.16 2.2,1.16 0,0 0.72,0 1.12,-0.37 0,0 0.4,-0.36 0.4,-0.93 0,0 0,-0.31 -0.18,-0.44 0,0 -0.18,-0.14 -0.37,-0.14 0,0 -0.22,0 -0.39,0.15 0,0 -0.17,0.15 -0.17,0.41 0,0 0,0.54 0.67,0.54 0,0 -0.31,0.48 -1.06,0.48 0,0 -0.23,0 -0.46,-0.07 0,0 -0.24,-0.07 -0.54,-0.29 0,0 -0.3,-0.22 -0.54,-0.57 0,0 -0.23,-0.35 -0.4,-1.02 0,0 -0.16,-0.66 -0.16,-1.52 v -0.28 c 0,0 0.49,1.18 1.5,1.18 0,0 1.01,0 1.7,-0.77 0,0 0.7,-0.77 0.7,-1.9 0,0 0,-1.17 -0.73,-1.94 0,0 -0.72,-0.77 -1.74,-0.77 0,0 -0.46,0 -0.87,0.19 0,0 -0.41,0.19 -0.8,0.62 0,0 -0.38,0.43 -0.61,1.27 0,0 -0.23,0.83 -0.23,1.97 m 1.1,-1.08 c 0,0 0,-1.18 0.22,-1.74 0,0 0.03,-0.09 0.11,-0.22 0,0 0.08,-0.13 0.22,-0.3 0,0 0.14,-0.16 0.37,-0.27 0,0 0.22,-0.11 0.49,-0.11 0,0 0.8,0 1.19,0.78 0,0 0.2,0.43 0.2,1.61 0,0 0,1.2 -0.21,1.64 0,0 -0.37,0.74 -1.12,0.74 0,0 -0.51,0 -0.86,-0.34 0,0 -0.34,-0.35 -0.48,-0.81 0,0 -0.13,-0.46 -0.13,-0.98 z"
                 style="fill:#000000;fill-opacity:1;fill-rule:evenodd;stroke:none;stroke-width:1.13043"
                 id="path230" />
              <path
                 d="m 18.94,99.19 c 0,0 0,0.36 0.19,0.49 0,0 0.19,0.14 0.4,0.14 0,0 0.27,0 0.43,-0.17 0,0 0.16,-0.17 0.16,-0.41 0,0 0,-0.24 -0.16,-0.42 0,0 -0.16,-0.17 -0.43,-0.17 0,0 -0.14,0 -0.21,0.03 0,0 0.16,-0.55 0.64,-0.95 0,0 0.49,-0.4 1.12,-0.4 0,0 0.81,0 1.29,0.78 0,0 0.28,0.5 0.28,1.64 0,0 0,1.01 -0.21,1.51 0,0 -0.34,0.77 -1.02,0.77 0,0 -0.97,0 -1.55,-0.84 0,0 -0.07,-0.1 -0.15,-0.11 0,0 -0.12,0 -0.15,0.07 0,0 -0.02,0.07 -0.02,0.25 v 3.55 c 0,0 0,0.28 0.12,0.28 0,0 0.04,0 0.14,-0.03 0,0 0.76,-0.33 1.6,-0.34 0,0 0.86,0 1.63,0.35 0,0 0.06,0.04 0.09,0.04 0,0 0.12,0 0.13,-0.14 0,0 0,-0.05 -0.1,-0.19 0,0 -0.1,-0.13 -0.3,-0.31 0,0 -0.21,-0.18 -0.47,-0.35 0,0 -0.26,-0.17 -0.65,-0.28 0,0 -0.38,-0.12 -0.8,-0.12 0,0 -0.51,0 -1.02,0.16 v -2.33 c 0,0 0.62,0.61 1.52,0.61 0,0 0.96,0 1.62,-0.78 0,0 0.67,-0.77 0.67,-1.85 0,0 0,-1.13 -0.79,-1.9 0,0 -0.78,-0.77 -1.83,-0.77 0,0 -0.96,0 -1.57,0.68 0,0 -0.6,0.69 -0.6,1.51 z"
                 style="fill:#000000;fill-opacity:1;fill-rule:evenodd;stroke:none;stroke-width:1.13043"
                 id="path232" />
              <path
                 d="m 25.06,97.45 c 0,0 -0.18,0.2 -0.18,0.45 0,0 0,0.25 0.18,0.43 0,0 0.18,0.19 0.46,0.19 0,0 0.26,0 0.44,-0.18 0,0 0.18,-0.17 0.18,-0.45 0,0 0,-0.27 -0.19,-0.45 0,0 -0.19,-0.18 -0.43,-0.18 0,0 -0.28,0 -0.46,0.19 z"
                 style="fill:#000000;fill-opacity:1;fill-rule:evenodd;stroke:none;stroke-width:1.13043"
                 id="path234" />
              <path
                 d="m 28.18,99.07 c 0,0 0,1.34 1.73,2.21 0,0 -0.74,0.5 -0.88,0.65 0,0 -0.53,0.58 -0.53,1.31 0,0 0,0.84 0.64,1.42 0,0 0.63,0.59 1.54,0.59 0,0 0.86,0 1.51,-0.5 0,0 0.65,-0.5 0.65,-1.29 0,0 0,-1.11 -1.45,-1.86 0,0 0.96,-0.6 1.18,-0.85 0,0 0.59,-0.65 0.59,-1.48 0,0 0,-0.96 -0.74,-1.62 0,0 -0.74,-0.65 -1.76,-0.65 0,0 -0.99,0 -1.73,0.58 0,0 -0.75,0.58 -0.75,1.49 m 0.6,0 c 0,0 0,-0.74 0.56,-1.24 0,0 0.56,-0.5 1.34,-0.5 0,0 0.75,0 1.31,0.43 0,0 0.57,0.44 0.57,1.08 0,0 0,0.25 -0.09,0.47 0,0 -0.08,0.22 -0.25,0.39 0,0 -0.16,0.17 -0.27,0.25 0,0 -0.1,0.08 -0.29,0.21 l -1.48,0.93 c 0,0 -1.4,-0.77 -1.4,-2.02 m 0.25,4.64 c 0,0 0,-0.57 0.6,-0.97 l 1.49,-0.96 c 0,0 1.19,0.7 1.19,1.68 0,0 0,0.64 -0.49,1.06 0,0 -0.48,0.43 -1.16,0.43 0,0 -0.66,0 -1.14,-0.35 0,0 -0.49,-0.35 -0.49,-0.89 z"
                 style="fill:#000000;fill-opacity:1;fill-rule:evenodd;stroke:none;stroke-width:1.13043"
                 id="path236" />
              <path
                 d="m 18.94,169.43 c 0,0 0,1.34 1.72,2.21 0,0 -0.74,0.5 -0.88,0.65 0,0 -0.52,0.58 -0.52,1.31 0,0 0,0.84 0.63,1.42 0,0 0.64,0.59 1.54,0.59 0,0 0.86,0 1.51,-0.5 0,0 0.65,-0.5 0.65,-1.29 0,0 0,-1.11 -1.45,-1.86 0,0 0.96,-0.6 1.19,-0.85 0,0 0.58,-0.65 0.58,-1.48 0,0 0,-0.96 -0.74,-1.62 0,0 -0.73,-0.66 -1.75,-0.66 0,0 -1,0 -1.74,0.58 0,0 -0.74,0.58 -0.74,1.5 m 0.59,0 c 0,0 0,-0.75 0.56,-1.24 0,0 0.56,-0.5 1.34,-0.5 0,0 0.76,0 1.32,0.43 0,0 0.57,0.44 0.57,1.08 0,0 0,0.25 -0.09,0.47 0,0 -0.08,0.21 -0.25,0.38 0,0 -0.17,0.18 -0.27,0.26 0,0 -0.1,0.08 -0.3,0.21 l -1.47,0.93 c 0,0 -1.41,-0.78 -1.41,-2.02 m 0.25,4.64 c 0,0 0,-0.57 0.61,-0.97 l 1.49,-0.96 c 0,0 1.18,0.7 1.18,1.68 0,0 0,0.64 -0.48,1.06 0,0 -0.49,0.43 -1.16,0.43 0,0 -0.66,0 -1.15,-0.35 0,0 -0.49,-0.35 -0.49,-0.89 z"
                 style="fill:#000000;fill-opacity:1;fill-rule:evenodd;stroke:none;stroke-width:1.13043"
                 id="path238" />
              <path
                 d="m 25.06,167.81 c 0,0 -0.18,0.19 -0.18,0.45 0,0 0,0.25 0.18,0.43 0,0 0.18,0.19 0.46,0.19 0,0 0.26,0 0.44,-0.18 0,0 0.18,-0.17 0.18,-0.45 0,0 0,-0.27 -0.19,-0.46 0,0 -0.19,-0.17 -0.43,-0.17 0,0 -0.28,0 -0.46,0.19 z"
                 style="fill:#000000;fill-opacity:1;fill-rule:evenodd;stroke:none;stroke-width:1.13043"
                 id="path240" />
              <path
                 d="m 28.18,171.45 c 0,0 0,1.77 0.45,2.73 0,0 0.62,1.43 2.08,1.43 0,0 0.31,0 0.63,-0.09 0,0 0.33,-0.08 0.74,-0.41 0,0 0.42,-0.32 0.67,-0.85 0,0 0.48,-1.01 0.48,-2.81 0,0 0,-1.75 -0.45,-2.7 0,0 -0.65,-1.4 -2.08,-1.4 0,0 -0.54,0 -1.09,0.28 0,0 -0.54,0.28 -0.89,0.94 0,0 -0.54,0.99 -0.54,2.88 m 1,0.15 c 0,0 0,-1.81 0.13,-2.53 0,0 0.14,-0.78 0.54,-1.12 0,0 0.4,-0.33 0.85,-0.33 0,0 0.48,0 0.88,0.36 0,0 0.4,0.36 0.53,1.14 0,0 0.13,0.76 0.12,2.48 0,0 0,1.67 -0.11,2.34 0,0 -0.16,0.78 -0.58,1.09 0,0 -0.42,0.31 -0.84,0.31 0,0 -0.16,0 -0.33,-0.05 0,0 -0.16,-0.04 -0.4,-0.18 0,0 -0.24,-0.13 -0.43,-0.47 0,0 -0.18,-0.33 -0.27,-0.83 0,0 -0.09,-0.65 -0.09,-2.21 z"
                 style="fill:#000000;fill-opacity:1;fill-rule:evenodd;stroke:none;stroke-width:1.13043"
                 id="path242" />
              <path
                 d="m 13.95,244.82 v 0.38 c 0,0 1.44,0 2.18,0.76 0,0 0.21,0 0.24,-0.04 0,0 0.04,-0.05 0.04,-0.27 v -6.72 c 0,0 0,-0.36 0.17,-0.47 0,0 0.18,-0.11 0.95,-0.11 h 0.38 v -0.37 c 0,0 -0.43,0.03 -1.95,0.03 0,0 -1.52,0 -1.94,-0.03 v 0.37 h 0.38 c 0,0 0.76,0 0.94,0.1 0,0 0.18,0.11 0.18,0.48 v 6.21 c 0,0 -0.62,-0.32 -1.57,-0.32 z"
                 style="fill:#000000;fill-opacity:1;fill-rule:evenodd;stroke:none;stroke-width:1.13043"
                 id="path244" />
              <path
                 d="m 18.94,241.81 c 0,0 0,1.77 0.44,2.73 0,0 0.62,1.42 2.09,1.42 0,0 0.31,0 0.63,-0.08 0,0 0.33,-0.09 0.74,-0.41 0,0 0.41,-0.32 0.66,-0.85 0,0 0.48,-1.02 0.48,-2.81 0,0 0,-1.75 -0.44,-2.7 0,0 -0.65,-1.4 -2.09,-1.4 0,0 -0.54,0 -1.09,0.28 0,0 -0.54,0.27 -0.89,0.94 0,0 -0.53,0.99 -0.53,2.88 m 0.99,0.15 c 0,0 0,-1.81 0.13,-2.53 0,0 0.15,-0.78 0.54,-1.12 0,0 0.41,-0.33 0.85,-0.33 0,0 0.48,0 0.88,0.35 0,0 0.41,0.37 0.53,1.15 0,0 0.13,0.76 0.13,2.48 0,0 0,1.67 -0.12,2.34 0,0 -0.16,0.77 -0.58,1.08 0,0 -0.41,0.32 -0.84,0.32 0,0 -0.15,0 -0.32,-0.05 0,0 -0.17,-0.04 -0.41,-0.18 0,0 -0.24,-0.13 -0.43,-0.47 0,0 -0.18,-0.33 -0.27,-0.83 0,0 -0.09,-0.65 -0.09,-2.21 z"
                 style="fill:#000000;fill-opacity:1;fill-rule:evenodd;stroke:none;stroke-width:1.13043"
                 id="path246" />
              <path
                 d="m 25.06,238.17 c 0,0 -0.18,0.19 -0.18,0.45 0,0 0,0.25 0.18,0.43 0,0 0.18,0.19 0.46,0.19 0,0 0.26,0 0.44,-0.18 0,0 0.18,-0.17 0.18,-0.45 0,0 0,-0.28 -0.19,-0.46 0,0 -0.19,-0.17 -0.43,-0.17 0,0 -0.28,0 -0.46,0.19 z"
                 style="fill:#000000;fill-opacity:1;fill-rule:evenodd;stroke:none;stroke-width:1.13043"
                 id="path248" />
              <path
                 d="m 28.18,237.98 c 0,0 0,0.21 0.02,0.28 0,0 0.02,0.06 0.12,0.16 l 2.3,2.57 c 0,0 1.26,1.41 1.26,2.65 0,0 0,0.8 -0.42,1.38 0,0 -0.42,0.57 -1.19,0.57 0,0 -0.52,0 -0.97,-0.32 0,0 -0.44,-0.32 -0.65,-0.9 0,0 0.04,0.01 0.16,0.01 0,0 0.3,0 0.46,-0.18 0,0 0.17,-0.19 0.17,-0.44 0,0 0,-0.33 -0.21,-0.48 0,0 -0.2,-0.16 -0.41,-0.16 0,0 -0.08,0 -0.19,0.02 0,0 -0.11,0.02 -0.28,0.18 0,0 -0.17,0.17 -0.17,0.47 0,0 0,0.84 0.63,1.51 0,0 0.64,0.66 1.61,0.66 0,0 1.11,0 1.83,-0.65 0,0 0.72,-0.65 0.72,-1.67 0,0 0,-0.36 -0.11,-0.69 0,0 -0.1,-0.32 -0.25,-0.57 0,0 -0.14,-0.25 -0.53,-0.66 0,0 -0.38,-0.4 -0.69,-0.69 0,0 -0.32,-0.28 -1.01,-0.89 l -1.27,-1.24 h 2.16 c 0,0 1.05,0 1.13,0.1 0,0 0.12,0.17 0.27,1.06 h 0.3 l -0.34,-2.08 z"
                 style="fill:#000000;fill-opacity:1;fill-rule:evenodd;stroke:none;stroke-width:1.13043"
                 id="path250" />
              <path
                 d="m 48.26,225.28 4.62,3.17 4.63,2.9 4.62,2.42 4.62,2.04 4.62,1.69 4.62,1.31 4.63,0.95 4.62,0.58 4.62,0.2 4.62,-0.17 4.62,-0.52 4.63,-0.87 4.62,-1.2 4.62,-1.5 4.62,-1.79 4.62,-2.03 4.63,-2.3 4.62,-2.53 4.62,-2.74 4.62,-2.92 4.63,-3.09 4.62,-3.96 4.62,-3.38 4.62,-3.48 4.62,-3.61 4.63,-3.71 4.62,-3.79 4.62,-3.86 4.62,-3.92 4.62,-3.97 4.63,-4.02 4.62,-4.03 4.62,-4.08 4.62,-4.09 4.62,-4.12 4.63,-4.12 4.62,-4.12 4.62,-4.12 4.62,-4.1 4.63,-4.1 4.62,-4.09 4.62,-4.07 4.62,-4.04 4.62,-4.02 4.63,-3.99 4.62,-3.96 4.62,-3.93 4.62,-3.88 4.62,-3.85 4.63,-3.81 4.62,-3.78 4.62,-3.73 4.62,-3.68 4.62,-3.64 4.63,-3.59 4.62,-3.55 4.62,-3.49 4.62,-3.45 4.62,-3.4 4.63,-3.35 4.62,-3.3 4.62,-3.24 4.62,-3.2"
                 style="fill:none;stroke:#000000;stroke-width:1.13043;stroke-linecap:butt;stroke-linejoin:miter;stroke-miterlimit:10;stroke-dasharray:none;stroke-opacity:1"
                 id="path252" />
              <g
                 id="g254"
                 style="stroke-width:1.13043">
                <g
                   id="g256"
                   clip-path="url(#clipPath260)"
                   style="stroke-width:1.13043">
                  <path
                     d="m 257.57,210.49 h 80.33 v 30.24 h -80.33"
                     style="fill:#ffffff;fill-opacity:1;fill-rule:evenodd;stroke:none;stroke-width:1.13043"
                     id="path262" />
                </g>
              </g>
              <path
                 d="m 257.57,210.49 h 80.33 v 30.24 h -80.33 v -30.24"
                 style="fill:none;stroke:#000000;stroke-width:1.13043;stroke-linecap:butt;stroke-linejoin:miter;stroke-miterlimit:10;stroke-dasharray:none;stroke-opacity:1"
                 id="path264" />
              <path
                 d="m 261,225.61 h 20.58"
                 style="fill:none;stroke:#000000;stroke-width:1.13043;stroke-linecap:butt;stroke-linejoin:miter;stroke-miterlimit:10;stroke-dasharray:none;stroke-opacity:1"
                 id="path266" />
              <path
                 d="m 293.16,231.13 c 0,0 0,-0.11 -0.02,-0.2 l -0.33,-2.09 c 0,0 -0.01,-0.16 -0.05,-0.21 0,0 -0.03,-0.06 -0.12,-0.06 0,0 -0.15,0 -0.15,0.15 0,0 0,0.09 0.04,0.23 0,0 0.1,0.66 0.1,0.96 0,0 0,0.2 -0.05,0.34 0,0 -0.03,0.16 -0.09,0.26 0,0 -0.05,0.11 -0.17,0.18 0,0 -0.13,0.07 -0.24,0.11 0,0 -0.12,0.04 -0.33,0.06 0,0 -0.21,0.02 -0.39,0.03 0,0 -0.19,0 -0.48,0 0,0 -0.65,0 -0.76,-0.02 0,0 -0.11,-0.03 -0.17,-0.12 0,0 -0.05,-0.08 -0.11,-0.33 l -1.59,-6.36 -0.05,-0.25 c 0,0 0,-0.14 0.09,-0.19 0,0 0.08,-0.05 0.35,-0.08 0,0 0.39,-0.03 0.77,-0.03 0,0 0.01,0 0.04,0 0,0 0.13,0 0.18,0 0,0 0.05,0 0.1,-0.01 0,0 0.06,-0.02 0.07,-0.04 0,0 0.02,-0.03 0.02,-0.07 0,0 0,-0.12 -0.05,-0.17 0,0 -0.05,-0.06 -0.1,-0.07 0,0 -0.04,0 -0.12,0 0,0 -0.16,0 -0.51,0.01 0,0 -0.35,0.01 -0.53,0.01 l -1,0.01 -1.01,-0.01 c 0,0 -0.16,0 -0.5,-0.01 0,0 -0.33,-0.01 -0.49,-0.01 0,0 -0.2,0 -0.2,0.14 0,0 0,0.17 0.07,0.19 0,0 0.08,0.03 0.43,0.03 0,0 0.49,0 0.75,0.03 0,0 0.26,0.02 0.4,0.1 0,0 0.15,0.08 0.19,0.17 0,0 0.04,0.08 0.09,0.28 l 1.61,6.4 c 0,0 0.05,0.14 0.05,0.26 0,0 0,0.05 -0.02,0.08 0,0 -0.01,0.02 -0.09,0.04 0,0 -0.08,0.02 -0.23,0.02 h -0.47 c 0,0 -0.48,0 -0.78,-0.02 0,0 -0.29,-0.02 -0.57,-0.11 0,0 -0.28,-0.08 -0.44,-0.21 0,0 -0.16,-0.12 -0.34,-0.37 0,0 -0.17,-0.25 -0.3,-0.56 0,0 -0.13,-0.3 -0.3,-0.8 0,0 -0.06,-0.16 -0.09,-0.21 0,0 -0.03,-0.04 -0.12,-0.04 0,0 -0.05,0 -0.1,0.03 0,0 -0.04,0.04 -0.04,0.1 0,0 0.06,0.19 0.07,0.21 l 0.72,2.12 c 0,0 0.06,0.17 0.11,0.2 0,0 0.06,0.03 0.27,0.03 h 6.66 c 0,0 0.1,0 0.14,0 0,0 0.03,0 0.09,-0.01 0,0 0.06,-0.01 0.08,-0.04 0,0 0.01,-0.03 0.01,-0.08 z"
                 style="fill:#000000;fill-opacity:1;fill-rule:evenodd;stroke:none;stroke-width:1.13043"
                 id="path268" />
              <path
                 d="m 294.37,221.69 c 0,0 0,0.71 0.84,1.09 0,0 0.51,0.24 1.55,0.3 v 0.31 c 0,0 0,0.52 -0.28,0.8 0,0 -0.27,0.27 -0.61,0.27 0,0 -0.62,0 -0.91,-0.38 0,0 0.25,-0.01 0.34,-0.14 0,0 0.09,-0.12 0.09,-0.25 0,0 0,-0.16 -0.11,-0.27 0,0 -0.1,-0.11 -0.28,-0.11 0,0 -0.17,0 -0.28,0.1 0,0 -0.11,0.11 -0.11,0.29 0,0 0,0.41 0.37,0.68 0,0 0.38,0.27 0.9,0.27 0,0 0.69,0 1.15,-0.46 0,0 0.15,-0.14 0.21,-0.33 0,0 0.08,-0.18 0.09,-0.31 0,0 0,-0.11 0,-0.35 v -1.68 c 0,0 0,-0.05 0.02,-0.13 0,0 0.02,-0.08 0.09,-0.19 0,0 0.08,-0.1 0.21,-0.1 0,0 0.3,0 0.3,0.54 v 0.47 h 0.21 v -0.47 c 0,0 0,-0.45 -0.24,-0.63 0,0 -0.23,-0.17 -0.45,-0.17 0,0 -0.28,0 -0.45,0.21 0,0 -0.18,0.2 -0.21,0.48 0,0 -0.12,-0.32 -0.41,-0.53 0,0 -0.29,-0.2 -0.68,-0.2 0,0 -0.31,0 -0.59,0.07 0,0 -0.29,0.08 -0.53,0.29 0,0 -0.23,0.21 -0.23,0.53 m 0.65,0.01 c 0,0 0,-0.31 0.22,-0.51 0,0 0.22,-0.21 0.53,-0.21 0,0 0.36,0 0.67,0.27 0,0 0.32,0.28 0.32,0.82 v 0.84 c 0,0 -0.93,-0.04 -1.34,-0.41 0,0 -0.4,-0.37 -0.4,-0.8 z"
                 style="fill:#000000;fill-opacity:1;fill-rule:evenodd;stroke:none;stroke-width:1.13043"
                 id="path270" />
              <path
                 d="m 298.34,224.25 v 0.26 c 0,0 0.37,-0.03 0.81,-0.03 0,0 0.16,0 0.91,0.03 v -0.26 c 0,0 -0.47,0 -0.47,-0.22 0,0 0,-0.03 0.04,-0.14 l 0.95,-2.34 0.85,2.14 c 0,0 0.05,0.14 0.05,0.2 0,0 0,0.14 -0.1,0.24 0,0 -0.09,0.11 -0.3,0.12 v 0.26 c 0,0 0.43,-0.03 0.73,-0.03 0,0 0.35,0 0.63,0.03 v -0.26 c 0,0 -0.25,0 -0.43,-0.12 0,0 -0.17,-0.11 -0.23,-0.21 0,0 -0.06,-0.09 -0.11,-0.23 l -1.1,-2.73 c 0,0 -0.07,-0.16 -0.18,-0.16 0,0 -0.07,0 -0.1,0.03 0,0 -0.03,0.03 -0.07,0.13 l -1.21,2.98 c 0,0 -0.08,0.2 -0.19,0.25 0,0 -0.11,0.06 -0.48,0.06 z"
                 style="fill:#000000;fill-opacity:1;fill-rule:evenodd;stroke:none;stroke-width:1.13043"
                 id="path272" />
              <path
                 d="m 302.64,220.23 c 0,0 0,0.27 0.21,0.5 0,0 0.2,0.23 0.57,0.34 0,0 -0.37,0.23 -0.37,0.74 0,0 0,0.4 0.25,0.7 0,0 -0.39,0.33 -0.39,0.86 0,0 0,0.5 0.39,0.86 0,0 0.4,0.37 0.97,0.37 0,0 0.51,0 0.89,-0.3 0,0 0.4,0.39 0.89,0.39 0,0 0.22,0 0.32,-0.13 0,0 0.11,-0.14 0.11,-0.28 0,0 0,-0.13 -0.08,-0.19 0,0 -0.08,-0.06 -0.16,-0.06 0,0 -0.11,0 -0.18,0.07 0,0 -0.07,0.07 -0.07,0.17 0,0 0,0.18 0.13,0.23 0,0 -0.02,0.01 -0.08,0.01 0,0 -0.41,0 -0.76,-0.33 0,0 0.35,-0.32 0.35,-0.81 0,0 0,-0.5 -0.39,-0.86 0,0 -0.4,-0.37 -0.97,-0.37 0,0 -0.47,0 -0.83,0.26 0,0 -0.14,-0.17 -0.14,-0.4 0,0 0,-0.2 0.12,-0.37 0,0 0.13,-0.16 0.32,-0.19 0,0 0.06,0 0.63,0 0,0 0.34,0 0.52,-0.01 0,0 0.19,-0.01 0.45,-0.07 0,0 0.26,-0.05 0.47,-0.16 0,0 0.55,-0.3 0.55,-0.96 0,0 0,-0.48 -0.55,-0.78 0,0 -0.55,-0.3 -1.31,-0.3 0,0 -0.77,0 -1.32,0.31 0,0 -0.54,0.3 -0.54,0.76 m 0.44,0 c 0,0 0,-0.35 0.4,-0.61 0,0 0.41,-0.27 1.03,-0.27 0,0 0.6,0 1,0.27 0,0 0.41,0.25 0.41,0.61 0,0 0,0.25 -0.14,0.41 0,0 -0.14,0.16 -0.44,0.22 0,0 -0.29,0.06 -0.49,0.08 0,0 -0.21,0.01 -0.59,0.01 h -0.49 c 0,0 -0.29,-0.02 -0.49,-0.23 0,0 -0.2,-0.21 -0.2,-0.49 m 0.46,3.14 c 0,0 0,-1.04 0.73,-1.04 0,0 0.37,0 0.6,0.34 0,0 0.13,0.22 0.13,0.7 0,0 0,1.04 -0.73,1.04 0,0 -0.37,0 -0.6,-0.34 0,0 -0.13,-0.22 -0.13,-0.7 z"
                 style="fill:#000000;fill-opacity:1;fill-rule:evenodd;stroke:none;stroke-width:1.13043"
                 id="path274" />
              <path
                 d="m 308.08,226.14 c 0,0 0,2.03 0.76,3.66 0,0 0.32,0.69 0.77,1.26 0,0 0.45,0.58 0.75,0.83 0,0 0.3,0.25 0.38,0.25 0,0 0.12,0 0.12,-0.12 0,0 0,-0.06 -0.16,-0.2 0,0 -1.93,-1.97 -1.92,-5.68 0,0 0,-3.71 1.88,-5.61 0,0 0.2,-0.2 0.2,-0.27 0,0 0,-0.11 -0.12,-0.11 0,0 -0.08,0 -0.37,0.24 0,0 -0.29,0.24 -0.73,0.79 0,0 -0.45,0.55 -0.77,1.22 0,0 -0.79,1.64 -0.79,3.74 z"
                 style="fill:#000000;fill-opacity:1;fill-rule:evenodd;stroke:none;stroke-width:1.13043"
                 id="path276" />
              <path
                 d="m 319.78,227.61 c 0,0 0,-0.55 -0.28,-1.6 0,0 -0.11,-0.46 -0.26,-0.87 0,0 -0.15,-0.41 -0.37,-0.81 0,0 -0.21,-0.4 -0.47,-0.69 0,0 -0.25,-0.28 -0.57,-0.45 0,0 -0.33,-0.18 -0.7,-0.18 0,0 -0.57,0 -0.91,0.34 0,0 -0.33,0.35 -0.44,0.94 0,0 -0.78,-1.28 -1.83,-1.28 0,0 -0.65,0 -0.96,0.46 0,0 -0.3,0.47 -0.3,1.26 0,0 0,0.66 0.18,1.34 0,0 0.33,1.3 0.98,2.21 0,0 0.09,0.11 0.22,0.11 0,0 0.07,0 0.11,-0.03 0,0 0.1,-0.06 0.1,-0.17 0,0 0,-0.07 -0.06,-0.15 0,0 -0.41,-0.57 -0.68,-1.05 0,0 -0.26,-0.49 -0.39,-0.98 0,0 -0.09,-0.42 -0.09,-0.78 0,0 0,-0.6 0.26,-0.98 0,0 0.26,-0.37 0.78,-0.37 0,0 0.48,0 0.9,0.3 0,0 0.42,0.3 0.73,0.81 0,0 0.02,0.56 0.16,1.08 0,0 0.12,0.57 0.41,0.57 0,0 0.23,0 0.23,-0.32 0,0 0,-0.1 -0.05,-0.31 0,0 -0.13,-0.56 -0.36,-1.06 0,0 0.08,-0.48 0.38,-0.78 0,0 0.31,-0.29 0.79,-0.29 0,0 0.45,0 0.85,0.33 0,0 0.41,0.32 0.66,0.8 0,0 0.27,0.49 0.41,1.06 0,0 0.05,0.2 0.05,0.44 0,0 0,0.66 -0.46,1.06 0,0 -0.13,0.13 -0.13,0.3 0,0 0,0.2 0.17,0.38 0,0 0.19,0.19 0.42,0.19 0,0 0.17,0 0.28,-0.1 0,0 0.24,-0.21 0.24,-0.73 z"
                 style="fill:#000000;fill-opacity:1;fill-rule:evenodd;stroke:none;stroke-width:1.13043"
                 id="path278" />
              <path
                 d="m 320.99,222.38 c 0,0 0,1.24 0.31,1.91 0,0 0.44,1 1.46,1 0,0 0.22,0 0.45,-0.06 0,0 0.22,-0.06 0.51,-0.29 0,0 0.29,-0.22 0.47,-0.59 0,0 0.33,-0.71 0.33,-1.97 0,0 0,-1.22 -0.31,-1.89 0,0 -0.45,-0.98 -1.46,-0.98 0,0 -0.37,0 -0.76,0.2 0,0 -0.38,0.19 -0.62,0.65 0,0 -0.38,0.69 -0.38,2.02 m 0.7,0.1 c 0,0 0,-1.26 0.09,-1.77 0,0 0.1,-0.54 0.38,-0.78 0,0 0.28,-0.23 0.59,-0.23 0,0 0.34,0 0.62,0.25 0,0 0.28,0.25 0.37,0.8 0,0 0.09,0.53 0.09,1.73 0,0 0,1.17 -0.08,1.64 0,0 -0.11,0.55 -0.41,0.76 0,0 -0.29,0.22 -0.59,0.22 0,0 -0.11,0 -0.23,-0.03 0,0 -0.11,-0.03 -0.28,-0.13 0,0 -0.17,-0.09 -0.3,-0.32 0,0 -0.12,-0.24 -0.19,-0.59 0,0 -0.06,-0.46 -0.06,-1.55 z"
                 style="fill:#000000;fill-opacity:1;fill-rule:evenodd;stroke:none;stroke-width:1.13043"
                 id="path280" />
              <path
                 d="m 326.43,220.26 c 0,0 0,0.06 0.15,0.21 0,0 1.94,1.97 1.94,5.67 0,0 0,3.72 -1.86,5.6 0,0 -0.23,0.22 -0.23,0.28 0,0 0,0.12 0.12,0.12 0,0 0.08,0 0.37,-0.24 0,0 0.29,-0.24 0.73,-0.79 0,0 0.45,-0.55 0.77,-1.22 0,0 0.79,-1.64 0.79,-3.75 0,0 0,-2.02 -0.75,-3.66 0,0 -0.32,-0.68 -0.77,-1.26 0,0 -0.46,-0.57 -0.75,-0.82 0,0 -0.3,-0.25 -0.39,-0.25 0,0 -0.12,0 -0.12,0.11 z"
                 style="fill:#000000;fill-opacity:1;fill-rule:evenodd;stroke:none;stroke-width:1.13043"
                 id="path282" />
            </g>
          </g>
        </g>
      </g>
    </g>
    <text
       transform="matrix(0.31207265,0,0,0.31207265,0.35033073,63.264248)"
       style="font-variant:normal;font-size:9.9626px;font-family:'Nimbus Roman';-inkscape-font-specification:NimbusRomNo9L-Regu;writing-mode:lr-tb;fill:#000000;fill-opacity:1;fill-rule:nonzero;stroke:none;stroke-width:1.13043"
       id="text288"><tspan
         x="0 5.5392056 8.3088083 13.290109 18.271408 21.588955 28.632513 33.613811 39.571445 46.216503 51.1978 55.621197 58.3908 62.814194 66.131737 70.355881 75.187744 79.611137 82.92868 87.352074 92.333374 96.756775 104.34827 108.77167 113.75297 118.73427 121.50387 126.48517 133.52873 136.29832 141.27963 144.59718 149.57848 154.55978 158.98317 164.12387 166.89348"
         y="0"
         sodipodi:role="line"
         id="tspan286"
         style="stroke-width:1.13043">Figure8.Cycle-averagedenginetorque,in</tspan></text>
    <text
       transform="matrix(0.31207265,0,0,0.31207265,54.803263,63.264248)"
       style="font-variant:normal;font-weight:normal;font-size:9.9626px;font-family:CMR10;-inkscape-font-specification:CMR10;writing-mode:lr-tb;fill:#000000;fill-opacity:1;fill-rule:nonzero;stroke:none;stroke-width:1.13043"
       id="text292"><tspan
         x="0 7.4719501"
         y="0"
         sodipodi:role="line"
         id="tspan290"
         style="font-style:normal;font-variant:normal;font-weight:normal;font-stretch:normal;font-family:'SBL BibLit';-inkscape-font-specification:'SBL BibLit';stroke-width:1.13043">Nm</tspan></text>
    <text
       transform="matrix(0.31207265,0,0,0.31207265,59.725897,63.264248)"
       style="font-variant:normal;font-size:9.9626px;font-family:'Nimbus Roman';-inkscape-font-specification:NimbusRomNo9L-Regu;writing-mode:lr-tb;fill:#000000;fill-opacity:1;fill-rule:nonzero;stroke:none;stroke-width:1.13043"
       id="text300"><tspan
         x="0"
         y="0"
         id="tspan294"
         style="stroke-width:1.13043">,</tspan><tspan
         x="-190.26199 -185.43015 -181.00674 -177.68919 -173.81375 -168.83244 -161.2011 -158.43149 -153.4502 -150.68059 -147.91098 -145.14139 -140.71799 -134.19249 -129.76909 -124.7878 -119.8065 -117.03689 -112.05559 -103.86633 -97.221275 -91.682076 -79.06942 -75.751877 -70.770576 -63.697128 -59.273735 -56.504131 -49.97863 -44.99733 -36.250168 -32.374714 -29.605112 -21.85421 -16.87291 -14.103307 -9.6799126 -6.9103098 -2.4869151"
         y="11.955"
         sodipodi:role="line"
         id="tspan296"
         style="stroke-width:1.13043">versusinitialengineRPMforall64simulated</tspan><tspan
         x="-180.72501 -176.30161 -171.8782 -168.00276 -163.57936 -157.21326 -150.02026 -147.25067 -144.48106"
         y="23.910999"
         sodipodi:role="line"
         id="tspan298"
         style="stroke-width:1.13043">caseswith</tspan></text>
    <text
       xml:space="preserve"
       style="font-style:normal;font-variant:normal;font-weight:normal;font-stretch:normal;font-size:13.3333px;font-family:'SBL BibLit';-inkscape-font-specification:'SBL BibLit';fill:#000000;fill-opacity:1;stroke-width:0.657966;stroke-linecap:round;stroke-linejoin:round;stroke-miterlimit:10"
       x="53.674736"
       y="262.73975"
       id="text4246"
       transform="matrix(0.23405449,0,0,0.23405449,4.5071352,9.2308004)"><tspan
         sodipodi:role="line"
         id="tspan4244"
         x="53.674736"
         y="262.73975"
         style="fill:#000000;fill-opacity:1;stroke:none;stroke-width:0.657966">112.5 RPM ⩽ω<tspan
   style="font-size:65%;baseline-shift:sub;stroke-width:0.657966"
   id="tspan4248">0</tspan>⩽7200 RPM.</tspan></text>
  </g>
</svg>
