<?xml version="1.0" encoding="UTF-8" standalone="no"?>
<svg
   xmlns:dc="http://purl.org/dc/elements/1.1/"
   xmlns:cc="http://creativecommons.org/ns#"
   xmlns:rdf="http://www.w3.org/1999/02/22-rdf-syntax-ns#"
   xmlns:svg="http://www.w3.org/2000/svg"
   xmlns="http://www.w3.org/2000/svg"
   xmlns:sodipodi="http://sodipodi.sourceforge.net/DTD/sodipodi-0.dtd"
   xmlns:inkscape="http://www.inkscape.org/namespaces/inkscape"
   sodipodi:docname="p_FBD.svg"
   inkscape:version="1.0.1 (3bc2e813f5, 2020-09-07)"
   id="svg1669"
   version="1.1"
   viewBox="0 0 140 105"
   height="105mm"
   width="140mm">
  <defs
     id="defs1663">
    <clipPath
       clipPathUnits="userSpaceOnUse"
       id="clipPath18">
      <path
         d="M 0,648.029 H 1154.321 V 0 H 0 Z"
         id="path16" />
    </clipPath>
    <clipPath
       clipPathUnits="userSpaceOnUse"
       id="clipPath162">
      <path
         d="M 0,648.029 H 1154.321 V 0 H 0 Z"
         id="path160" />
    </clipPath>
    <clipPath
       clipPathUnits="userSpaceOnUse"
       id="clipPath202">
      <path
         d="M 0,648.029 H 1154.321 V 0 H 0 Z"
         id="path200" />
    </clipPath>
  </defs>
  <sodipodi:namedview
     inkscape:pagecheckerboard="true"
     showgrid="false"
     inkscape:document-rotation="0"
     inkscape:current-layer="g2330"
     inkscape:document-units="mm"
     inkscape:cy="202.71373"
     inkscape:cx="216.74347"
     inkscape:zoom="1.1794847"
     inkscape:pageshadow="2"
     inkscape:pageopacity="0"
     borderopacity="1.0"
     bordercolor="#666666"
     pagecolor="#ffffff"
     id="base" />
  <metadata
     id="metadata1666">
    <rdf:RDF>
      <cc:Work
         rdf:about="">
        <dc:format>image/svg+xml</dc:format>
        <dc:type
           rdf:resource="http://purl.org/dc/dcmitype/StillImage" />
        <dc:title></dc:title>
      </cc:Work>
    </rdf:RDF>
  </metadata>
  <g
     id="layer1"
     inkscape:groupmode="layer"
     inkscape:label="Layer 1">
    <g
       transform="matrix(0.35277777,0,0,-0.35277777,23.307907,153.11606)"
       id="g2330">
      <g
         id="g12">
        <g
           clip-path="url(#clipPath18)"
           id="g14">
          <g
             transform="translate(252.9131,319.7921)"
             id="g20">
            <path
               id="path22"
               style="fill:#cccccc;fill-opacity:1;fill-rule:nonzero;stroke:none"
               d="m 0,0 h -183.12 c -1.105,0 -2,0.896 -2,2 v 7.535 c 0,1.105 0.895,2 2,2 H 0 c 1.104,0 2,-0.895 2,-2 V 2 C 2,0.896 1.104,0 0,0" />
          </g>
          <g
             transform="translate(252.9131,319.7921)"
             id="g24">
            <path
               id="path26"
               style="fill:none;stroke:#000000;stroke-width:0.709;stroke-linecap:butt;stroke-linejoin:miter;stroke-miterlimit:10;stroke-dasharray:none;stroke-opacity:1"
               d="m 0,0 h -183.12 c -1.105,0 -2,0.896 -2,2 v 7.535 c 0,1.105 0.895,2 2,2 H 0 c 1.104,0 2,-0.895 2,-2 V 2 C 2,0.896 1.104,0 0,0 Z" />
          </g>
          <g
             transform="translate(74.2012,172.4034)"
             id="g28">
            <path
               id="path30"
               style="fill:#cccccc;fill-opacity:1;fill-rule:nonzero;stroke:none"
               d="m 0,0 c 5.126,0 8.256,11.667 7.689,16.807 -1.281,11.635 -3.844,47.835 16.663,50.421 0,0 -12.179,1.13 -16.663,0 C -7.69,63.349 -5.437,0 0,0" />
          </g>
          <g
             transform="translate(74.2012,172.4034)"
             id="g32">
            <path
               id="path34"
               style="fill:none;stroke:#000000;stroke-width:0.709;stroke-linecap:butt;stroke-linejoin:miter;stroke-miterlimit:10;stroke-dasharray:none;stroke-opacity:1"
               d="m 0,0 c 5.126,0 8.256,11.667 7.689,16.807 -1.281,11.635 -3.844,47.835 16.663,50.421 0,0 -12.179,1.13 -16.663,0 C -7.69,63.349 -5.437,0 0,0 Z" />
          </g>
          <g
             transform="translate(249.5322,172.4034)"
             id="g36">
            <path
               id="path38"
               style="fill:#cccccc;fill-opacity:1;fill-rule:nonzero;stroke:none"
               d="m 0,0 c -5.126,0 -8.256,11.667 -7.689,16.807 1.281,11.635 3.844,47.835 -16.663,50.421 0,0 12.179,1.13 16.663,0 C 7.69,63.349 5.437,0 0,0" />
          </g>
          <g
             transform="translate(249.5322,172.4034)"
             id="g40">
            <path
               id="path42"
               style="fill:none;stroke:#000000;stroke-width:0.709;stroke-linecap:butt;stroke-linejoin:miter;stroke-miterlimit:10;stroke-dasharray:none;stroke-opacity:1"
               d="m 0,0 c -5.126,0 -8.256,11.667 -7.689,16.807 1.281,11.635 3.844,47.835 -16.663,50.421 0,0 12.179,1.13 16.663,0 C 7.69,63.349 5.437,0 0,0 Z" />
          </g>
          <g
             transform="translate(261.8848,331.3272)"
             id="g44">
            <path
               id="path46"
               style="fill:#e6e6e6;fill-opacity:1;fill-rule:nonzero;stroke:none"
               d="m 0,0 h -201.063 c -1.105,0 -2,0.896 -2,2 v 6.253 c 0,1.104 0.895,2 2,2 H 0 c 1.104,0 2,-0.896 2,-2 V 2 C 2,0.896 1.104,0 0,0" />
          </g>
          <g
             transform="translate(261.8848,331.3272)"
             id="g48">
            <path
               id="path50"
               style="fill:none;stroke:#000000;stroke-width:0.709;stroke-linecap:butt;stroke-linejoin:miter;stroke-miterlimit:10;stroke-dasharray:none;stroke-opacity:1"
               d="m 0,0 h -201.063 c -1.105,0 -2,0.896 -2,2 v 6.253 c 0,1.104 0.895,2 2,2 H 0 c 1.104,0 2,-0.896 2,-2 V 2 C 2,0.896 1.104,0 0,0 Z" />
          </g>
          <g
             transform="translate(253.6006,341.5802)"
             id="g52">
            <path
               id="path54"
               style="fill:#cccccc;fill-opacity:1;fill-rule:nonzero;stroke:none"
               d="m 0,0 h -184.495 c -0.725,0 -1.313,0.588 -1.313,1.312 v 2.502 c 0,0.725 0.588,1.313 1.313,1.313 H 0 c 0.725,0 1.312,-0.588 1.312,-1.313 V 1.312 C 1.312,0.588 0.725,0 0,0" />
          </g>
          <g
             transform="translate(253.6006,341.5802)"
             id="g56">
            <path
               id="path58"
               style="fill:none;stroke:#000000;stroke-width:0.709;stroke-linecap:butt;stroke-linejoin:miter;stroke-miterlimit:10;stroke-dasharray:none;stroke-opacity:1"
               d="m 0,0 h -184.495 c -0.725,0 -1.313,0.588 -1.313,1.312 v 2.502 c 0,0.725 0.588,1.313 1.313,1.313 H 0 c 0.725,0 1.312,-0.588 1.312,-1.313 V 1.312 C 1.312,0.588 0.725,0 0,0 Z" />
          </g>
          <g
             transform="translate(262.1758,346.7071)"
             id="g60">
            <path
               id="path62"
               style="fill:#e6e6e6;fill-opacity:1;fill-rule:nonzero;stroke:none"
               d="m 0,0 h -201.646 c -0.944,0 -1.708,0.765 -1.708,1.708 v 6.837 c 0,0.943 0.764,1.708 1.708,1.708 H 0 c 0.944,0 1.709,-0.765 1.709,-1.708 V 1.708 C 1.709,0.765 0.944,0 0,0" />
          </g>
          <g
             transform="translate(262.1758,346.7071)"
             id="g64">
            <path
               id="path66"
               style="fill:none;stroke:#000000;stroke-width:0.709;stroke-linecap:butt;stroke-linejoin:miter;stroke-miterlimit:10;stroke-dasharray:none;stroke-opacity:1"
               d="m 0,0 h -201.646 c -0.944,0 -1.708,0.765 -1.708,1.708 v 6.837 c 0,0.943 0.764,1.708 1.708,1.708 H 0 c 0.944,0 1.709,-0.765 1.709,-1.708 V 1.708 C 1.709,0.765 0.944,0 0,0 Z" />
          </g>
          <g
             transform="translate(253.2051,356.9601)"
             id="g68">
            <path
               id="path70"
               style="fill:#cccccc;fill-opacity:1;fill-rule:nonzero;stroke:none"
               d="m 0,0 h -183.704 c -0.943,0 -1.708,0.765 -1.708,1.709 v 1.71 c 0,0.943 0.765,1.708 1.708,1.708 H 0 c 0.943,0 1.708,-0.765 1.708,-1.708 V 1.709 C 1.708,0.765 0.943,0 0,0" />
          </g>
          <g
             transform="translate(253.2051,356.9601)"
             id="g72">
            <path
               id="path74"
               style="fill:none;stroke:#000000;stroke-width:0.709;stroke-linecap:butt;stroke-linejoin:miter;stroke-miterlimit:10;stroke-dasharray:none;stroke-opacity:1"
               d="m 0,0 h -183.704 c -0.943,0 -1.708,0.765 -1.708,1.709 v 1.71 c 0,0.943 0.765,1.708 1.708,1.708 H 0 c 0.943,0 1.708,-0.765 1.708,-1.708 V 1.709 C 1.708,0.765 0.943,0 0,0 Z" />
          </g>
          <g
             transform="translate(262.1973,362.087)"
             id="g76">
            <path
               id="path78"
               style="fill:#e6e6e6;fill-opacity:1;fill-rule:nonzero;stroke:none"
               d="m 0,0 h -201.688 c -0.932,0 -1.688,0.755 -1.688,1.687 v 5.597 c 0,0.932 0.756,1.688 1.688,1.688 L 0,8.972 c 0.932,0 1.687,-0.756 1.687,-1.688 V 1.687 C 1.687,0.755 0.932,0 0,0" />
          </g>
          <g
             transform="translate(262.1973,362.087)"
             id="g80">
            <path
               id="path82"
               style="fill:none;stroke:#000000;stroke-width:0.709;stroke-linecap:butt;stroke-linejoin:miter;stroke-miterlimit:10;stroke-dasharray:none;stroke-opacity:1"
               d="m 0,0 h -201.688 c -0.932,0 -1.688,0.755 -1.688,1.687 v 5.597 c 0,0.932 0.756,1.688 1.688,1.688 L 0,8.972 c 0.932,0 1.687,-0.756 1.687,-1.688 V 1.687 C 1.687,0.755 0.932,0 0,0 Z" />
          </g>
          <g
             transform="translate(256.1943,374.9034)"
             id="g84">
            <path
               id="path86"
               style="fill:#e6e6e6;fill-opacity:1;fill-rule:nonzero;stroke:none"
               d="m 0,0 h -190.965 c -2.563,0 -3.845,-3.845 -3.845,-3.845 H 5.127 C 5.127,-3.845 3.846,0 0,0" />
          </g>
          <g
             transform="translate(256.1943,374.9034)"
             id="g88">
            <path
               id="path90"
               style="fill:none;stroke:#000000;stroke-width:0.709;stroke-linecap:butt;stroke-linejoin:miter;stroke-miterlimit:10;stroke-dasharray:none;stroke-opacity:1"
               d="m 0,0 h -190.965 c -2.563,0 -3.845,-3.845 -3.845,-3.845 H 5.127 C 5.127,-3.845 3.846,0 0,0 Z" />
          </g>
          <g
             transform="translate(163.915,253.1466)"
             id="g92">
            <path
               id="path94"
               style="fill:#e6e6e6;fill-opacity:1;fill-rule:nonzero;stroke:none"
               d="M 0,0 C -14.583,0 -28.195,12.333 -28.195,26.916 -28.195,41.5 -14.583,55.111 0,55.111 14.584,55.111 29.479,41.5 29.479,26.916 29.479,12.333 14.584,0 0,0 m 94.843,67.287 h -194.81 c -2.477,0 -4.486,-2.026 -4.486,-4.525 V -75.572 c 0,-2.499 2.009,-4.525 4.486,-4.525 l 10.253,-0.646 c 0,0 -14.099,72.398 24.352,67.227 H 65.365 c 32.041,1.293 20.506,-67.227 20.506,-67.227 l 8.972,0.646 c 2.477,0 4.486,2.026 4.486,4.525 V 62.762 c 0,2.499 -2.009,4.525 -4.486,4.525" />
          </g>
          <g
             transform="translate(163.915,253.1466)"
             id="g96">
            <path
               id="path98"
               style="fill:none;stroke:#000000;stroke-width:0.709;stroke-linecap:butt;stroke-linejoin:miter;stroke-miterlimit:10;stroke-dasharray:none;stroke-opacity:1"
               d="M 0,0 C -14.583,0 -28.195,12.333 -28.195,26.916 -28.195,41.5 -14.583,55.111 0,55.111 14.584,55.111 29.479,41.5 29.479,26.916 29.479,12.333 14.584,0 0,0 Z m 94.843,67.287 h -194.81 c -2.477,0 -4.486,-2.026 -4.486,-4.525 V -75.572 c 0,-2.499 2.009,-4.525 4.486,-4.525 l 10.253,-0.646 c 0,0 -14.099,72.398 24.352,67.227 H 65.365 c 32.041,1.293 20.506,-67.227 20.506,-67.227 l 8.972,0.646 c 2.477,0 4.486,2.026 4.486,4.525 V 62.762 c 0,2.499 -2.009,4.525 -4.486,4.525 z" />
          </g>
          <g
             transform="translate(163.915,253.9054)"
             id="g100">
            <path
               id="path102"
               style="fill:#cccccc;fill-opacity:1;fill-rule:nonzero;stroke:none"
               d="m 0,0 c -14.584,0 -26.406,11.822 -26.406,26.406 0,14.583 11.822,26.406 26.406,26.406 14.584,0 26.405,-11.823 26.405,-26.406 C 26.405,11.822 14.584,0 0,0 m 0,59.728 c -18.403,0 -33.321,-14.919 -33.321,-33.322 0,-18.403 14.918,-33.322 33.321,-33.322 18.402,0 33.321,14.919 33.321,33.322 0,18.403 -14.919,33.322 -33.321,33.322" />
          </g>
          <g
             transform="translate(163.915,253.9054)"
             id="g104">
            <path
               id="path106"
               style="fill:none;stroke:#000000;stroke-width:0.709;stroke-linecap:butt;stroke-linejoin:miter;stroke-miterlimit:10;stroke-dasharray:none;stroke-opacity:1"
               d="m 0,0 c -14.584,0 -26.406,11.822 -26.406,26.406 0,14.583 11.822,26.406 26.406,26.406 14.584,0 26.405,-11.823 26.405,-26.406 C 26.405,11.822 14.584,0 0,0 Z m 0,59.728 c -18.403,0 -33.321,-14.919 -33.321,-33.322 0,-18.403 14.918,-33.322 33.321,-33.322 18.402,0 33.321,14.919 33.321,33.322 0,18.403 -14.919,33.322 -33.321,33.322 z" />
          </g>
          <g
             transform="translate(163.9131,253.9064)"
             id="g108">
            <path
               id="path110"
               style="fill:#e6e6e6;fill-opacity:1;fill-rule:nonzero;stroke:none"
               d="m 0,0 c -14.583,0 -26.405,11.822 -26.405,26.406 0,14.583 11.822,26.406 26.405,26.406 14.584,0 26.406,-11.823 26.406,-26.406 C 26.406,11.822 14.584,0 0,0 m 0.002,55.954 c -16.32,0 -29.55,-13.229 -29.55,-29.55 0,-16.319 13.23,-29.549 29.55,-29.549 16.319,0 29.549,13.23 29.549,29.549 0,16.321 -13.23,29.55 -29.549,29.55" />
          </g>
          <g
             transform="translate(163.9131,253.9064)"
             id="g112">
            <path
               id="path114"
               style="fill:none;stroke:#000000;stroke-width:0.709;stroke-linecap:butt;stroke-linejoin:miter;stroke-miterlimit:10;stroke-dasharray:none;stroke-opacity:1"
               d="m 0,0 c -14.583,0 -26.405,11.822 -26.405,26.406 0,14.583 11.822,26.406 26.405,26.406 14.584,0 26.406,-11.823 26.406,-26.406 C 26.406,11.822 14.584,0 0,0 Z m 0.002,55.954 c -16.32,0 -29.55,-13.229 -29.55,-29.55 0,-16.319 13.23,-29.549 29.55,-29.549 16.319,0 29.549,13.23 29.549,29.549 0,16.321 -13.23,29.55 -29.549,29.55 z" />
          </g>
          <g
             style="stroke-width:2.32874"
             transform="matrix(-0.42941753,0,0,0.42941753,163.917,390.09839)"
             id="g116">
            <path
               id="path118"
               style="fill:none;stroke:#000000;stroke-width:4.95089;stroke-linecap:butt;stroke-linejoin:miter;stroke-miterlimit:10;stroke-dasharray:none;stroke-opacity:1"
               d="M 0,0 V 84.455" />
          </g>
          <g
             transform="translate(163.917,375.088)"
             id="g120">
            <path
               id="path122"
               style="fill:#000000;fill-opacity:1;fill-rule:nonzero;stroke:none"
               d="M 0,0 8.643,21.152 0,16.133 -8.641,21.152 Z" />
          </g>
          <g
             transform="translate(44.3105,280.3126)"
             id="g124">
            <path
               id="path126"
               style="fill:none;stroke:#000000;stroke-width:2.126;stroke-linecap:butt;stroke-linejoin:miter;stroke-miterlimit:10;stroke-dasharray:none;stroke-opacity:1"
               d="M 0,0 H -7.989" />
          </g>
          <g
             transform="translate(59.3213,280.3126)"
             id="g128">
            <path
               id="path130"
               style="fill:#000000;fill-opacity:1;fill-rule:nonzero;stroke:none"
               d="M 0,0 -21.152,8.643 -16.133,0 -21.152,-8.642 Z" />
          </g>
          <g
             transform="translate(163.917,265.3018)"
             id="g132">
            <path
               id="path134"
               style="fill:none;stroke:#000000;stroke-width:2.126;stroke-linecap:butt;stroke-linejoin:miter;stroke-miterlimit:10;stroke-dasharray:none;stroke-opacity:1"
               d="M 0,0 V -80.214" />
          </g>
          <g
             transform="translate(163.917,280.3126)"
             id="g136">
            <path
               id="path138"
               style="fill:#000000;fill-opacity:1;fill-rule:nonzero;stroke:none"
               d="M 0,0 -8.643,-21.152 0,-16.133 8.641,-21.152 Z" />
          </g>
          <g
             transform="matrix(-1,0,0,1,350.2387,0)"
             id="g939">
            <g
               id="g140"
               transform="translate(178.9277,280.3126)">
              <path
                 d="M 0,0 H 7.394"
                 style="fill:none;stroke:#000000;stroke-width:2.126;stroke-linecap:butt;stroke-linejoin:miter;stroke-miterlimit:10;stroke-dasharray:none;stroke-opacity:1"
                 id="path142" />
            </g>
            <g
               id="g144"
               transform="translate(163.917,280.3126)">
              <path
                 d="M 0,0 21.152,-8.644 16.133,0 21.152,8.641 Z"
                 style="fill:#000000;fill-opacity:1;fill-rule:nonzero;stroke:none"
                 id="path146" />
            </g>
          </g>
        </g>
      </g>
      <text
         id="text150"
         style="font-variant:normal;font-weight:normal;font-stretch:normal;font-size:28.6818px;font-family:'Times New Roman';-inkscape-font-specification:TimesNewRomanPSMT;writing-mode:lr-tb;fill:#000000;fill-opacity:1;fill-rule:nonzero;stroke:none"
         transform="matrix(1,0,0,-1,199,264.0039)"><tspan
           id="tspan148"
           y="0"
           x="0">F</tspan></text>
      <text
         id="text154"
         style="font-variant:normal;font-weight:normal;font-stretch:normal;font-size:16.7215px;font-family:'Times New Roman';-inkscape-font-specification:TimesNewRomanPSMT;writing-mode:lr-tb;fill:#000000;fill-opacity:1;fill-rule:nonzero;stroke:none"
         transform="matrix(1,0,0,-1,214.9517,262.957)"><tspan
           id="tspan152"
           sodipodi:role="line"
           y="0"
           x="0 5.5682597 13.929009">rpx</tspan></text>
      <g
         style="fill:#000000;stroke:#000000"
         id="g156">
        <g
           style="fill:#000000;stroke:#000000"
           clip-path="url(#clipPath162)"
           id="g158">
          <g
             style="fill:#000000;stroke:#000000"
             transform="translate(163.917,310.8927)"
             id="g164">
            <path
               id="path166"
               style="fill:#000000;stroke:#000000;stroke-width:2.126;stroke-linecap:butt;stroke-linejoin:miter;stroke-miterlimit:10;stroke-dasharray:none;stroke-opacity:1"
               d="M 0,0 V -30.58" />
          </g>
          <g
             style="fill:#000000;stroke:#000000"
             transform="translate(163.917,325.9034)"
             id="g168">
            <path
               id="path170"
               style="fill:#000000;fill-opacity:1;fill-rule:nonzero;stroke:#000000"
               d="M 0,0 -8.643,-21.152 0,-16.133 8.641,-21.152 Z" />
          </g>
        </g>
      </g>
      <text
         id="text174"
         style="font-variant:normal;font-weight:normal;font-stretch:normal;font-size:28.3465px;font-family:'Times New Roman';-inkscape-font-specification:TimesNewRomanPSMT;writing-mode:lr-tb;fill:#000000;fill-opacity:1;fill-rule:nonzero;stroke:none"
         transform="matrix(1,0,0,-1,116.9883,185.2363)"><tspan
           id="tspan172"
           y="0"
           x="0">F</tspan></text>
      <text
         id="text178"
         style="font-variant:normal;font-weight:normal;font-stretch:normal;font-size:16.526px;font-family:'Times New Roman';-inkscape-font-specification:TimesNewRomanPSMT;writing-mode:lr-tb;fill:#000000;fill-opacity:1;fill-rule:nonzero;stroke:none"
         transform="matrix(1,0,0,-1,132.7529,184.3008)"><tspan
           id="tspan176"
           sodipodi:role="line"
           y="0"
           x="0 5.5031581 13.766158">rpy</tspan></text>
      <text
         id="text182"
         style="font-variant:normal;font-weight:normal;font-stretch:normal;font-size:28.3465px;font-family:'Times New Roman';-inkscape-font-specification:TimesNewRomanPSMT;writing-mode:lr-tb;fill:#000000;fill-opacity:1;fill-rule:nonzero;stroke:none"
         transform="matrix(1,0,0,-1,178.9883,306.2363)"><tspan
           id="tspan180"
           y="0"
           x="0">m</tspan></text>
      <text
         id="text186"
         style="font-variant:normal;font-weight:normal;font-stretch:normal;font-size:16.526px;font-family:'Times New Roman';-inkscape-font-specification:TimesNewRomanPSMT;writing-mode:lr-tb;fill:#000000;fill-opacity:1;fill-rule:nonzero;stroke:none"
         transform="matrix(1,0,0,-1,201.0371,305.3008)"><tspan
           id="tspan184"
           y="0"
           x="0">p</tspan></text>
      <text
         id="text190"
         style="font-variant:normal;font-weight:normal;font-stretch:normal;font-size:28.3465px;font-family:'Times New Roman';-inkscape-font-specification:TimesNewRomanPSMT;writing-mode:lr-tb;fill:#000000;fill-opacity:1;fill-rule:nonzero;stroke:none"
         transform="matrix(1,0,0,-1,209.2998,306.2363)"><tspan
           id="tspan188"
           sodipodi:role="line"
           y="0"
           x="0">∙ÿ</tspan></text>
      <text
         id="text194"
         style="font-variant:normal;font-weight:normal;font-stretch:normal;font-size:16.526px;font-family:'Times New Roman';-inkscape-font-specification:TimesNewRomanPSMT;writing-mode:lr-tb;fill:#000000;fill-opacity:1;fill-rule:nonzero;stroke:none"
         transform="matrix(1,0,0,-1,228.9678,305.3008)"><tspan
           id="tspan192"
           sodipodi:role="line"
           y="0"
           x="0">p</tspan></text>
      <g
         id="g196">
        <g
           clip-path="url(#clipPath202)"
           id="g198">
          <text
             id="text206"
             style="font-variant:normal;font-weight:normal;font-stretch:normal;font-size:28.6818px;font-family:'Times New Roman';-inkscape-font-specification:TimesNewRomanPSMT;writing-mode:lr-tb;fill:#000000;fill-opacity:1;fill-rule:nonzero;stroke:none"
             transform="matrix(1,0,0,-1,0,277.0039)"><tspan
               id="tspan204"
               y="0"
               x="0">F</tspan></text>
        </g>
      </g>
      <text
         id="text210"
         style="font-variant:normal;font-weight:normal;font-stretch:normal;font-size:16.7215px;font-family:'Times New Roman';-inkscape-font-specification:TimesNewRomanPSMT;writing-mode:lr-tb;fill:#000000;fill-opacity:1;fill-rule:nonzero;stroke:none"
         transform="matrix(1,0,0,-1,15.9517,275.957)"><tspan
           id="tspan208"
           sodipodi:role="line"
           y="0"
           x="0 8.3607502">op</tspan></text>
      <text
         id="text214"
         style="font-variant:normal;font-weight:normal;font-stretch:normal;font-size:28.6818px;font-family:'Times New Roman';-inkscape-font-specification:TimesNewRomanPSMT;writing-mode:lr-tb;fill:#000000;fill-opacity:1;fill-rule:nonzero;stroke:none"
         transform="matrix(1,0,0,-1,175,403.81435)"><tspan
           id="tspan212"
           y="0"
           x="0">F</tspan></text>
      <text
         id="text218"
         style="font-variant:normal;font-weight:normal;font-stretch:normal;font-size:16.7215px;font-family:'Times New Roman';-inkscape-font-specification:TimesNewRomanPSMT;writing-mode:lr-tb;fill:#000000;fill-opacity:1;fill-rule:nonzero;stroke:none"
         transform="matrix(1,0,0,-1,190.9517,402.76745)"><tspan
           id="tspan216"
           y="0"
           x="0">g</tspan></text>
      <g
         id="g1935">
        <rect
           style="fill:#ffffff;fill-opacity:0.2;stroke-width:0.116781;stroke-linecap:round;stroke-linejoin:round;stroke-miterlimit:4;stroke-dasharray:none;stroke-opacity:0.499245"
           id="rect1867"
           width="100.7162"
           height="114.23816"
           x="13.889132"
           y="5.6603017"
           transform="matrix(3.9402836,0,0,-2.6054149,-120.79678,448.77722)" />
        <g
           id="g220"
           transform="matrix(1.0000038,0,0,-1,-66.070423,434.02898)"
           style="stroke-width:0.999998">
          <path
             d="m 8.875,281.824 -1.156,3.203 c -0.117,0.305 -0.199,0.559 -0.25,0.766 -0.055,0.199 -0.078,0.375 -0.078,0.531 0,0.156 0.035,0.289 0.109,0.391 0.066,0.094 0.188,0.172 0.344,0.234 0.164,0.055 0.379,0.102 0.64,0.141 0.258,0.031 0.571,0.07 0.938,0.109 0.039,0.25 0.039,0.492 0,0.719 -0.375,0 -0.887,-0.008 -1.531,-0.016 -0.649,-0.019 -1.164,-0.031 -1.547,-0.031 -0.461,0 -0.887,0.012 -1.282,0.031 -0.386,0.012 -0.812,0.016 -1.285,0.016 -0.035,-0.238 -0.035,-0.484 0,-0.734 0.285,-0.032 0.528,-0.063 0.739,-0.094 0.218,-0.031 0.406,-0.078 0.562,-0.141 0.164,-0.07 0.313,-0.16 0.438,-0.265 0.125,-0.114 0.242,-0.258 0.359,-0.438 0.125,-0.187 0.242,-0.422 0.359,-0.703 0.125,-0.281 0.258,-0.617 0.407,-1.016 l 5.011,-12.859 c 0.325,-0.102 0.653,-0.164 0.989,-0.188 l 4.953,13.25 c 0.207,0.563 0.379,1 0.515,1.313 0.145,0.312 0.305,0.547 0.485,0.703 0.176,0.156 0.39,0.262 0.656,0.313 0.258,0.043 0.617,0.086 1.078,0.125 0.031,0.25 0.031,0.496 0,0.734 -0.543,0 -1.101,-0.008 -1.676,-0.016 -0.57,-0.019 -1.136,-0.031 -1.699,-0.031 -0.469,0 -1.008,0.012 -1.609,0.031 -0.61,0.012 -1.172,0.016 -1.703,0.016 -0.043,-0.227 -0.043,-0.469 0,-0.719 0.375,-0.039 0.691,-0.078 0.953,-0.109 0.258,-0.031 0.468,-0.07 0.625,-0.125 0.156,-0.051 0.265,-0.113 0.343,-0.188 0.071,-0.082 0.11,-0.195 0.11,-0.343 0,-0.114 -0.027,-0.254 -0.078,-0.422 -0.043,-0.164 -0.11,-0.367 -0.192,-0.61 l -1.308,-3.578 z m 0.344,-0.953 h 4.515 l -2.265,-6.172 z"
             style="fill:#000000;fill-opacity:1;fill-rule:nonzero;stroke:none;stroke-width:0.999998"
             id="path222" />
          <path
             d="m 30.652,284.684 c 0,0.429 0,0.777 0.016,1.046 0.02,0.262 0.082,0.469 0.187,0.625 0.102,0.149 0.266,0.258 0.485,0.329 0.226,0.074 0.547,0.136 0.953,0.187 0.039,0.199 0.039,0.406 0,0.625 -1.25,0.168 -2.371,0.391 -3.359,0.672 l -0.239,-0.094 -0.058,-1.656 c -1.075,1.137 -2.278,1.703 -3.61,1.703 -1.312,0 -2.386,-0.5 -3.218,-1.5 -0.836,-1.008 -1.25,-2.258 -1.25,-3.75 0,-1.758 0.523,-3.207 1.578,-4.344 1.058,-1.144 2.425,-1.718 4.093,-1.718 0.797,0 1.59,0.125 2.375,0.375 v -3.313 c 0,-0.445 -0.011,-0.785 -0.035,-1.016 -0.008,-0.238 -0.07,-0.437 -0.183,-0.593 -0.117,-0.157 -0.289,-0.266 -0.516,-0.328 -0.23,-0.071 -0.594,-0.133 -1.078,-0.188 -0.043,-0.195 -0.043,-0.398 0,-0.609 1.227,-0.164 2.457,-0.492 3.687,-0.985 l 0.235,0.094 c -0.031,0.813 -0.055,1.715 -0.063,2.703 z m -2.015,-5.625 c -0.692,-0.895 -1.578,-1.344 -2.672,-1.344 -1.094,0 -1.918,0.387 -2.469,1.156 -0.555,0.762 -0.828,1.813 -0.828,3.156 0,1.387 0.285,2.512 0.859,3.375 0.582,0.868 1.426,1.297 2.532,1.297 1.093,0 1.953,-0.426 2.578,-1.281 z"
             style="fill:#000000;fill-opacity:1;fill-rule:nonzero;stroke:none;stroke-width:0.999998"
             id="path224" />
          <path
             d="m 43.543,286.418 c 0.102,0.156 0.164,0.312 0.187,0.469 -0.355,0.418 -0.746,0.718 -1.171,0.906 -0.418,0.187 -0.825,0.281 -1.219,0.281 -0.899,0 -1.461,-0.5 -1.688,-1.5 -1.031,1.031 -2.109,1.547 -3.234,1.547 -0.781,0 -1.422,-0.226 -1.922,-0.687 -0.5,-0.457 -0.75,-1.063 -0.75,-1.813 0,-1.039 0.477,-1.867 1.438,-2.484 0.968,-0.614 2.468,-1.047 4.511,-1.297 l 0.02,-2.281 c 0,-0.539 -0.199,-0.957 -0.594,-1.25 -0.387,-0.289 -0.875,-0.438 -1.469,-0.438 -0.418,0 -0.765,0.063 -1.047,0.188 0,0.636 -0.167,1.179 -0.5,1.625 -0.328,0.437 -0.714,0.656 -1.171,0.656 -0.262,0 -0.481,-0.082 -0.657,-0.25 -0.168,-0.176 -0.25,-0.395 -0.25,-0.656 0,-0.645 0.516,-1.25 1.543,-1.813 0.535,-0.289 1.082,-0.5 1.645,-0.625 0.562,-0.125 1.07,-0.187 1.531,-0.187 0.926,0 1.664,0.246 2.219,0.734 0.562,0.48 0.836,1.137 0.828,1.969 l -0.109,6.453 c -0.012,0.492 0.203,0.734 0.636,0.734 0.285,0 0.692,-0.094 1.223,-0.281 z m -3.859,-3.781 c -1.438,0.187 -2.422,0.484 -2.954,0.89 -0.523,0.399 -0.785,0.922 -0.785,1.578 0,0.524 0.137,0.915 0.41,1.172 0.27,0.25 0.641,0.375 1.11,0.375 0.531,0 1.258,-0.218 2.187,-0.656 z"
             style="fill:#000000;fill-opacity:1;fill-rule:nonzero;stroke:none;stroke-width:0.999998"
             id="path226" />
          <path
             d="m 50.18,293.887 c -0.512,0 -1.028,-0.012 -1.532,-0.032 -0.5,-0.011 -1.043,-0.015 -1.625,-0.015 -0.5,0 -0.964,0 -1.39,0.015 -0.43,0.02 -0.871,0.032 -1.328,0.032 -0.028,-0.219 -0.028,-0.453 0,-0.703 0.383,-0.024 0.691,-0.055 0.922,-0.094 0.226,-0.031 0.398,-0.106 0.515,-0.219 0.113,-0.105 0.188,-0.266 0.219,-0.484 0.039,-0.211 0.062,-0.496 0.062,-0.86 v -11.015 c 0,-0.438 -0.011,-0.785 -0.031,-1.047 -0.023,-0.27 -0.09,-0.477 -0.187,-0.625 -0.11,-0.156 -0.278,-0.266 -0.5,-0.328 -0.235,-0.071 -0.555,-0.141 -0.969,-0.203 -0.043,-0.188 -0.043,-0.383 0,-0.594 1.226,-0.227 2.394,-0.563 3.5,-1 l 0.219,0.094 c -0.028,0.699 -0.032,1.304 -0.032,1.812 1.165,-1.207 2.36,-1.812 3.579,-1.812 1.414,0 2.515,0.515 3.296,1.546 0.782,1.032 1.168,2.266 1.168,3.704 0,1.75 -0.539,3.195 -1.605,4.328 -1.063,1.125 -2.402,1.687 -4.016,1.687 -0.886,0 -1.683,-0.125 -2.39,-0.375 v 3.594 c 0,0.437 0.011,0.773 0.047,1.016 0.039,0.238 0.132,0.421 0.281,0.546 0.144,0.125 0.359,0.204 0.64,0.235 0.289,0.031 0.672,0.062 1.157,0.094 0.031,0.238 0.031,0.472 0,0.703 z m -2.157,-8 c 0.719,0.886 1.602,1.328 2.657,1.328 1.062,0 1.875,-0.383 2.437,-1.156 0.563,-0.77 0.844,-1.821 0.844,-3.157 0,-1.406 -0.289,-2.535 -0.859,-3.39 -0.575,-0.864 -1.383,-1.297 -2.422,-1.297 -0.992,0 -1.875,0.449 -2.657,1.344 z"
             style="fill:#000000;fill-opacity:1;fill-rule:nonzero;stroke:none;stroke-width:0.999998"
             id="path228" />
          <path
             d="m 64.668,287.121 c -0.898,0.668 -1.891,1 -2.984,1 -0.844,0 -1.512,-0.219 -2,-0.656 -0.493,-0.438 -0.739,-1.055 -0.739,-1.86 0,-0.914 0.012,-2.007 0.035,-3.281 0.02,-1.269 0.047,-2.586 0.079,-3.953 h -1.672 c -0.043,-0.207 -0.043,-0.406 0,-0.594 1.425,-0.644 2.457,-1.672 3.093,-3.078 0.27,0 0.5,0.016 0.688,0.047 -0.059,0.949 -0.078,1.813 -0.078,2.594 h 3.437 c 0.039,0.336 0.039,0.68 0,1.031 h -3.422 c -0.023,1.043 -0.043,1.992 -0.062,2.844 -0.016,0.844 -0.016,2.121 -0.016,3.828 0,0.594 0.176,1.047 0.532,1.359 0.351,0.305 0.832,0.453 1.437,0.453 0.531,0 1.02,-0.117 1.469,-0.359 0.094,0.199 0.16,0.406 0.203,0.625 z"
             style="fill:#000000;fill-opacity:1;fill-rule:nonzero;stroke:none;stroke-width:0.999998"
             id="path230" />
          <path
             d="m 72.418,280.699 c 0.008,-0.062 0.016,-0.179 0.016,-0.359 0,-0.781 -0.204,-1.422 -0.614,-1.922 -0.394,-0.508 -0.941,-0.766 -1.636,-0.766 -0.688,0 -1.282,0.266 -1.782,0.797 -0.492,0.531 -0.808,1.305 -0.957,2.313 z m -5.047,0.922 c 0,1.606 0.344,2.824 1.031,3.656 0.696,0.836 1.645,1.25 2.844,1.25 1.031,0 2.047,-0.332 3.047,-1 0.133,0.157 0.25,0.328 0.344,0.516 -1.25,1.406 -2.715,2.109 -4.391,2.109 -1.461,0 -2.637,-0.507 -3.516,-1.531 -0.886,-1.019 -1.328,-2.332 -1.328,-3.937 0,-1.727 0.457,-3.141 1.391,-4.235 0.937,-1.094 2.172,-1.64 3.703,-1.64 1.258,0 2.254,0.39 2.984,1.171 0.739,0.774 1.11,1.79 1.11,3.047 0,0.262 -0.012,0.481 -0.031,0.657 z"
             style="fill:#000000;fill-opacity:1;fill-rule:nonzero;stroke:none;stroke-width:0.999998"
             id="path232" />
          <path
             d="m 86.27,284.684 c 0,0.429 0.003,0.777 0.015,1.046 0.02,0.262 0.082,0.469 0.188,0.625 0.097,0.149 0.261,0.258 0.484,0.329 0.227,0.074 0.547,0.136 0.953,0.187 0.035,0.199 0.035,0.406 0,0.625 -1.25,0.168 -2.371,0.391 -3.359,0.672 l -0.235,-0.094 -0.062,-1.656 c -1.074,1.137 -2.277,1.703 -3.609,1.703 -1.313,0 -2.387,-0.5 -3.219,-1.5 -0.836,-1.008 -1.25,-2.258 -1.25,-3.75 0,-1.758 0.519,-3.207 1.578,-4.344 1.062,-1.144 2.426,-1.718 4.094,-1.718 0.8,0 1.593,0.125 2.375,0.375 v -3.313 c 0,-0.445 -0.012,-0.785 -0.032,-1.016 -0.011,-0.238 -0.074,-0.437 -0.187,-0.593 -0.117,-0.157 -0.289,-0.266 -0.52,-0.328 -0.226,-0.071 -0.586,-0.133 -1.074,-0.188 -0.043,-0.195 -0.043,-0.398 0,-0.609 1.227,-0.164 2.457,-0.492 3.688,-0.985 l 0.234,0.094 c -0.031,0.813 -0.055,1.715 -0.062,2.703 z m -2.016,-5.625 c -0.688,-0.895 -1.578,-1.344 -2.672,-1.344 -1.098,0 -1.918,0.387 -2.473,1.156 -0.55,0.762 -0.824,1.813 -0.824,3.156 0,1.387 0.281,2.512 0.86,3.375 0.582,0.868 1.421,1.297 2.531,1.297 1.094,0 1.953,-0.426 2.578,-1.281 z"
             style="fill:#000000;fill-opacity:1;fill-rule:nonzero;stroke:none;stroke-width:0.999998"
             id="path234" />
          <path
             d="m 102.496,277.34 c 0.039,0.344 0.039,0.687 0,1.031 h -2.984 v 6.953 c 0,0.438 0.015,0.778 0.058,1.016 0.039,0.242 0.133,0.422 0.27,0.547 0.144,0.125 0.351,0.203 0.625,0.234 0.281,0.031 0.664,0.063 1.156,0.094 0.031,0.219 0.031,0.453 0,0.703 -0.5,0 -1.012,-0.008 -1.516,-0.016 -0.511,-0.019 -1.058,-0.031 -1.64,-0.031 -0.524,0 -0.996,0.012 -1.422,0.031 -0.418,0.012 -0.852,0.016 -1.297,0.016 -0.031,-0.219 -0.031,-0.453 0,-0.703 0.383,-0.02 0.688,-0.047 0.906,-0.078 0.227,-0.039 0.399,-0.114 0.516,-0.219 0.125,-0.113 0.203,-0.273 0.234,-0.484 0.032,-0.219 0.043,-0.508 0.043,-0.875 v -7.188 H 95.57 c -0.043,-0.207 -0.043,-0.406 0,-0.594 0.473,-0.093 0.832,-0.172 1.082,-0.234 0.258,-0.07 0.446,-0.145 0.563,-0.219 0.113,-0.082 0.18,-0.16 0.203,-0.234 0.02,-0.07 0.035,-0.289 0.047,-0.656 0.113,-2.145 0.629,-3.704 1.547,-4.672 0.926,-0.969 2.093,-1.453 3.5,-1.453 0.765,0 1.41,0.168 1.922,0.5 0.519,0.324 0.781,0.75 0.781,1.281 0,0.336 -0.106,0.609 -0.313,0.828 -0.211,0.219 -0.476,0.328 -0.797,0.328 -0.437,0 -0.812,-0.176 -1.125,-0.531 -0.312,-0.363 -0.468,-0.797 -0.468,-1.297 -0.211,-0.082 -0.465,-0.125 -0.766,-0.125 -0.773,0 -1.344,0.336 -1.703,1 -0.355,0.656 -0.531,1.746 -0.531,3.266 v 1.781 z"
             style="fill:#000000;fill-opacity:1;fill-rule:nonzero;stroke:none;stroke-width:0.999998"
             id="path236" />
          <path
             d="m 106.887,276.809 v 2.062 c 1.051,-1.375 2.125,-2.062 3.218,-2.062 0.407,0 0.75,0.109 1.032,0.328 0.281,0.211 0.422,0.5 0.422,0.875 0,0.375 -0.125,0.679 -0.375,0.906 -0.25,0.219 -0.547,0.328 -0.891,0.328 -0.559,0 -1,-0.254 -1.348,-0.766 -0.519,0 -0.988,0.204 -1.402,0.61 -0.418,0.398 -0.625,0.867 -0.625,1.406 v 4.828 c 0,0.438 0.016,0.778 0.047,1.016 0.031,0.242 0.113,0.422 0.25,0.547 0.133,0.125 0.344,0.203 0.625,0.234 0.281,0.031 0.664,0.063 1.156,0.094 0.031,0.219 0.031,0.453 0,0.703 -0.512,0 -1.031,-0.008 -1.562,-0.016 -0.532,-0.019 -1.055,-0.031 -1.563,-0.031 -0.5,0 -0.969,0.012 -1.391,0.031 -0.429,0.012 -0.871,0.016 -1.312,0.016 -0.031,-0.227 -0.031,-0.461 0,-0.703 0.375,-0.02 0.676,-0.047 0.902,-0.078 0.231,-0.039 0.403,-0.114 0.52,-0.219 0.113,-0.113 0.187,-0.273 0.219,-0.484 0.039,-0.219 0.062,-0.508 0.062,-0.875 v -5.047 c 0,-0.438 -0.012,-0.785 -0.031,-1.047 -0.024,-0.27 -0.086,-0.477 -0.188,-0.625 -0.105,-0.156 -0.273,-0.266 -0.5,-0.328 -0.23,-0.071 -0.554,-0.141 -0.968,-0.203 -0.043,-0.188 -0.043,-0.383 0,-0.594 1.207,-0.227 2.363,-0.563 3.468,-1 z"
             style="fill:#000000;fill-opacity:1;fill-rule:nonzero;stroke:none;stroke-width:0.999998"
             id="path238" />
          <path
             d="m 117.477,288.152 c -1.661,0 -2.969,-0.519 -3.938,-1.562 -0.961,-1.039 -1.437,-2.375 -1.437,-4 0,-1.727 0.507,-3.125 1.531,-4.188 1.031,-1.062 2.379,-1.593 4.047,-1.593 1.632,0 2.937,0.523 3.906,1.562 0.976,1.043 1.469,2.375 1.469,4 0,1.688 -0.516,3.074 -1.547,4.156 -1.031,1.086 -2.375,1.625 -4.031,1.625 z m -3.047,-5.828 c 0,1.543 0.265,2.762 0.797,3.656 0.539,0.887 1.328,1.329 2.359,1.329 1.019,0 1.797,-0.414 2.328,-1.25 0.539,-0.844 0.813,-1.985 0.813,-3.422 0,-1.532 -0.274,-2.742 -0.813,-3.641 -0.531,-0.894 -1.312,-1.344 -2.348,-1.344 -1.007,0 -1.789,0.422 -2.324,1.266 -0.547,0.836 -0.812,1.969 -0.812,3.406 z"
             style="fill:#000000;fill-opacity:1;fill-rule:nonzero;stroke:none;stroke-width:0.999998"
             id="path240" />
          <path
             d="m 143.359,287.918 c -0.429,0 -0.851,-0.008 -1.265,-0.016 -0.418,-0.019 -0.875,-0.031 -1.375,-0.031 -0.512,0 -0.969,0.012 -1.375,0.031 -0.406,0.012 -0.797,0.016 -1.172,0.016 -0.031,-0.227 -0.031,-0.461 0,-0.703 0.332,-0.02 0.594,-0.047 0.781,-0.078 0.195,-0.039 0.352,-0.114 0.469,-0.219 0.125,-0.113 0.203,-0.273 0.23,-0.484 0.043,-0.207 0.067,-0.5 0.067,-0.875 v -4.547 c 0,-1.051 -0.18,-1.766 -0.531,-2.141 -0.356,-0.375 -0.883,-0.562 -1.579,-0.562 -1.011,0 -1.89,0.386 -2.64,1.156 0.031,0.23 0.047,0.48 0.047,0.75 v 5.109 c 0,0.438 0.011,0.778 0.046,1.016 0.032,0.242 0.098,0.422 0.204,0.547 0.113,0.125 0.269,0.203 0.468,0.234 0.196,0.031 0.485,0.063 0.86,0.094 0.031,0.23 0.031,0.465 0,0.703 -0.418,0 -0.84,-0.008 -1.266,-0.016 -0.418,-0.019 -0.875,-0.031 -1.375,-0.031 -0.5,0 -0.961,0.012 -1.375,0.031 -0.406,0.012 -0.793,0.016 -1.156,0.016 -0.031,-0.227 -0.031,-0.461 0,-0.703 0.32,-0.02 0.582,-0.047 0.781,-0.078 0.195,-0.039 0.352,-0.114 0.469,-0.219 0.113,-0.113 0.187,-0.273 0.219,-0.484 0.039,-0.207 0.062,-0.5 0.062,-0.875 v -4.547 c 0,-1.051 -0.18,-1.766 -0.531,-2.141 -0.356,-0.375 -0.883,-0.562 -1.578,-0.562 -0.985,0 -1.852,0.39 -2.61,1.171 v 5.844 c 0,0.438 0.016,0.778 0.043,1.016 0.035,0.242 0.102,0.422 0.207,0.547 0.114,0.125 0.27,0.203 0.469,0.234 0.207,0.031 0.5,0.063 0.875,0.094 0.031,0.23 0.031,0.465 0,0.703 -0.43,0 -0.851,-0.008 -1.266,-0.016 -0.417,-0.019 -0.874,-0.031 -1.374,-0.031 -0.5,0 -0.965,0.012 -1.391,0.031 -0.43,0.012 -0.867,0.016 -1.313,0.016 -0.031,-0.227 -0.031,-0.461 0,-0.703 0.375,-0.02 0.676,-0.047 0.907,-0.078 0.226,-0.039 0.398,-0.114 0.511,-0.219 0.118,-0.113 0.192,-0.273 0.223,-0.484 0.039,-0.207 0.063,-0.5 0.063,-0.875 v -5.047 c 0,-0.438 -0.012,-0.785 -0.036,-1.047 -0.019,-0.27 -0.086,-0.477 -0.183,-0.625 -0.11,-0.156 -0.274,-0.266 -0.5,-0.328 -0.235,-0.071 -0.555,-0.141 -0.969,-0.203 -0.043,-0.188 -0.043,-0.383 0,-0.594 1.27,-0.25 2.426,-0.582 3.469,-1 l 0.234,0.094 v 1.734 c 1.238,-1.156 2.516,-1.734 3.824,-1.734 1.411,0 2.332,0.609 2.77,1.828 1.269,-1.219 2.598,-1.828 3.98,-1.828 0.993,0 1.739,0.296 2.239,0.89 0.507,0.586 0.761,1.422 0.761,2.516 v 5.109 c 0,0.438 0.02,0.778 0.051,1.016 0.031,0.242 0.098,0.422 0.199,0.547 0.118,0.125 0.274,0.203 0.473,0.234 0.195,0.031 0.484,0.063 0.859,0.094 0.032,0.23 0.032,0.465 0,0.703 z"
             style="fill:#000000;fill-opacity:1;fill-rule:nonzero;stroke:none;stroke-width:0.999998"
             id="path242" />
          <path
             d="m 157.805,271.715 c 1.343,0 2.629,0 3.859,0 1.238,-0.008 2.363,-0.047 3.375,-0.11 0.102,1.25 0.234,2.61 0.391,4.079 -0.25,0.031 -0.496,0.031 -0.735,0 -0.386,-1.051 -0.843,-1.821 -1.379,-2.313 -0.527,-0.488 -1.378,-0.734 -2.543,-0.734 h -1.828 v 12.406 c 0,0.48 0.016,0.855 0.047,1.125 0.031,0.262 0.117,0.465 0.266,0.609 0.156,0.137 0.383,0.231 0.687,0.282 0.313,0.043 0.766,0.086 1.36,0.125 0.039,0.25 0.039,0.496 0,0.734 -0.637,0 -1.297,-0.008 -1.989,-0.016 -0.683,-0.019 -1.199,-0.031 -1.543,-0.031 -0.355,0 -0.871,0.012 -1.546,0.031 -0.68,0.012 -1.329,0.016 -1.954,0.016 -0.031,-0.227 -0.031,-0.469 0,-0.719 0.582,-0.051 1.032,-0.097 1.344,-0.14 0.313,-0.051 0.535,-0.133 0.688,-0.25 0.156,-0.114 0.25,-0.286 0.281,-0.516 0.039,-0.227 0.062,-0.547 0.062,-0.953 v -12.703 h -1.765 c -1.199,0 -2.063,0.246 -2.578,0.734 -0.528,0.492 -0.965,1.262 -1.328,2.313 -0.243,0.031 -0.485,0.031 -0.735,0 0.196,-1.469 0.36,-2.829 0.485,-4.079 1.007,0.063 2.113,0.102 3.312,0.11 1.207,0 2.461,0 3.766,0 z"
             style="fill:#000000;fill-opacity:1;fill-rule:nonzero;stroke:none;stroke-width:0.999998"
             id="path244" />
          <path
             d="m 167.305,287.012 h 2.672 c 0.363,0 0.675,-0.008 0.937,-0.032 0.27,-0.031 0.504,-0.078 0.703,-0.14 0.195,-0.063 0.375,-0.156 0.531,-0.281 0.157,-0.125 0.305,-0.286 0.454,-0.485 0.156,-0.207 0.312,-0.457 0.464,-0.75 0.168,-0.289 0.364,-0.64 0.582,-1.047 0.207,0 0.411,0.032 0.61,0.094 -0.293,1.18 -0.555,2.359 -0.781,3.547 -1.325,-0.031 -2.383,-0.047 -3.172,-0.047 h -2.172 c -0.961,0 -2.074,0.012 -3.344,0.031 -0.055,-0.144 -0.086,-0.289 -0.094,-0.437 l 6.5,-9.422 h -2.297 c -0.562,0 -1.015,0.031 -1.359,0.094 -0.344,0.054 -0.625,0.168 -0.844,0.343 -0.218,0.168 -0.406,0.403 -0.562,0.704 -0.156,0.304 -0.336,0.699 -0.531,1.187 -0.211,0.024 -0.422,0 -0.641,-0.062 0.207,-1.27 0.344,-2.332 0.406,-3.188 1.285,0.074 2.77,0.109 4.438,0.109 1.332,0 2.625,-0.019 3.875,-0.062 0.062,0.137 0.097,0.281 0.109,0.437 z"
             style="fill:#000000;fill-opacity:1;fill-rule:nonzero;stroke:none;stroke-width:0.999998"
             id="path246" />
          <path
             d="m 180.859,288.152 c -1.652,0 -2.964,-0.519 -3.933,-1.562 -0.961,-1.039 -1.442,-2.375 -1.442,-4 0,-1.727 0.512,-3.125 1.536,-4.188 1.031,-1.062 2.378,-1.593 4.046,-1.593 1.629,0 2.938,0.523 3.907,1.562 0.972,1.043 1.468,2.375 1.468,4 0,1.688 -0.515,3.074 -1.546,4.156 -1.036,1.086 -2.375,1.625 -4.036,1.625 z m -3.043,-5.828 c 0,1.543 0.266,2.762 0.793,3.656 0.543,0.887 1.332,1.329 2.364,1.329 1.019,0 1.797,-0.414 2.328,-1.25 0.539,-0.844 0.808,-1.985 0.808,-3.422 0,-1.532 -0.269,-2.742 -0.808,-3.641 -0.531,-0.894 -1.317,-1.344 -2.344,-1.344 -1.012,0 -1.789,0.422 -2.328,1.266 -0.543,0.836 -0.813,1.969 -0.813,3.406 z"
             style="fill:#000000;fill-opacity:1;fill-rule:nonzero;stroke:none;stroke-width:0.999998"
             id="path248" />
          <path
             d="m 191.59,276.809 v 2.062 c 1.051,-1.375 2.125,-2.062 3.219,-2.062 0.406,0 0.75,0.109 1.031,0.328 0.281,0.211 0.422,0.5 0.422,0.875 0,0.375 -0.125,0.679 -0.375,0.906 -0.25,0.219 -0.547,0.328 -0.891,0.328 -0.555,0 -1,-0.254 -1.344,-0.766 -0.523,0 -0.992,0.204 -1.406,0.61 -0.418,0.398 -0.625,0.867 -0.625,1.406 v 4.828 c 0,0.438 0.016,0.778 0.047,1.016 0.027,0.242 0.109,0.422 0.25,0.547 0.133,0.125 0.344,0.203 0.625,0.234 0.277,0.031 0.664,0.063 1.152,0.094 0.035,0.219 0.035,0.453 0,0.703 -0.507,0 -1.027,-0.008 -1.558,-0.016 -0.532,-0.019 -1.055,-0.031 -1.567,-0.031 -0.5,0 -0.961,0.012 -1.386,0.031 -0.43,0.012 -0.868,0.016 -1.313,0.016 -0.031,-0.227 -0.031,-0.461 0,-0.703 0.375,-0.02 0.676,-0.047 0.906,-0.078 0.227,-0.039 0.399,-0.114 0.516,-0.219 0.109,-0.113 0.187,-0.273 0.219,-0.484 0.039,-0.219 0.058,-0.508 0.058,-0.875 v -5.047 c 0,-0.438 -0.008,-0.785 -0.027,-1.047 -0.023,-0.27 -0.086,-0.477 -0.188,-0.625 -0.105,-0.156 -0.273,-0.266 -0.5,-0.328 -0.23,-0.071 -0.554,-0.141 -0.968,-0.203 -0.043,-0.188 -0.043,-0.383 0,-0.594 1.207,-0.227 2.363,-0.563 3.468,-1 z"
             style="fill:#000000;fill-opacity:1;fill-rule:nonzero;stroke:none;stroke-width:0.999998"
             id="path250" />
          <path
             d="m 203.992,287.121 c -0.898,0.668 -1.89,1 -2.984,1 -0.844,0 -1.512,-0.219 -2,-0.656 -0.492,-0.438 -0.735,-1.055 -0.735,-1.86 0,-0.914 0.004,-2.007 0.032,-3.281 0.015,-1.269 0.047,-2.586 0.078,-3.953 h -1.672 c -0.043,-0.207 -0.043,-0.406 0,-0.594 1.426,-0.644 2.457,-1.672 3.094,-3.078 0.265,0 0.5,0.016 0.687,0.047 -0.054,0.949 -0.078,1.813 -0.078,2.594 h 3.438 c 0.039,0.336 0.039,0.68 0,1.031 h -3.422 c -0.028,1.043 -0.043,1.992 -0.063,2.844 -0.012,0.844 -0.015,2.121 -0.015,3.828 0,0.594 0.175,1.047 0.531,1.359 0.351,0.305 0.832,0.453 1.433,0.453 0.536,0 1.024,-0.117 1.473,-0.359 0.094,0.199 0.156,0.406 0.203,0.625 z"
             style="fill:#000000;fill-opacity:1;fill-rule:nonzero;stroke:none;stroke-width:0.999998"
             id="path252" />
          <path
             d="m 207.43,287.012 h 2.672 c 0.363,0 0.675,-0.008 0.937,-0.032 0.27,-0.031 0.504,-0.078 0.703,-0.14 0.196,-0.063 0.375,-0.156 0.531,-0.281 0.157,-0.125 0.305,-0.286 0.454,-0.485 0.156,-0.207 0.312,-0.457 0.468,-0.75 0.164,-0.289 0.36,-0.64 0.578,-1.047 0.207,0 0.411,0.032 0.61,0.094 -0.293,1.18 -0.555,2.359 -0.781,3.547 -1.325,-0.031 -2.383,-0.047 -3.172,-0.047 h -2.172 c -0.961,0 -2.074,0.012 -3.344,0.031 -0.055,-0.144 -0.086,-0.289 -0.098,-0.437 l 6.5,-9.422 h -2.293 c -0.562,0 -1.015,0.031 -1.359,0.094 -0.348,0.054 -0.625,0.168 -0.848,0.343 -0.214,0.168 -0.402,0.403 -0.558,0.704 -0.156,0.304 -0.336,0.699 -0.531,1.187 -0.211,0.024 -0.422,0 -0.641,-0.062 0.207,-1.27 0.344,-2.332 0.406,-3.188 1.285,0.074 2.77,0.109 4.438,0.109 1.332,0 2.625,-0.019 3.875,-0.062 0.062,0.137 0.097,0.281 0.109,0.437 z"
             style="fill:#000000;fill-opacity:1;fill-rule:nonzero;stroke:none;stroke-width:0.999998"
             id="path254" />
          <path
             d="m 220.848,287.918 c -0.43,0 -0.864,-0.008 -1.297,-0.016 -0.43,-0.019 -0.891,-0.031 -1.391,-0.031 -0.5,0 -0.965,0.012 -1.39,0.031 -0.43,0.012 -0.868,0.016 -1.313,0.016 -0.031,-0.227 -0.031,-0.461 0,-0.703 0.375,-0.02 0.676,-0.047 0.902,-0.078 0.231,-0.039 0.403,-0.114 0.52,-0.219 0.113,-0.113 0.187,-0.273 0.219,-0.484 0.039,-0.207 0.062,-0.5 0.062,-0.875 v -5.047 c 0,-0.438 -0.012,-0.785 -0.031,-1.047 -0.024,-0.27 -0.086,-0.477 -0.188,-0.625 -0.105,-0.156 -0.273,-0.266 -0.5,-0.328 -0.23,-0.071 -0.554,-0.141 -0.968,-0.203 -0.043,-0.188 -0.043,-0.383 0,-0.594 1.269,-0.25 2.453,-0.582 3.547,-1 l 0.234,0.094 c -0.031,0.937 -0.047,1.765 -0.047,2.484 v 6.031 c 0,0.438 0.016,0.778 0.047,1.016 0.031,0.242 0.098,0.422 0.203,0.547 0.109,0.125 0.277,0.203 0.5,0.234 0.219,0.031 0.516,0.063 0.891,0.094 0.031,0.23 0.031,0.465 0,0.703 z m -4.141,-15.391 c 0,-0.363 0.125,-0.679 0.375,-0.953 0.258,-0.269 0.594,-0.406 1,-0.406 0.402,0 0.734,0.137 1,0.406 0.258,0.274 0.391,0.59 0.391,0.953 0,0.356 -0.133,0.668 -0.391,0.938 -0.266,0.273 -0.598,0.406 -1,0.406 -0.406,0 -0.742,-0.133 -1,-0.406 -0.25,-0.27 -0.375,-0.582 -0.375,-0.938 z"
             style="fill:#000000;fill-opacity:1;fill-rule:nonzero;stroke:none;stroke-width:0.999998"
             id="path256" />
          <path
             d="m 234.453,287.918 c -0.437,0 -0.867,-0.008 -1.281,-0.016 -0.418,-0.019 -0.875,-0.031 -1.375,-0.031 -0.512,0 -0.969,0.012 -1.375,0.031 -0.406,0.012 -0.813,0.016 -1.219,0.016 -0.043,-0.227 -0.043,-0.461 0,-0.703 0.344,-0.02 0.613,-0.047 0.813,-0.078 0.207,-0.039 0.367,-0.114 0.484,-0.219 0.109,-0.113 0.191,-0.273 0.234,-0.484 0.039,-0.219 0.063,-0.508 0.063,-0.875 v -4.547 c 0,-1.051 -0.188,-1.766 -0.563,-2.141 -0.375,-0.375 -0.929,-0.562 -1.656,-0.562 -1.031,0 -1.949,0.39 -2.75,1.171 v 5.844 c 0,0.438 0.016,0.778 0.047,1.016 0.027,0.242 0.098,0.422 0.203,0.547 0.113,0.125 0.274,0.203 0.484,0.234 0.208,0.031 0.493,0.063 0.86,0.094 0.031,0.23 0.031,0.465 0,0.703 -0.43,0 -0.856,-0.008 -1.27,-0.016 -0.418,-0.019 -0.875,-0.031 -1.375,-0.031 -0.5,0 -0.961,0.012 -1.386,0.031 -0.43,0.012 -0.868,0.016 -1.313,0.016 -0.043,-0.227 -0.043,-0.461 0,-0.703 0.375,-0.02 0.676,-0.047 0.906,-0.078 0.227,-0.039 0.399,-0.114 0.516,-0.219 0.109,-0.113 0.188,-0.273 0.219,-0.484 0.039,-0.219 0.058,-0.508 0.058,-0.875 v -5.047 c 0,-0.438 -0.007,-0.785 -0.027,-1.047 -0.023,-0.27 -0.086,-0.477 -0.188,-0.625 -0.105,-0.156 -0.273,-0.266 -0.5,-0.328 -0.23,-0.071 -0.554,-0.141 -0.968,-0.203 -0.043,-0.188 -0.043,-0.383 0,-0.594 0.633,-0.125 1.238,-0.27 1.808,-0.438 0.582,-0.164 1.137,-0.351 1.66,-0.562 l 0.235,0.094 v 1.734 c 1.281,-1.156 2.601,-1.734 3.969,-1.734 1.019,0 1.789,0.293 2.312,0.875 0.52,0.586 0.781,1.429 0.781,2.531 v 5.109 c 0,0.438 0.008,0.778 0.032,1.016 0.031,0.242 0.093,0.422 0.203,0.547 0.113,0.125 0.273,0.203 0.484,0.234 0.219,0.031 0.508,0.063 0.875,0.094 0.031,0.23 0.031,0.465 0,0.703 z"
             style="fill:#000000;fill-opacity:1;fill-rule:nonzero;stroke:none;stroke-width:0.999998"
             id="path258" />
          <path
             d="m 240.992,287.918 c -0.43,0 -0.859,-0.008 -1.297,-0.016 -0.429,-0.019 -0.89,-0.031 -1.39,-0.031 -0.5,0 -0.965,0.012 -1.391,0.031 -0.43,0.012 -0.867,0.016 -1.312,0.016 -0.036,-0.227 -0.036,-0.461 0,-0.703 0.375,-0.02 0.675,-0.047 0.906,-0.078 0.226,-0.039 0.394,-0.114 0.515,-0.219 0.114,-0.113 0.188,-0.273 0.219,-0.484 0.035,-0.207 0.063,-0.5 0.063,-0.875 v -5.047 c 0,-0.438 -0.012,-0.785 -0.032,-1.047 -0.023,-0.27 -0.085,-0.477 -0.187,-0.625 -0.106,-0.156 -0.274,-0.266 -0.5,-0.328 -0.231,-0.071 -0.559,-0.141 -0.969,-0.203 -0.047,-0.188 -0.047,-0.383 0,-0.594 1.27,-0.25 2.449,-0.582 3.547,-1 l 0.234,0.094 c -0.031,0.937 -0.046,1.765 -0.046,2.484 v 6.031 c 0,0.438 0.015,0.778 0.046,1.016 0.032,0.242 0.098,0.422 0.204,0.547 0.113,0.125 0.281,0.203 0.5,0.234 0.214,0.031 0.515,0.063 0.89,0.094 0.031,0.23 0.031,0.465 0,0.703 z m -4.14,-15.391 c 0,-0.363 0.125,-0.679 0.375,-0.953 0.257,-0.269 0.589,-0.406 1,-0.406 0.406,0 0.738,0.137 1,0.406 0.257,0.274 0.39,0.59 0.39,0.953 0,0.356 -0.133,0.668 -0.39,0.938 -0.262,0.273 -0.594,0.406 -1,0.406 -0.411,0 -0.743,-0.133 -1,-0.406 -0.25,-0.27 -0.375,-0.582 -0.375,-0.938 z"
             style="fill:#000000;fill-opacity:1;fill-rule:nonzero;stroke:none;stroke-width:0.999998"
             id="path260" />
          <path
             d="m 243.379,284.324 c 0.226,1 0.598,1.758 1.105,2.266 0.524,0.512 1.192,0.765 2,0.765 0.649,0 1.168,-0.164 1.567,-0.5 0.394,-0.343 0.594,-0.773 0.594,-1.296 0,-0.364 -0.079,-0.672 -0.235,-0.922 -0.156,-0.258 -0.367,-0.477 -0.625,-0.657 -0.25,-0.187 -0.543,-0.343 -0.875,-0.468 -0.34,-0.125 -0.68,-0.25 -1.031,-0.375 -0.375,-0.133 -0.75,-0.282 -1.125,-0.438 -0.367,-0.156 -0.695,-0.347 -0.984,-0.578 -0.286,-0.226 -0.516,-0.508 -0.704,-0.844 -0.179,-0.343 -0.265,-0.765 -0.265,-1.265 0,-0.946 0.367,-1.719 1.109,-2.313 0.738,-0.594 1.676,-0.89 2.813,-0.89 0.468,0 0.992,0.043 1.578,0.125 0.594,0.074 0.972,0.109 1.14,0.109 0.125,0 0.254,-0.004 0.391,-0.016 0,0.95 0.039,1.953 0.125,3.016 -0.281,0.031 -0.543,0.039 -0.781,0.016 -0.211,-0.864 -0.516,-1.477 -0.922,-1.844 -0.399,-0.375 -0.953,-0.563 -1.672,-0.563 -0.637,0 -1.137,0.141 -1.484,0.422 -0.356,0.281 -0.532,0.672 -0.532,1.172 0,0.324 0.071,0.594 0.219,0.813 0.145,0.218 0.336,0.414 0.574,0.578 0.25,0.156 0.536,0.293 0.848,0.406 0.313,0.117 0.641,0.234 0.984,0.359 0.375,0.125 0.75,0.274 1.125,0.438 0.379,0.156 0.727,0.359 1.032,0.609 0.3,0.25 0.547,0.563 0.734,0.938 0.188,0.367 0.277,0.82 0.277,1.359 0,1.024 -0.386,1.844 -1.168,2.469 -0.773,0.625 -1.765,0.937 -2.984,0.937 -0.348,0 -0.902,-0.062 -1.672,-0.187 -0.762,-0.125 -1.344,-0.188 -1.75,-0.188 0,-0.937 -0.051,-2.078 -0.14,-3.422 0.269,-0.031 0.515,-0.039 0.734,-0.031 z"
             style="fill:#000000;fill-opacity:1;fill-rule:nonzero;stroke:none;stroke-width:0.999998"
             id="path262" />
          <path
             d="m 264.945,270.902 c -2.656,2.118 -3.984,5.575 -3.984,10.375 0,4.813 1.328,8.274 3.984,10.391 l -0.484,0.484 c -3.559,-2.656 -5.328,-6.281 -5.328,-10.875 0,-4.738 1.769,-8.359 5.328,-10.859 z"
             style="fill:#000000;fill-opacity:1;fill-rule:nonzero;stroke:none;stroke-width:0.999998"
             id="path264" />
          <path
             d="m 268.227,276.855 c -0.075,-0.082 -0.141,-0.171 -0.204,-0.265 -0.054,-0.094 -0.101,-0.18 -0.14,-0.266 0.633,-0.687 1.305,-1.191 2.015,-1.515 0.719,-0.321 1.504,-0.485 2.36,-0.485 0.613,0 1.18,0.078 1.703,0.235 0.519,0.156 0.961,0.382 1.328,0.671 0.363,0.293 0.649,0.649 0.859,1.063 0.207,0.406 0.313,0.859 0.313,1.359 0,0.586 -0.149,1.184 -0.438,1.797 -0.281,0.617 -0.703,1.274 -1.25,1.969 -0.554,0.687 -1.246,1.422 -2.062,2.203 -0.813,0.781 -1.758,1.625 -2.828,2.531 0.332,0 0.695,0 1.094,0 0.406,-0.007 0.816,-0.015 1.234,-0.015 0.426,-0.008 0.844,-0.016 1.25,-0.016 0.406,-0.008 0.769,-0.019 1.094,-0.031 0.281,-0.008 0.507,-0.024 0.687,-0.047 0.188,-0.031 0.352,-0.098 0.5,-0.203 0.156,-0.113 0.305,-0.289 0.453,-0.531 0.157,-0.239 0.348,-0.582 0.578,-1.032 0.094,0 0.192,0.012 0.293,0.016 0.106,0.012 0.211,0.039 0.317,0.078 -0.156,0.617 -0.305,1.219 -0.438,1.813 -0.129,0.586 -0.242,1.164 -0.343,1.734 -0.438,-0.012 -0.907,-0.02 -1.407,-0.031 -0.492,-0.008 -0.984,-0.016 -1.484,-0.016 -0.5,0 -0.996,0 -1.484,0 -0.493,0 -0.95,0 -1.375,0 -0.825,0 -1.516,0 -2.079,0 -0.554,0 -0.976,0.012 -1.265,0.031 -0.074,-0.207 -0.11,-0.422 -0.11,-0.64 1.297,-1 2.391,-1.922 3.266,-2.766 0.875,-0.844 1.578,-1.625 2.109,-2.344 0.532,-0.726 0.907,-1.398 1.125,-2.015 0.227,-0.614 0.344,-1.18 0.344,-1.703 0,-0.489 -0.09,-0.895 -0.25,-1.219 -0.156,-0.332 -0.375,-0.598 -0.656,-0.797 -0.274,-0.207 -0.59,-0.359 -0.953,-0.453 -0.356,-0.094 -0.731,-0.141 -1.11,-0.141 -0.511,0 -1.039,0.09 -1.578,0.266 -0.531,0.18 -1.023,0.433 -1.468,0.765 z"
             style="fill:#000000;fill-opacity:1;fill-rule:nonzero;stroke:none;stroke-width:0.999998"
             id="path266" />
          <path
             d="m 284.633,275.23 c -0.574,0 -1.055,0.157 -1.438,0.469 -0.386,0.305 -0.695,0.719 -0.922,1.25 -0.218,0.524 -0.382,1.125 -0.484,1.813 -0.094,0.679 -0.141,1.398 -0.141,2.156 0,0.512 0.02,1.023 0.063,1.531 0.039,0.512 0.109,1 0.219,1.469 0.097,0.469 0.234,0.906 0.386,1.312 0.168,0.407 0.364,0.762 0.582,1.063 0.227,0.293 0.493,0.527 0.797,0.703 0.313,0.168 0.66,0.25 1.047,0.25 0.563,0 1.035,-0.148 1.422,-0.453 0.383,-0.313 0.691,-0.723 0.922,-1.234 0.234,-0.52 0.406,-1.125 0.5,-1.813 0.102,-0.687 0.156,-1.41 0.156,-2.172 0,-0.519 -0.023,-1.035 -0.062,-1.547 -0.043,-0.519 -0.118,-1.015 -0.219,-1.484 -0.106,-0.469 -0.234,-0.906 -0.395,-1.313 -0.152,-0.406 -0.347,-0.753 -0.574,-1.046 -0.23,-0.301 -0.5,-0.536 -0.812,-0.704 -0.305,-0.164 -0.653,-0.25 -1.047,-0.25 z m 5.203,6 c 0,1.012 -0.117,1.938 -0.344,2.782 -0.219,0.836 -0.547,1.554 -0.984,2.156 -0.442,0.605 -0.981,1.078 -1.61,1.422 -0.636,0.344 -1.371,0.515 -2.187,0.515 -0.867,0 -1.621,-0.171 -2.266,-0.515 -0.648,-0.352 -1.187,-0.836 -1.629,-1.453 -0.425,-0.614 -0.746,-1.336 -0.949,-2.172 -0.215,-0.832 -0.312,-1.738 -0.312,-2.719 0,-0.906 0.097,-1.769 0.312,-2.594 0.203,-0.832 0.52,-1.566 0.938,-2.203 0.425,-0.633 0.961,-1.14 1.609,-1.515 0.645,-0.375 1.406,-0.563 2.297,-0.563 0.937,0 1.727,0.188 2.375,0.563 0.644,0.375 1.172,0.882 1.578,1.515 0.414,0.625 0.711,1.356 0.891,2.188 0.187,0.824 0.281,1.687 0.281,2.593 z"
             style="fill:#000000;fill-opacity:1;fill-rule:nonzero;stroke:none;stroke-width:0.999998"
             id="path268" />
          <path
             d="m 300.711,287.918 c -0.219,0 -0.449,-0.008 -0.688,-0.016 -0.23,-0.007 -0.496,-0.015 -0.796,-0.015 -0.293,-0.008 -0.625,-0.02 -1,-0.032 -0.375,-0.007 -0.813,-0.015 -1.313,-0.015 -0.469,0 -0.891,0.012 -1.266,0.015 -0.375,0.012 -0.718,0.024 -1.031,0.032 -0.312,0 -0.605,0.011 -0.875,0.015 -0.262,0.012 -0.515,0.016 -0.765,0.016 -0.043,-0.258 -0.043,-0.508 0,-0.75 0.718,-0.051 1.269,-0.098 1.656,-0.141 0.383,-0.05 0.664,-0.132 0.844,-0.25 0.175,-0.113 0.281,-0.281 0.312,-0.5 0.027,-0.218 0.047,-0.515 0.047,-0.89 v -8 c 0,-0.301 -0.027,-0.52 -0.078,-0.657 -0.055,-0.132 -0.199,-0.203 -0.442,-0.203 -0.277,0 -0.621,0.028 -1.011,0.078 -0.387,0.043 -0.907,0.141 -1.563,0.297 -0.062,-0.113 -0.109,-0.234 -0.14,-0.359 -0.024,-0.125 -0.04,-0.254 -0.047,-0.391 0.582,-0.144 1.109,-0.285 1.578,-0.422 0.476,-0.144 0.929,-0.285 1.359,-0.421 0.438,-0.145 0.867,-0.297 1.297,-0.454 0.426,-0.164 0.879,-0.343 1.359,-0.531 0.164,0.137 0.29,0.309 0.375,0.516 -0.187,0.211 -0.335,0.523 -0.437,0.937 -0.094,0.407 -0.141,0.914 -0.141,1.516 v 7.859 c 0,0.293 0,0.543 0,0.75 0.008,0.211 0.039,0.387 0.094,0.532 0.051,0.136 0.133,0.246 0.25,0.328 0.113,0.086 0.27,0.152 0.469,0.203 0.207,0.043 0.469,0.078 0.781,0.109 0.313,0.024 0.703,0.047 1.172,0.078 0.031,0.262 0.031,0.516 0,0.766 z"
             style="fill:#000000;fill-opacity:1;fill-rule:nonzero;stroke:none;stroke-width:0.999998"
             id="path270" />
          <path
             d="m 312.945,274.59 c -0.054,0.324 -0.117,0.656 -0.187,1 -0.074,0.344 -0.164,0.683 -0.266,1.015 h -6.312 l -0.5,3.641 c 0.375,-0.07 0.75,-0.125 1.125,-0.156 0.375,-0.039 0.718,-0.063 1.031,-0.063 1.031,0 1.894,0.164 2.594,0.485 0.707,0.312 1.265,0.715 1.687,1.203 0.426,0.48 0.727,1.015 0.906,1.609 0.188,0.586 0.282,1.149 0.282,1.688 0,0.73 -0.094,1.39 -0.282,1.984 -0.187,0.586 -0.445,1.102 -0.765,1.563 -0.324,0.457 -0.699,0.847 -1.125,1.171 -0.418,0.332 -0.86,0.602 -1.328,0.813 -0.461,0.207 -0.934,0.359 -1.422,0.453 -0.481,0.102 -0.938,0.156 -1.375,0.156 -0.5,0 -0.981,-0.054 -1.422,-0.156 -0.438,-0.105 -0.824,-0.258 -1.156,-0.453 -0.336,-0.199 -0.602,-0.434 -0.797,-0.703 -0.199,-0.262 -0.297,-0.555 -0.297,-0.875 0,-0.356 0.094,-0.617 0.281,-0.781 0.188,-0.168 0.406,-0.25 0.656,-0.25 0.157,0 0.329,0.046 0.516,0.14 0.188,0.094 0.363,0.235 0.527,0.422 0.168,0.188 0.321,0.422 0.457,0.703 0.145,0.281 0.254,0.613 0.329,1 0.363,0.063 0.691,0.094 0.984,0.094 0.664,0 1.258,-0.125 1.781,-0.375 0.52,-0.242 0.953,-0.563 1.313,-0.969 0.363,-0.406 0.632,-0.875 0.812,-1.406 0.188,-0.531 0.281,-1.078 0.281,-1.641 0,-0.507 -0.085,-1.007 -0.25,-1.5 -0.156,-0.5 -0.414,-0.937 -0.765,-1.312 -0.344,-0.383 -0.789,-0.692 -1.328,-0.922 -0.543,-0.227 -1.196,-0.344 -1.953,-0.344 -0.356,0 -0.735,0.028 -1.141,0.078 -0.406,0.043 -0.824,0.121 -1.25,0.235 l -0.172,-0.078 1.109,-7.329 z"
             style="fill:#000000;fill-opacity:1;fill-rule:nonzero;stroke:none;stroke-width:0.999998"
             id="path272" />
          <path
             d="m 316.93,270.418 c 3.562,2.5 5.343,6.121 5.343,10.859 0,4.594 -1.781,8.219 -5.343,10.875 l -0.469,-0.484 c 2.656,-2.117 3.984,-5.578 3.984,-10.391 0,-4.8 -1.328,-8.257 -3.984,-10.375 z"
             style="fill:#000000;fill-opacity:1;fill-rule:nonzero;stroke:none;stroke-width:0.999998"
             id="path274" />
        </g>
      </g>
    </g>
  </g>
</svg>
