<?xml version="1.0" encoding="UTF-8" standalone="no"?>
<svg
   xmlns:dc="http://purl.org/dc/elements/1.1/"
   xmlns:cc="http://creativecommons.org/ns#"
   xmlns:rdf="http://www.w3.org/1999/02/22-rdf-syntax-ns#"
   xmlns:svg="http://www.w3.org/2000/svg"
   xmlns="http://www.w3.org/2000/svg"
   xmlns:sodipodi="http://sodipodi.sourceforge.net/DTD/sodipodi-0.dtd"
   xmlns:inkscape="http://www.inkscape.org/namespaces/inkscape"
   width="480"
   height="270"
   viewBox="0 0 1920 1080"
   version="1.1"
   id="svg421"
   sodipodi:docname="A0304-pt-CP.svg"
   inkscape:version="1.0 (4035a4fb49, 2020-05-01)">
  <metadata
     id="metadata425">
    <rdf:RDF>
      <cc:Work
         rdf:about="">
        <dc:format>image/svg+xml</dc:format>
        <dc:type
           rdf:resource="http://purl.org/dc/dcmitype/StillImage" />
      </cc:Work>
    </rdf:RDF>
  </metadata>
  <sodipodi:namedview
     inkscape:document-rotation="0"
     pagecolor="#ffffff"
     bordercolor="#666666"
     borderopacity="1"
     objecttolerance="10"
     gridtolerance="10"
     guidetolerance="10"
     inkscape:pageopacity="0"
     inkscape:pageshadow="2"
     inkscape:window-width="640"
     inkscape:window-height="480"
     id="namedview423"
     showgrid="false"
     inkscape:zoom="2.6041667"
     inkscape:cx="240"
     inkscape:cy="135"
     inkscape:current-layer="svg421" />
  <defs
     id="defs5">
    <clipPath
       id="clip080">
      <rect
         x="0"
         y="0"
         width="1920"
         height="1080"
         id="rect2" />
    </clipPath>
  </defs>
  <defs
     id="defs12">
    <clipPath
       id="clip081">
      <rect
         x="384"
         y="0"
         width="1345"
         height="1080"
         id="rect9" />
    </clipPath>
  </defs>
  <defs
     id="defs19">
    <clipPath
       id="clip082">
      <rect
         x="164"
         y="47"
         width="1709"
         height="875"
         id="rect16" />
    </clipPath>
  </defs>
  <polyline
     clip-path="url(#clip082)"
     style="stroke:#000000; stroke-width:2.4; stroke-opacity:0.1; fill:none"
     points="   344.209,920.786 344.209,47.2441    "
     id="polyline21" />
  <polyline
     clip-path="url(#clip082)"
     style="stroke:#000000; stroke-width:2.4; stroke-opacity:0.1; fill:none"
     points="   568.995,920.786 568.995,47.2441    "
     id="polyline23" />
  <polyline
     clip-path="url(#clip082)"
     style="stroke:#000000; stroke-width:2.4; stroke-opacity:0.1; fill:none"
     points="   793.782,920.786 793.782,47.2441    "
     id="polyline25" />
  <polyline
     clip-path="url(#clip082)"
     style="stroke:#000000; stroke-width:2.4; stroke-opacity:0.1; fill:none"
     points="   1018.57,920.786 1018.57,47.2441    "
     id="polyline27" />
  <polyline
     clip-path="url(#clip082)"
     style="stroke:#000000; stroke-width:2.4; stroke-opacity:0.1; fill:none"
     points="   1243.35,920.786 1243.35,47.2441    "
     id="polyline29" />
  <polyline
     clip-path="url(#clip082)"
     style="stroke:#000000; stroke-width:2.4; stroke-opacity:0.1; fill:none"
     points="   1468.14,920.786 1468.14,47.2441    "
     id="polyline31" />
  <polyline
     clip-path="url(#clip082)"
     style="stroke:#000000; stroke-width:2.4; stroke-opacity:0.1; fill:none"
     points="   1692.93,920.786 1692.93,47.2441    "
     id="polyline33" />
  <polyline
     clip-path="url(#clip082)"
     style="stroke:#000000; stroke-width:2.4; stroke-opacity:0.1; fill:none"
     points="   164.38,920.786 1872.76,920.786    "
     id="polyline35" />
  <polyline
     clip-path="url(#clip082)"
     style="stroke:#000000; stroke-width:2.4; stroke-opacity:0.1; fill:none"
     points="   164.38,775.196 1872.76,775.196    "
     id="polyline37" />
  <polyline
     clip-path="url(#clip082)"
     style="stroke:#000000; stroke-width:2.4; stroke-opacity:0.1; fill:none"
     points="   164.38,629.606 1872.76,629.606    "
     id="polyline39" />
  <polyline
     clip-path="url(#clip082)"
     style="stroke:#000000; stroke-width:2.4; stroke-opacity:0.1; fill:none"
     points="   164.38,484.015 1872.76,484.015    "
     id="polyline41" />
  <polyline
     clip-path="url(#clip082)"
     style="stroke:#000000; stroke-width:2.4; stroke-opacity:0.1; fill:none"
     points="   164.38,338.425 1872.76,338.425    "
     id="polyline43" />
  <polyline
     clip-path="url(#clip082)"
     style="stroke:#000000; stroke-width:2.4; stroke-opacity:0.1; fill:none"
     points="   164.38,192.834 1872.76,192.834    "
     id="polyline45" />
  <polyline
     clip-path="url(#clip082)"
     style="stroke:#000000; stroke-width:2.4; stroke-opacity:0.1; fill:none"
     points="   164.38,47.2441 1872.76,47.2441    "
     id="polyline47" />
  <polyline
     clip-path="url(#clip082)"
     style="stroke:#000000; stroke-width:2; stroke-opacity:0.05; fill:none"
     points="   164.38,920.786 164.38,47.2441    "
     id="polyline49" />
  <polyline
     clip-path="url(#clip082)"
     style="stroke:#000000; stroke-width:2; stroke-opacity:0.05; fill:none"
     points="   209.337,920.786 209.337,47.2441    "
     id="polyline51" />
  <polyline
     clip-path="url(#clip082)"
     style="stroke:#000000; stroke-width:2; stroke-opacity:0.05; fill:none"
     points="   254.295,920.786 254.295,47.2441    "
     id="polyline53" />
  <polyline
     clip-path="url(#clip082)"
     style="stroke:#000000; stroke-width:2; stroke-opacity:0.05; fill:none"
     points="   299.252,920.786 299.252,47.2441    "
     id="polyline55" />
  <polyline
     clip-path="url(#clip082)"
     style="stroke:#000000; stroke-width:2; stroke-opacity:0.05; fill:none"
     points="   389.166,920.786 389.166,47.2441    "
     id="polyline57" />
  <polyline
     clip-path="url(#clip082)"
     style="stroke:#000000; stroke-width:2; stroke-opacity:0.05; fill:none"
     points="   434.124,920.786 434.124,47.2441    "
     id="polyline59" />
  <polyline
     clip-path="url(#clip082)"
     style="stroke:#000000; stroke-width:2; stroke-opacity:0.05; fill:none"
     points="   479.081,920.786 479.081,47.2441    "
     id="polyline61" />
  <polyline
     clip-path="url(#clip082)"
     style="stroke:#000000; stroke-width:2; stroke-opacity:0.05; fill:none"
     points="   524.038,920.786 524.038,47.2441    "
     id="polyline63" />
  <polyline
     clip-path="url(#clip082)"
     style="stroke:#000000; stroke-width:2; stroke-opacity:0.05; fill:none"
     points="   613.953,920.786 613.953,47.2441    "
     id="polyline65" />
  <polyline
     clip-path="url(#clip082)"
     style="stroke:#000000; stroke-width:2; stroke-opacity:0.05; fill:none"
     points="   658.91,920.786 658.91,47.2441    "
     id="polyline67" />
  <polyline
     clip-path="url(#clip082)"
     style="stroke:#000000; stroke-width:2; stroke-opacity:0.05; fill:none"
     points="   703.867,920.786 703.867,47.2441    "
     id="polyline69" />
  <polyline
     clip-path="url(#clip082)"
     style="stroke:#000000; stroke-width:2; stroke-opacity:0.05; fill:none"
     points="   748.824,920.786 748.824,47.2441    "
     id="polyline71" />
  <polyline
     clip-path="url(#clip082)"
     style="stroke:#000000; stroke-width:2; stroke-opacity:0.05; fill:none"
     points="   838.739,920.786 838.739,47.2441    "
     id="polyline73" />
  <polyline
     clip-path="url(#clip082)"
     style="stroke:#000000; stroke-width:2; stroke-opacity:0.05; fill:none"
     points="   883.696,920.786 883.696,47.2441    "
     id="polyline75" />
  <polyline
     clip-path="url(#clip082)"
     style="stroke:#000000; stroke-width:2; stroke-opacity:0.05; fill:none"
     points="   928.654,920.786 928.654,47.2441    "
     id="polyline77" />
  <polyline
     clip-path="url(#clip082)"
     style="stroke:#000000; stroke-width:2; stroke-opacity:0.05; fill:none"
     points="   973.611,920.786 973.611,47.2441    "
     id="polyline79" />
  <polyline
     clip-path="url(#clip082)"
     style="stroke:#000000; stroke-width:2; stroke-opacity:0.05; fill:none"
     points="   1063.53,920.786 1063.53,47.2441    "
     id="polyline81" />
  <polyline
     clip-path="url(#clip082)"
     style="stroke:#000000; stroke-width:2; stroke-opacity:0.05; fill:none"
     points="   1108.48,920.786 1108.48,47.2441    "
     id="polyline83" />
  <polyline
     clip-path="url(#clip082)"
     style="stroke:#000000; stroke-width:2; stroke-opacity:0.05; fill:none"
     points="   1153.44,920.786 1153.44,47.2441    "
     id="polyline85" />
  <polyline
     clip-path="url(#clip082)"
     style="stroke:#000000; stroke-width:2; stroke-opacity:0.05; fill:none"
     points="   1198.4,920.786 1198.4,47.2441    "
     id="polyline87" />
  <polyline
     clip-path="url(#clip082)"
     style="stroke:#000000; stroke-width:2; stroke-opacity:0.05; fill:none"
     points="   1288.31,920.786 1288.31,47.2441    "
     id="polyline89" />
  <polyline
     clip-path="url(#clip082)"
     style="stroke:#000000; stroke-width:2; stroke-opacity:0.05; fill:none"
     points="   1333.27,920.786 1333.27,47.2441    "
     id="polyline91" />
  <polyline
     clip-path="url(#clip082)"
     style="stroke:#000000; stroke-width:2; stroke-opacity:0.05; fill:none"
     points="   1378.23,920.786 1378.23,47.2441    "
     id="polyline93" />
  <polyline
     clip-path="url(#clip082)"
     style="stroke:#000000; stroke-width:2; stroke-opacity:0.05; fill:none"
     points="   1423.18,920.786 1423.18,47.2441    "
     id="polyline95" />
  <polyline
     clip-path="url(#clip082)"
     style="stroke:#000000; stroke-width:2; stroke-opacity:0.05; fill:none"
     points="   1513.1,920.786 1513.1,47.2441    "
     id="polyline97" />
  <polyline
     clip-path="url(#clip082)"
     style="stroke:#000000; stroke-width:2; stroke-opacity:0.05; fill:none"
     points="   1558.06,920.786 1558.06,47.2441    "
     id="polyline99" />
  <polyline
     clip-path="url(#clip082)"
     style="stroke:#000000; stroke-width:2; stroke-opacity:0.05; fill:none"
     points="   1603.01,920.786 1603.01,47.2441    "
     id="polyline101" />
  <polyline
     clip-path="url(#clip082)"
     style="stroke:#000000; stroke-width:2; stroke-opacity:0.05; fill:none"
     points="   1647.97,920.786 1647.97,47.2441    "
     id="polyline103" />
  <polyline
     clip-path="url(#clip082)"
     style="stroke:#000000; stroke-width:2; stroke-opacity:0.05; fill:none"
     points="   1737.88,920.786 1737.88,47.2441    "
     id="polyline105" />
  <polyline
     clip-path="url(#clip082)"
     style="stroke:#000000; stroke-width:2; stroke-opacity:0.05; fill:none"
     points="   1782.84,920.786 1782.84,47.2441    "
     id="polyline107" />
  <polyline
     clip-path="url(#clip082)"
     style="stroke:#000000; stroke-width:2; stroke-opacity:0.05; fill:none"
     points="   1827.8,920.786 1827.8,47.2441    "
     id="polyline109" />
  <polyline
     clip-path="url(#clip082)"
     style="stroke:#000000; stroke-width:2; stroke-opacity:0.05; fill:none"
     points="   1872.76,920.786 1872.76,47.2441    "
     id="polyline111" />
  <polyline
     clip-path="url(#clip082)"
     style="stroke:#000000; stroke-width:2; stroke-opacity:0.05; fill:none"
     points="   164.38,891.668 1872.76,891.668    "
     id="polyline113" />
  <polyline
     clip-path="url(#clip082)"
     style="stroke:#000000; stroke-width:2; stroke-opacity:0.05; fill:none"
     points="   164.38,862.55 1872.76,862.55    "
     id="polyline115" />
  <polyline
     clip-path="url(#clip082)"
     style="stroke:#000000; stroke-width:2; stroke-opacity:0.05; fill:none"
     points="   164.38,833.432 1872.76,833.432    "
     id="polyline117" />
  <polyline
     clip-path="url(#clip082)"
     style="stroke:#000000; stroke-width:2; stroke-opacity:0.05; fill:none"
     points="   164.38,804.314 1872.76,804.314    "
     id="polyline119" />
  <polyline
     clip-path="url(#clip082)"
     style="stroke:#000000; stroke-width:2; stroke-opacity:0.05; fill:none"
     points="   164.38,746.078 1872.76,746.078    "
     id="polyline121" />
  <polyline
     clip-path="url(#clip082)"
     style="stroke:#000000; stroke-width:2; stroke-opacity:0.05; fill:none"
     points="   164.38,716.96 1872.76,716.96    "
     id="polyline123" />
  <polyline
     clip-path="url(#clip082)"
     style="stroke:#000000; stroke-width:2; stroke-opacity:0.05; fill:none"
     points="   164.38,687.842 1872.76,687.842    "
     id="polyline125" />
  <polyline
     clip-path="url(#clip082)"
     style="stroke:#000000; stroke-width:2; stroke-opacity:0.05; fill:none"
     points="   164.38,658.724 1872.76,658.724    "
     id="polyline127" />
  <polyline
     clip-path="url(#clip082)"
     style="stroke:#000000; stroke-width:2; stroke-opacity:0.05; fill:none"
     points="   164.38,600.488 1872.76,600.488    "
     id="polyline129" />
  <polyline
     clip-path="url(#clip082)"
     style="stroke:#000000; stroke-width:2; stroke-opacity:0.05; fill:none"
     points="   164.38,571.369 1872.76,571.369    "
     id="polyline131" />
  <polyline
     clip-path="url(#clip082)"
     style="stroke:#000000; stroke-width:2; stroke-opacity:0.05; fill:none"
     points="   164.38,542.251 1872.76,542.251    "
     id="polyline133" />
  <polyline
     clip-path="url(#clip082)"
     style="stroke:#000000; stroke-width:2; stroke-opacity:0.05; fill:none"
     points="   164.38,513.133 1872.76,513.133    "
     id="polyline135" />
  <polyline
     clip-path="url(#clip082)"
     style="stroke:#000000; stroke-width:2; stroke-opacity:0.05; fill:none"
     points="   164.38,454.897 1872.76,454.897    "
     id="polyline137" />
  <polyline
     clip-path="url(#clip082)"
     style="stroke:#000000; stroke-width:2; stroke-opacity:0.05; fill:none"
     points="   164.38,425.779 1872.76,425.779    "
     id="polyline139" />
  <polyline
     clip-path="url(#clip082)"
     style="stroke:#000000; stroke-width:2; stroke-opacity:0.05; fill:none"
     points="   164.38,396.661 1872.76,396.661    "
     id="polyline141" />
  <polyline
     clip-path="url(#clip082)"
     style="stroke:#000000; stroke-width:2; stroke-opacity:0.05; fill:none"
     points="   164.38,367.543 1872.76,367.543    "
     id="polyline143" />
  <polyline
     clip-path="url(#clip082)"
     style="stroke:#000000; stroke-width:2; stroke-opacity:0.05; fill:none"
     points="   164.38,309.307 1872.76,309.307    "
     id="polyline145" />
  <polyline
     clip-path="url(#clip082)"
     style="stroke:#000000; stroke-width:2; stroke-opacity:0.05; fill:none"
     points="   164.38,280.189 1872.76,280.189    "
     id="polyline147" />
  <polyline
     clip-path="url(#clip082)"
     style="stroke:#000000; stroke-width:2; stroke-opacity:0.05; fill:none"
     points="   164.38,251.071 1872.76,251.071    "
     id="polyline149" />
  <polyline
     clip-path="url(#clip082)"
     style="stroke:#000000; stroke-width:2; stroke-opacity:0.05; fill:none"
     points="   164.38,221.953 1872.76,221.953    "
     id="polyline151" />
  <polyline
     clip-path="url(#clip082)"
     style="stroke:#000000; stroke-width:2; stroke-opacity:0.05; fill:none"
     points="   164.38,163.716 1872.76,163.716    "
     id="polyline153" />
  <polyline
     clip-path="url(#clip082)"
     style="stroke:#000000; stroke-width:2; stroke-opacity:0.05; fill:none"
     points="   164.38,134.598 1872.76,134.598    "
     id="polyline155" />
  <polyline
     clip-path="url(#clip082)"
     style="stroke:#000000; stroke-width:2; stroke-opacity:0.05; fill:none"
     points="   164.38,105.48 1872.76,105.48    "
     id="polyline157" />
  <polyline
     clip-path="url(#clip082)"
     style="stroke:#000000; stroke-width:2; stroke-opacity:0.05; fill:none"
     points="   164.38,76.3622 1872.76,76.3622    "
     id="polyline159" />
  <polyline
     clip-path="url(#clip080)"
     style="stroke:#000000; stroke-width:4; stroke-opacity:1; fill:none"
     points="   164.38,920.786 1872.76,920.786    "
     id="polyline161" />
  <polyline
     clip-path="url(#clip080)"
     style="stroke:#000000; stroke-width:4; stroke-opacity:1; fill:none"
     points="   164.38,920.786 164.38,47.2441    "
     id="polyline163" />
  <polyline
     clip-path="url(#clip080)"
     style="stroke:#000000; stroke-width:4; stroke-opacity:1; fill:none"
     points="   344.209,920.786 344.209,910.304    "
     id="polyline165" />
  <polyline
     clip-path="url(#clip080)"
     style="stroke:#000000; stroke-width:4; stroke-opacity:1; fill:none"
     points="   568.995,920.786 568.995,910.304    "
     id="polyline167" />
  <polyline
     clip-path="url(#clip080)"
     style="stroke:#000000; stroke-width:4; stroke-opacity:1; fill:none"
     points="   793.782,920.786 793.782,910.304    "
     id="polyline169" />
  <polyline
     clip-path="url(#clip080)"
     style="stroke:#000000; stroke-width:4; stroke-opacity:1; fill:none"
     points="   1018.57,920.786 1018.57,910.304    "
     id="polyline171" />
  <polyline
     clip-path="url(#clip080)"
     style="stroke:#000000; stroke-width:4; stroke-opacity:1; fill:none"
     points="   1243.35,920.786 1243.35,910.304    "
     id="polyline173" />
  <polyline
     clip-path="url(#clip080)"
     style="stroke:#000000; stroke-width:4; stroke-opacity:1; fill:none"
     points="   1468.14,920.786 1468.14,910.304    "
     id="polyline175" />
  <polyline
     clip-path="url(#clip080)"
     style="stroke:#000000; stroke-width:4; stroke-opacity:1; fill:none"
     points="   1692.93,920.786 1692.93,910.304    "
     id="polyline177" />
  <polyline
     clip-path="url(#clip080)"
     style="stroke:#000000; stroke-width:4; stroke-opacity:1; fill:none"
     points="   164.38,920.786 164.38,915.545    "
     id="polyline179" />
  <polyline
     clip-path="url(#clip080)"
     style="stroke:#000000; stroke-width:4; stroke-opacity:1; fill:none"
     points="   209.337,920.786 209.337,915.545    "
     id="polyline181" />
  <polyline
     clip-path="url(#clip080)"
     style="stroke:#000000; stroke-width:4; stroke-opacity:1; fill:none"
     points="   254.295,920.786 254.295,915.545    "
     id="polyline183" />
  <polyline
     clip-path="url(#clip080)"
     style="stroke:#000000; stroke-width:4; stroke-opacity:1; fill:none"
     points="   299.252,920.786 299.252,915.545    "
     id="polyline185" />
  <polyline
     clip-path="url(#clip080)"
     style="stroke:#000000; stroke-width:4; stroke-opacity:1; fill:none"
     points="   389.166,920.786 389.166,915.545    "
     id="polyline187" />
  <polyline
     clip-path="url(#clip080)"
     style="stroke:#000000; stroke-width:4; stroke-opacity:1; fill:none"
     points="   434.124,920.786 434.124,915.545    "
     id="polyline189" />
  <polyline
     clip-path="url(#clip080)"
     style="stroke:#000000; stroke-width:4; stroke-opacity:1; fill:none"
     points="   479.081,920.786 479.081,915.545    "
     id="polyline191" />
  <polyline
     clip-path="url(#clip080)"
     style="stroke:#000000; stroke-width:4; stroke-opacity:1; fill:none"
     points="   524.038,920.786 524.038,915.545    "
     id="polyline193" />
  <polyline
     clip-path="url(#clip080)"
     style="stroke:#000000; stroke-width:4; stroke-opacity:1; fill:none"
     points="   613.953,920.786 613.953,915.545    "
     id="polyline195" />
  <polyline
     clip-path="url(#clip080)"
     style="stroke:#000000; stroke-width:4; stroke-opacity:1; fill:none"
     points="   658.91,920.786 658.91,915.545    "
     id="polyline197" />
  <polyline
     clip-path="url(#clip080)"
     style="stroke:#000000; stroke-width:4; stroke-opacity:1; fill:none"
     points="   703.867,920.786 703.867,915.545    "
     id="polyline199" />
  <polyline
     clip-path="url(#clip080)"
     style="stroke:#000000; stroke-width:4; stroke-opacity:1; fill:none"
     points="   748.824,920.786 748.824,915.545    "
     id="polyline201" />
  <polyline
     clip-path="url(#clip080)"
     style="stroke:#000000; stroke-width:4; stroke-opacity:1; fill:none"
     points="   838.739,920.786 838.739,915.545    "
     id="polyline203" />
  <polyline
     clip-path="url(#clip080)"
     style="stroke:#000000; stroke-width:4; stroke-opacity:1; fill:none"
     points="   883.696,920.786 883.696,915.545    "
     id="polyline205" />
  <polyline
     clip-path="url(#clip080)"
     style="stroke:#000000; stroke-width:4; stroke-opacity:1; fill:none"
     points="   928.654,920.786 928.654,915.545    "
     id="polyline207" />
  <polyline
     clip-path="url(#clip080)"
     style="stroke:#000000; stroke-width:4; stroke-opacity:1; fill:none"
     points="   973.611,920.786 973.611,915.545    "
     id="polyline209" />
  <polyline
     clip-path="url(#clip080)"
     style="stroke:#000000; stroke-width:4; stroke-opacity:1; fill:none"
     points="   1063.53,920.786 1063.53,915.545    "
     id="polyline211" />
  <polyline
     clip-path="url(#clip080)"
     style="stroke:#000000; stroke-width:4; stroke-opacity:1; fill:none"
     points="   1108.48,920.786 1108.48,915.545    "
     id="polyline213" />
  <polyline
     clip-path="url(#clip080)"
     style="stroke:#000000; stroke-width:4; stroke-opacity:1; fill:none"
     points="   1153.44,920.786 1153.44,915.545    "
     id="polyline215" />
  <polyline
     clip-path="url(#clip080)"
     style="stroke:#000000; stroke-width:4; stroke-opacity:1; fill:none"
     points="   1198.4,920.786 1198.4,915.545    "
     id="polyline217" />
  <polyline
     clip-path="url(#clip080)"
     style="stroke:#000000; stroke-width:4; stroke-opacity:1; fill:none"
     points="   1288.31,920.786 1288.31,915.545    "
     id="polyline219" />
  <polyline
     clip-path="url(#clip080)"
     style="stroke:#000000; stroke-width:4; stroke-opacity:1; fill:none"
     points="   1333.27,920.786 1333.27,915.545    "
     id="polyline221" />
  <polyline
     clip-path="url(#clip080)"
     style="stroke:#000000; stroke-width:4; stroke-opacity:1; fill:none"
     points="   1378.23,920.786 1378.23,915.545    "
     id="polyline223" />
  <polyline
     clip-path="url(#clip080)"
     style="stroke:#000000; stroke-width:4; stroke-opacity:1; fill:none"
     points="   1423.18,920.786 1423.18,915.545    "
     id="polyline225" />
  <polyline
     clip-path="url(#clip080)"
     style="stroke:#000000; stroke-width:4; stroke-opacity:1; fill:none"
     points="   1513.1,920.786 1513.1,915.545    "
     id="polyline227" />
  <polyline
     clip-path="url(#clip080)"
     style="stroke:#000000; stroke-width:4; stroke-opacity:1; fill:none"
     points="   1558.06,920.786 1558.06,915.545    "
     id="polyline229" />
  <polyline
     clip-path="url(#clip080)"
     style="stroke:#000000; stroke-width:4; stroke-opacity:1; fill:none"
     points="   1603.01,920.786 1603.01,915.545    "
     id="polyline231" />
  <polyline
     clip-path="url(#clip080)"
     style="stroke:#000000; stroke-width:4; stroke-opacity:1; fill:none"
     points="   1647.97,920.786 1647.97,915.545    "
     id="polyline233" />
  <polyline
     clip-path="url(#clip080)"
     style="stroke:#000000; stroke-width:4; stroke-opacity:1; fill:none"
     points="   1737.88,920.786 1737.88,915.545    "
     id="polyline235" />
  <polyline
     clip-path="url(#clip080)"
     style="stroke:#000000; stroke-width:4; stroke-opacity:1; fill:none"
     points="   1782.84,920.786 1782.84,915.545    "
     id="polyline237" />
  <polyline
     clip-path="url(#clip080)"
     style="stroke:#000000; stroke-width:4; stroke-opacity:1; fill:none"
     points="   1827.8,920.786 1827.8,915.545    "
     id="polyline239" />
  <polyline
     clip-path="url(#clip080)"
     style="stroke:#000000; stroke-width:4; stroke-opacity:1; fill:none"
     points="   1872.76,920.786 1872.76,915.545    "
     id="polyline241" />
  <polyline
     clip-path="url(#clip080)"
     style="stroke:#000000; stroke-width:4; stroke-opacity:1; fill:none"
     points="   164.38,920.786 184.881,920.786    "
     id="polyline243" />
  <polyline
     clip-path="url(#clip080)"
     style="stroke:#000000; stroke-width:4; stroke-opacity:1; fill:none"
     points="   164.38,775.196 184.881,775.196    "
     id="polyline245" />
  <polyline
     clip-path="url(#clip080)"
     style="stroke:#000000; stroke-width:4; stroke-opacity:1; fill:none"
     points="   164.38,629.606 184.881,629.606    "
     id="polyline247" />
  <polyline
     clip-path="url(#clip080)"
     style="stroke:#000000; stroke-width:4; stroke-opacity:1; fill:none"
     points="   164.38,484.015 184.881,484.015    "
     id="polyline249" />
  <polyline
     clip-path="url(#clip080)"
     style="stroke:#000000; stroke-width:4; stroke-opacity:1; fill:none"
     points="   164.38,338.425 184.881,338.425    "
     id="polyline251" />
  <polyline
     clip-path="url(#clip080)"
     style="stroke:#000000; stroke-width:4; stroke-opacity:1; fill:none"
     points="   164.38,192.834 184.881,192.834    "
     id="polyline253" />
  <polyline
     clip-path="url(#clip080)"
     style="stroke:#000000; stroke-width:4; stroke-opacity:1; fill:none"
     points="   164.38,47.2441 184.881,47.2441    "
     id="polyline255" />
  <polyline
     clip-path="url(#clip080)"
     style="stroke:#000000; stroke-width:4; stroke-opacity:1; fill:none"
     points="   164.38,891.668 174.63,891.668    "
     id="polyline257" />
  <polyline
     clip-path="url(#clip080)"
     style="stroke:#000000; stroke-width:4; stroke-opacity:1; fill:none"
     points="   164.38,862.55 174.63,862.55    "
     id="polyline259" />
  <polyline
     clip-path="url(#clip080)"
     style="stroke:#000000; stroke-width:4; stroke-opacity:1; fill:none"
     points="   164.38,833.432 174.63,833.432    "
     id="polyline261" />
  <polyline
     clip-path="url(#clip080)"
     style="stroke:#000000; stroke-width:4; stroke-opacity:1; fill:none"
     points="   164.38,804.314 174.63,804.314    "
     id="polyline263" />
  <polyline
     clip-path="url(#clip080)"
     style="stroke:#000000; stroke-width:4; stroke-opacity:1; fill:none"
     points="   164.38,746.078 174.63,746.078    "
     id="polyline265" />
  <polyline
     clip-path="url(#clip080)"
     style="stroke:#000000; stroke-width:4; stroke-opacity:1; fill:none"
     points="   164.38,716.96 174.63,716.96    "
     id="polyline267" />
  <polyline
     clip-path="url(#clip080)"
     style="stroke:#000000; stroke-width:4; stroke-opacity:1; fill:none"
     points="   164.38,687.842 174.63,687.842    "
     id="polyline269" />
  <polyline
     clip-path="url(#clip080)"
     style="stroke:#000000; stroke-width:4; stroke-opacity:1; fill:none"
     points="   164.38,658.724 174.63,658.724    "
     id="polyline271" />
  <polyline
     clip-path="url(#clip080)"
     style="stroke:#000000; stroke-width:4; stroke-opacity:1; fill:none"
     points="   164.38,600.488 174.63,600.488    "
     id="polyline273" />
  <polyline
     clip-path="url(#clip080)"
     style="stroke:#000000; stroke-width:4; stroke-opacity:1; fill:none"
     points="   164.38,571.369 174.63,571.369    "
     id="polyline275" />
  <polyline
     clip-path="url(#clip080)"
     style="stroke:#000000; stroke-width:4; stroke-opacity:1; fill:none"
     points="   164.38,542.251 174.63,542.251    "
     id="polyline277" />
  <polyline
     clip-path="url(#clip080)"
     style="stroke:#000000; stroke-width:4; stroke-opacity:1; fill:none"
     points="   164.38,513.133 174.63,513.133    "
     id="polyline279" />
  <polyline
     clip-path="url(#clip080)"
     style="stroke:#000000; stroke-width:4; stroke-opacity:1; fill:none"
     points="   164.38,454.897 174.63,454.897    "
     id="polyline281" />
  <polyline
     clip-path="url(#clip080)"
     style="stroke:#000000; stroke-width:4; stroke-opacity:1; fill:none"
     points="   164.38,425.779 174.63,425.779    "
     id="polyline283" />
  <polyline
     clip-path="url(#clip080)"
     style="stroke:#000000; stroke-width:4; stroke-opacity:1; fill:none"
     points="   164.38,396.661 174.63,396.661    "
     id="polyline285" />
  <polyline
     clip-path="url(#clip080)"
     style="stroke:#000000; stroke-width:4; stroke-opacity:1; fill:none"
     points="   164.38,367.543 174.63,367.543    "
     id="polyline287" />
  <polyline
     clip-path="url(#clip080)"
     style="stroke:#000000; stroke-width:4; stroke-opacity:1; fill:none"
     points="   164.38,309.307 174.63,309.307    "
     id="polyline289" />
  <polyline
     clip-path="url(#clip080)"
     style="stroke:#000000; stroke-width:4; stroke-opacity:1; fill:none"
     points="   164.38,280.189 174.63,280.189    "
     id="polyline291" />
  <polyline
     clip-path="url(#clip080)"
     style="stroke:#000000; stroke-width:4; stroke-opacity:1; fill:none"
     points="   164.38,251.071 174.63,251.071    "
     id="polyline293" />
  <polyline
     clip-path="url(#clip080)"
     style="stroke:#000000; stroke-width:4; stroke-opacity:1; fill:none"
     points="   164.38,221.953 174.63,221.953    "
     id="polyline295" />
  <polyline
     clip-path="url(#clip080)"
     style="stroke:#000000; stroke-width:4; stroke-opacity:1; fill:none"
     points="   164.38,163.716 174.63,163.716    "
     id="polyline297" />
  <polyline
     clip-path="url(#clip080)"
     style="stroke:#000000; stroke-width:4; stroke-opacity:1; fill:none"
     points="   164.38,134.598 174.63,134.598    "
     id="polyline299" />
  <polyline
     clip-path="url(#clip080)"
     style="stroke:#000000; stroke-width:4; stroke-opacity:1; fill:none"
     points="   164.38,105.48 174.63,105.48    "
     id="polyline301" />
  <polyline
     clip-path="url(#clip080)"
     style="stroke:#000000; stroke-width:4; stroke-opacity:1; fill:none"
     points="   164.38,76.3622 174.63,76.3622    "
     id="polyline303" />
  <g
     clip-path="url(#clip080)"
     id="g307">
    <text
       style="fill:#000000; fill-opacity:1; font-family:Times New Roman,TimesNewRoman,Times,Baskerville,Georgia,serif; font-size:53px; text-anchor:middle;"
       transform="rotate(0, 344.209, 972.386)"
       x="344.209"
       y="972.386"
       id="text305">500</text>
  </g>
  <g
     clip-path="url(#clip080)"
     id="g311">
    <text
       style="fill:#000000; fill-opacity:1; font-family:Times New Roman,TimesNewRoman,Times,Baskerville,Georgia,serif; font-size:53px; text-anchor:middle;"
       transform="rotate(0, 568.995, 972.386)"
       x="568.995"
       y="972.386"
       id="text309">1000</text>
  </g>
  <g
     clip-path="url(#clip080)"
     id="g315">
    <text
       style="fill:#000000; fill-opacity:1; font-family:Times New Roman,TimesNewRoman,Times,Baskerville,Georgia,serif; font-size:53px; text-anchor:middle;"
       transform="rotate(0, 793.782, 972.386)"
       x="793.782"
       y="972.386"
       id="text313">1500</text>
  </g>
  <g
     clip-path="url(#clip080)"
     id="g319">
    <text
       style="fill:#000000; fill-opacity:1; font-family:Times New Roman,TimesNewRoman,Times,Baskerville,Georgia,serif; font-size:53px; text-anchor:middle;"
       transform="rotate(0, 1018.57, 972.386)"
       x="1018.57"
       y="972.386"
       id="text317">2000</text>
  </g>
  <g
     clip-path="url(#clip080)"
     id="g323">
    <text
       style="fill:#000000; fill-opacity:1; font-family:Times New Roman,TimesNewRoman,Times,Baskerville,Georgia,serif; font-size:53px; text-anchor:middle;"
       transform="rotate(0, 1243.35, 972.386)"
       x="1243.35"
       y="972.386"
       id="text321">2500</text>
  </g>
  <g
     clip-path="url(#clip080)"
     id="g327">
    <text
       style="fill:#000000; fill-opacity:1; font-family:Times New Roman,TimesNewRoman,Times,Baskerville,Georgia,serif; font-size:53px; text-anchor:middle;"
       transform="rotate(0, 1468.14, 972.386)"
       x="1468.14"
       y="972.386"
       id="text325">3000</text>
  </g>
  <g
     clip-path="url(#clip080)"
     id="g331">
    <text
       style="fill:#000000; fill-opacity:1; font-family:Times New Roman,TimesNewRoman,Times,Baskerville,Georgia,serif; font-size:53px; text-anchor:middle;"
       transform="rotate(0, 1692.93, 972.386)"
       x="1692.93"
       y="972.386"
       id="text329">3500</text>
  </g>
  <g
     clip-path="url(#clip080)"
     id="g335">
    <text
       style="fill:#000000; fill-opacity:1; font-family:Times New Roman,TimesNewRoman,Times,Baskerville,Georgia,serif; font-size:53px; text-anchor:end;"
       transform="rotate(0, 145.18, 938.286)"
       x="145.18"
       y="938.286"
       id="text333">2</text>
  </g>
  <g
     clip-path="url(#clip080)"
     id="g339">
    <text
       style="fill:#000000; fill-opacity:1; font-family:Times New Roman,TimesNewRoman,Times,Baskerville,Georgia,serif; font-size:53px; text-anchor:end;"
       transform="rotate(0, 145.18, 792.696)"
       x="145.18"
       y="792.696"
       id="text337">3</text>
  </g>
  <g
     clip-path="url(#clip080)"
     id="g343">
    <text
       style="fill:#000000; fill-opacity:1; font-family:Times New Roman,TimesNewRoman,Times,Baskerville,Georgia,serif; font-size:53px; text-anchor:end;"
       transform="rotate(0, 145.18, 647.106)"
       x="145.18"
       y="647.106"
       id="text341">4</text>
  </g>
  <g
     clip-path="url(#clip080)"
     id="g347">
    <text
       style="fill:#000000; fill-opacity:1; font-family:Times New Roman,TimesNewRoman,Times,Baskerville,Georgia,serif; font-size:53px; text-anchor:end;"
       transform="rotate(0, 145.18, 501.515)"
       x="145.18"
       y="501.515"
       id="text345">5</text>
  </g>
  <g
     clip-path="url(#clip080)"
     id="g351">
    <text
       style="fill:#000000; fill-opacity:1; font-family:Times New Roman,TimesNewRoman,Times,Baskerville,Georgia,serif; font-size:53px; text-anchor:end;"
       transform="rotate(0, 145.18, 355.925)"
       x="145.18"
       y="355.925"
       id="text349">6</text>
  </g>
  <g
     clip-path="url(#clip080)"
     id="g355">
    <text
       style="fill:#000000; fill-opacity:1; font-family:Times New Roman,TimesNewRoman,Times,Baskerville,Georgia,serif; font-size:53px; text-anchor:end;"
       transform="rotate(0, 145.18, 210.334)"
       x="145.18"
       y="210.334"
       id="text353">7</text>
  </g>
  <g
     clip-path="url(#clip080)"
     id="g359">
    <text
       style="fill:#000000; fill-opacity:1; font-family:Times New Roman,TimesNewRoman,Times,Baskerville,Georgia,serif; font-size:53px; text-anchor:end;"
       transform="rotate(0, 145.18, 64.7441)"
       x="145.18"
       y="64.7441"
       id="text357">8</text>
  </g>
  <polyline
     clip-path="url(#clip082)"
     style="stroke:#009af9; stroke-width:6; stroke-opacity:1; fill:none"
     points="   243.055,847.992 245.303,847.992 247.551,847.992 249.799,847.992 252.047,847.992 254.295,847.992 256.543,847.992 258.79,847.992 261.038,847.992 263.286,847.992    265.534,847.992 276.773,847.992 288.013,847.992 299.252,847.992 310.491,847.992 321.731,847.992 332.97,847.992 344.209,847.992 355.448,847.992 366.688,847.992    377.927,847.992 389.166,847.992 400.406,847.992 411.645,847.992 422.884,847.992 434.124,847.992 445.363,847.992 456.602,847.992 467.842,847.992 479.081,847.992    524.038,847.992 568.995,847.992 613.953,847.992 658.91,847.992 703.867,847.992 748.824,847.992 793.782,847.992 838.739,847.992 883.696,847.992 928.654,847.992    973.611,847.992 1018.57,847.992 1063.53,847.992 1108.48,847.992 1153.44,847.992 1198.4,847.992 1243.35,847.992 1288.31,847.992 1333.27,847.992 1378.23,847.992    1423.18,847.992 1468.14,847.992    "
     id="polyline369" />
  <polyline
     clip-path="url(#clip082)"
     style="stroke:#e26f46; stroke-width:6; stroke-opacity:1; fill:none"
     points="   243.055,710.59 245.303,709.721 247.551,708.915 249.799,708.168 252.047,707.476 254.295,706.837 256.543,706.246 258.79,705.701 261.038,705.198 263.286,704.735    265.534,704.309 276.773,702.649 288.013,701.584 299.252,700.909 310.491,700.473 321.731,700.171 332.97,699.93 344.209,699.7 355.448,699.45 366.688,699.158    377.927,698.813 389.166,698.407 400.406,697.936 411.645,697.399 422.884,696.793 434.124,696.119 445.363,695.376 456.602,694.564 467.842,693.683 479.081,692.733    524.038,688.26 568.995,682.772 613.953,676.411 658.91,669.376 703.867,661.884 748.824,654.143 793.782,646.334 838.739,638.605 883.696,631.068 928.654,623.8    973.611,616.855 1018.57,610.264 1063.53,604.042 1108.48,598.19 1153.44,592.704 1198.4,587.572 1243.35,582.778 1288.31,578.304 1333.27,574.131 1378.23,570.24    1423.18,566.611 1468.14,563.227    "
     id="polyline371" />
  <polyline
     clip-path="url(#clip082)"
     style="stroke:#3da44d; stroke-width:6; stroke-opacity:1; fill:none"
     points="   243.055,702.869 245.303,702.779 247.551,702.682 249.799,702.578 252.047,702.466 254.295,702.346 256.543,702.217 258.79,702.08 261.038,701.935 263.286,701.78    265.534,701.617 276.773,700.659 288.013,699.458 299.252,698.007 310.491,696.309 321.731,694.374 332.97,692.219 344.209,689.865 355.448,687.336 366.688,684.658    377.927,681.858 389.166,678.959 400.406,675.988 411.645,672.967 422.884,669.917 434.124,666.855 445.363,663.799 456.602,660.763 467.842,657.758 479.081,654.795    524.038,643.504 568.995,633.301 613.953,624.254 658.91,616.299 703.867,609.32 748.824,603.181 793.782,597.756 838.739,592.929 883.696,588.604 928.654,584.699    973.611,581.149 1018.57,577.899 1063.53,574.906 1108.48,572.133 1153.44,569.552 1198.4,567.139 1243.35,564.874 1288.31,562.741 1333.27,560.726 1378.23,558.818    1423.18,557.006 1468.14,555.282    "
     id="polyline373" />
  <polyline
     clip-path="url(#clip082)"
     style="stroke:#c271d2; stroke-width:6; stroke-opacity:1; fill:none"
     points="   243.055,699.309 245.303,698.977 247.551,698.622 249.799,698.244 252.047,697.844 254.295,697.421 256.543,696.976 258.79,696.509 261.038,696.02 263.286,695.509    265.534,694.976 276.773,692.009 288.013,688.585 299.252,684.786 310.491,680.699 321.731,676.408 332.97,671.991 344.209,667.516 355.448,663.038 366.688,658.603    377.927,654.247 389.166,649.998 400.406,645.876 411.645,641.893 422.884,638.06 434.124,634.38 445.363,630.856 456.602,627.486 467.842,624.268 479.081,621.198    524.038,610.286 568.995,601.251 613.953,593.682 658.91,587.208 703.867,581.529 748.824,576.41 793.782,571.675 838.739,567.199 883.696,562.896 928.654,558.714    973.611,554.619 1018.57,550.595 1063.53,546.638 1108.48,542.749 1153.44,538.932 1198.4,535.195 1243.35,531.546 1288.31,527.99 1333.27,524.535 1378.23,521.185    1423.18,517.943 1468.14,514.812    "
     id="polyline375" />
  <polyline
     clip-path="url(#clip082)"
     style="stroke:#ac8d18; stroke-width:6; stroke-opacity:1; fill:none"
     points="   243.055,625.415 245.303,625.11 247.551,624.785 249.799,624.44 252.047,624.075 254.295,623.689 256.543,623.283 258.79,622.856 261.038,622.41 263.286,621.943    265.534,621.456 276.773,618.735 288.013,615.571 299.252,612.02 310.491,608.147 321.731,604.009 332.97,599.658 344.209,595.138 355.448,590.481 366.688,585.712    377.927,580.848 389.166,575.901 400.406,570.878 411.645,565.786 422.884,560.627 434.124,555.403 445.363,550.119 456.602,544.778 467.842,539.382 479.081,533.937    524.038,511.781 568.995,489.357 613.953,467.144 658.91,445.572 703.867,424.965 748.824,405.537 793.782,387.401 838.739,370.592 883.696,355.09 928.654,340.841    973.611,327.767 1018.57,315.78 1063.53,304.789 1108.48,294.704 1153.44,285.439 1198.4,276.913 1243.35,269.055 1288.31,261.797 1333.27,255.079 1378.23,248.85    1423.18,243.06 1468.14,237.668    "
     id="polyline377" />
  <polyline
     clip-path="url(#clip082)"
     style="stroke:#00a9ad; stroke-width:6; stroke-opacity:1; fill:none"
     points="   243.055,580.618 245.303,576.447 247.551,572.312 249.799,568.213 252.047,564.152 254.295,560.13 256.543,556.149 258.79,552.207 261.038,548.307 263.286,544.447    265.534,540.629 276.773,522.158 288.013,504.696 299.252,488.191 310.491,472.578 321.731,457.79 332.97,443.763 344.209,430.437 355.448,417.76 366.688,405.686    377.927,394.174 389.166,383.19 400.406,372.703 411.645,362.686 422.884,353.114 434.124,343.967 445.363,335.222 456.602,326.862 467.842,318.87 479.081,311.227    524.038,283.853 568.995,260.927 613.953,241.668 658.91,225.419 703.867,211.637 748.824,199.88 793.782,189.788 838.739,181.075 883.696,173.507 928.654,166.897    973.611,161.095 1018.57,155.976 1063.53,151.439 1108.48,147.401 1153.44,143.793 1198.4,140.556 1243.35,137.643 1288.31,135.012 1333.27,132.628 1378.23,130.463    1423.18,128.49 1468.14,126.688    "
     id="polyline379" />
  <polyline
     clip-path="url(#clip080)"
     style="stroke:#000000; stroke-width:4; stroke-opacity:1; fill:none"
     points="   1524.59,525.324 1815.16,525.324 1815.16,101.964 1524.59,101.964 1524.59,525.324    "
     id="polyline383" />
  <polyline
     clip-path="url(#clip080)"
     style="stroke:#009af9;stroke-width:6;stroke-opacity:1;fill:none;stroke-miterlimit:4;stroke-dasharray:none"
     points="   1543.79,162.444 1658.99,162.444    "
     id="polyline385" />
  <g
     clip-path="url(#clip080)"
     id="g389">
    <text
       style="fill:#000000; fill-opacity:1; font-family:Times New Roman,TimesNewRoman,Times,Baskerville,Georgia,serif; font-size:53px; text-anchor:start;"
       transform="rotate(0, 1678.19, 179.944)"
       x="1678.19"
       y="179.944"
       id="text387">He</text>
  </g>
  <polyline
     clip-path="url(#clip080)"
     style="stroke:#e26f46;stroke-width:6;stroke-opacity:1;fill:none;stroke-miterlimit:4;stroke-dasharray:none"
     points="   1543.79,222.924 1658.99,222.924    "
     id="polyline391" />
  <g
     clip-path="url(#clip080)"
     id="g395">
    <text
       style="fill:#000000; fill-opacity:1; font-family:Times New Roman,TimesNewRoman,Times,Baskerville,Georgia,serif; font-size:53px; text-anchor:start;"
       transform="rotate(0, 1678.19, 240.424)"
       x="1678.19"
       y="240.424"
       id="text393">H₂</text>
  </g>
  <polyline
     clip-path="url(#clip080)"
     style="stroke:#3da44d;stroke-width:6;stroke-opacity:1;fill:none;stroke-miterlimit:4;stroke-dasharray:none"
     points="   1543.79,283.404 1658.99,283.404    "
     id="polyline397" />
  <g
     clip-path="url(#clip080)"
     id="g401">
    <text
       style="fill:#000000; fill-opacity:1; font-family:Times New Roman,TimesNewRoman,Times,Baskerville,Georgia,serif; font-size:53px; text-anchor:start;"
       transform="rotate(0, 1678.19, 300.904)"
       x="1678.19"
       y="300.904"
       id="text399">ar</text>
  </g>
  <polyline
     clip-path="url(#clip080)"
     style="stroke:#c271d2;stroke-width:6;stroke-opacity:1;fill:none;stroke-miterlimit:4;stroke-dasharray:none"
     points="   1543.79,343.884 1658.99,343.884    "
     id="polyline403" />
  <g
     clip-path="url(#clip080)"
     id="g407">
    <text
       style="fill:#000000; fill-opacity:1; font-family:Times New Roman,TimesNewRoman,Times,Baskerville,Georgia,serif; font-size:53px; text-anchor:start;"
       transform="rotate(0, 1678.19, 361.384)"
       x="1678.19"
       y="361.384"
       id="text405">O₂</text>
  </g>
  <polyline
     clip-path="url(#clip080)"
     style="stroke:#ac8d18;stroke-width:6;stroke-opacity:1;fill:none;stroke-miterlimit:4;stroke-dasharray:none"
     points="   1543.79,404.364 1658.99,404.364    "
     id="polyline409" />
  <g
     clip-path="url(#clip080)"
     id="g413">
    <text
       style="fill:#000000; fill-opacity:1; font-family:Times New Roman,TimesNewRoman,Times,Baskerville,Georgia,serif; font-size:53px; text-anchor:start;"
       transform="rotate(0, 1678.19, 421.864)"
       x="1678.19"
       y="421.864"
       id="text411">H₂O</text>
  </g>
  <polyline
     clip-path="url(#clip080)"
     style="stroke:#00a9ad;stroke-width:6;stroke-opacity:1;fill:none;stroke-miterlimit:4;stroke-dasharray:none"
     points="   1543.79,464.844 1658.99,464.844    "
     id="polyline415" />
  <g
     clip-path="url(#clip080)"
     id="g419">
    <text
       style="fill:#000000; fill-opacity:1; font-family:Times New Roman,TimesNewRoman,Times,Baskerville,Georgia,serif; font-size:53px; text-anchor:start;"
       transform="rotate(0, 1678.19, 482.344)"
       x="1678.19"
       y="482.344"
       id="text417">CO₂</text>
  </g>
  <text
     transform="rotate(-90)"
     id="text1038"
     y="76.178337"
     x="-542.48615"
     style="font-style:normal;font-variant:normal;font-weight:normal;font-stretch:normal;font-size:64px;line-height:1.25;font-family:'SBL BibLit';-inkscape-font-specification:'SBL BibLit';letter-spacing:0px;word-spacing:0px;fill:#000000;fill-opacity:1;stroke:none;stroke-width:4"
     xml:space="preserve"><tspan
       style="stroke-width:4"
       y="76.178337"
       x="-542.48615"
       id="tspan1036"
       sodipodi:role="line">c̄<tspan
   id="tspan1040"
   style="font-size:65%;baseline-shift:sub">P</tspan>/R̄</tspan></text>
  <text
     id="text1044"
     y="1048.2651"
     x="964.48798"
     style="font-style:normal;font-variant:normal;font-weight:normal;font-stretch:normal;font-size:64px;line-height:1.25;font-family:'SBL BibLit';-inkscape-font-specification:'SBL BibLit';letter-spacing:0px;word-spacing:0px;fill:#000000;fill-opacity:1;stroke:none;stroke-width:4"
     xml:space="preserve"><tspan
       style="stroke-width:4"
       y="1048.2651"
       x="964.48798"
       id="tspan1042"
       sodipodi:role="line">T/K</tspan></text>
</svg>
