<?xml version="1.0" encoding="utf-8"?>
<svg xmlns="http://www.w3.org/2000/svg" xmlns:xlink="http://www.w3.org/1999/xlink" width="320" height="180" viewBox="0 0 1280 720">
<defs>
  <clipPath id="clip290">
    <rect x="0" y="0" width="1280" height="720"/>
  </clipPath>
</defs>
<path clip-path="url(#clip290)" d="
M0 720 L1280 720 L1280 0 L0 0  Z
  " fill="#ffffff" fill-rule="evenodd" fill-opacity="1"/>
<defs>
  <clipPath id="clip291">
    <rect x="256" y="0" width="897" height="720"/>
  </clipPath>
</defs>
<path clip-path="url(#clip290)" d="
M152.574 620.648 L1232.76 620.648 L1232.76 47.2441 L152.574 47.2441  Z
  " fill="#ffffff" fill-rule="evenodd" fill-opacity="1"/>
<defs>
  <clipPath id="clip292">
    <rect x="152" y="47" width="1081" height="574"/>
  </clipPath>
</defs>
<polyline clip-path="url(#clip292)" style="stroke:#000000; stroke-width:2; stroke-opacity:0.1; fill:none" points="
  183.145,620.648 183.145,47.2441 
  "/>
<polyline clip-path="url(#clip292)" style="stroke:#000000; stroke-width:2; stroke-opacity:0.1; fill:none" points="
  438.664,620.648 438.664,47.2441 
  "/>
<polyline clip-path="url(#clip292)" style="stroke:#000000; stroke-width:2; stroke-opacity:0.1; fill:none" points="
  694.183,620.648 694.183,47.2441 
  "/>
<polyline clip-path="url(#clip292)" style="stroke:#000000; stroke-width:2; stroke-opacity:0.1; fill:none" points="
  949.701,620.648 949.701,47.2441 
  "/>
<polyline clip-path="url(#clip292)" style="stroke:#000000; stroke-width:2; stroke-opacity:0.1; fill:none" points="
  1205.22,620.648 1205.22,47.2441 
  "/>
<polyline clip-path="url(#clip290)" style="stroke:#000000; stroke-width:4; stroke-opacity:1; fill:none" points="
  152.574,620.648 1232.76,620.648 
  "/>
<polyline clip-path="url(#clip290)" style="stroke:#000000; stroke-width:4; stroke-opacity:1; fill:none" points="
  183.145,620.648 183.145,613.767 
  "/>
<polyline clip-path="url(#clip290)" style="stroke:#000000; stroke-width:4; stroke-opacity:1; fill:none" points="
  438.664,620.648 438.664,613.767 
  "/>
<polyline clip-path="url(#clip290)" style="stroke:#000000; stroke-width:4; stroke-opacity:1; fill:none" points="
  694.183,620.648 694.183,613.767 
  "/>
<polyline clip-path="url(#clip290)" style="stroke:#000000; stroke-width:4; stroke-opacity:1; fill:none" points="
  949.701,620.648 949.701,613.767 
  "/>
<polyline clip-path="url(#clip290)" style="stroke:#000000; stroke-width:4; stroke-opacity:1; fill:none" points="
  1205.22,620.648 1205.22,613.767 
  "/>
<path clip-path="url(#clip290)" d="M 0 0 M164.662 640.879 Q161.051 640.879 159.222 644.443 Q157.416 647.985 157.416 655.115 Q157.416 662.221 159.222 665.786 Q161.051 669.327 164.662 669.327 Q168.296 669.327 170.101 665.786 Q171.93 662.221 171.93 655.115 Q171.93 647.985 170.101 644.443 Q168.296 640.879 164.662 640.879 M164.662 637.175 Q170.472 637.175 173.527 641.781 Q176.606 646.365 176.606 655.115 Q176.606 663.841 173.527 668.448 Q170.472 673.031 164.662 673.031 Q158.851 673.031 155.773 668.448 Q152.717 663.841 152.717 655.115 Q152.717 646.365 155.773 641.781 Q158.851 637.175 164.662 637.175 Z" fill="#000000" fill-rule="evenodd" fill-opacity="1" /><path clip-path="url(#clip290)" d="M 0 0 M181.675 666.48 L186.56 666.48 L186.56 672.36 L181.675 672.36 L181.675 666.48 Z" fill="#000000" fill-rule="evenodd" fill-opacity="1" /><path clip-path="url(#clip290)" d="M 0 0 M201.629 640.879 Q198.018 640.879 196.189 644.443 Q194.384 647.985 194.384 655.115 Q194.384 662.221 196.189 665.786 Q198.018 669.327 201.629 669.327 Q205.263 669.327 207.069 665.786 Q208.897 662.221 208.897 655.115 Q208.897 647.985 207.069 644.443 Q205.263 640.879 201.629 640.879 M201.629 637.175 Q207.439 637.175 210.495 641.781 Q213.573 646.365 213.573 655.115 Q213.573 663.841 210.495 668.448 Q207.439 673.031 201.629 673.031 Q195.819 673.031 192.74 668.448 Q189.685 663.841 189.685 655.115 Q189.685 646.365 192.74 641.781 Q195.819 637.175 201.629 637.175 Z" fill="#000000" fill-rule="evenodd" fill-opacity="1" /><path clip-path="url(#clip290)" d="M 0 0 M415.331 668.425 L431.65 668.425 L431.65 672.36 L409.706 672.36 L409.706 668.425 Q412.368 665.67 416.951 661.04 Q421.558 656.388 422.738 655.045 Q424.983 652.522 425.863 650.786 Q426.766 649.027 426.766 647.337 Q426.766 644.582 424.821 642.846 Q422.9 641.11 419.798 641.11 Q417.599 641.11 415.146 641.874 Q412.715 642.638 409.937 644.189 L409.937 639.467 Q412.761 638.332 415.215 637.754 Q417.669 637.175 419.706 637.175 Q425.076 637.175 428.271 639.86 Q431.465 642.545 431.465 647.036 Q431.465 649.166 430.655 651.087 Q429.868 652.985 427.761 655.578 Q427.183 656.249 424.081 659.466 Q420.979 662.661 415.331 668.425 Z" fill="#000000" fill-rule="evenodd" fill-opacity="1" /><path clip-path="url(#clip290)" d="M 0 0 M436.72 666.48 L441.604 666.48 L441.604 672.36 L436.72 672.36 L436.72 666.48 Z" fill="#000000" fill-rule="evenodd" fill-opacity="1" /><path clip-path="url(#clip290)" d="M 0 0 M446.719 637.8 L465.076 637.8 L465.076 641.735 L451.002 641.735 L451.002 650.207 Q452.02 649.86 453.039 649.698 Q454.057 649.513 455.076 649.513 Q460.863 649.513 464.243 652.684 Q467.622 655.855 467.622 661.272 Q467.622 666.851 464.15 669.952 Q460.678 673.031 454.358 673.031 Q452.182 673.031 449.914 672.661 Q447.669 672.29 445.261 671.55 L445.261 666.851 Q447.344 667.985 449.567 668.54 Q451.789 669.096 454.266 669.096 Q458.27 669.096 460.608 666.99 Q462.946 664.883 462.946 661.272 Q462.946 657.661 460.608 655.554 Q458.27 653.448 454.266 653.448 Q452.391 653.448 450.516 653.865 Q448.664 654.281 446.719 655.161 L446.719 637.8 Z" fill="#000000" fill-rule="evenodd" fill-opacity="1" /><path clip-path="url(#clip290)" d="M 0 0 M665.977 637.8 L684.333 637.8 L684.333 641.735 L670.259 641.735 L670.259 650.207 Q671.278 649.86 672.296 649.698 Q673.315 649.513 674.333 649.513 Q680.12 649.513 683.5 652.684 Q686.879 655.855 686.879 661.272 Q686.879 666.851 683.407 669.952 Q679.935 673.031 673.616 673.031 Q671.44 673.031 669.171 672.661 Q666.926 672.29 664.518 671.55 L664.518 666.851 Q666.602 667.985 668.824 668.54 Q671.046 669.096 673.523 669.096 Q677.528 669.096 679.866 666.99 Q682.204 664.883 682.204 661.272 Q682.204 657.661 679.866 655.554 Q677.528 653.448 673.523 653.448 Q671.648 653.448 669.773 653.865 Q667.921 654.281 665.977 655.161 L665.977 637.8 Z" fill="#000000" fill-rule="evenodd" fill-opacity="1" /><path clip-path="url(#clip290)" d="M 0 0 M691.949 666.48 L696.833 666.48 L696.833 672.36 L691.949 672.36 L691.949 666.48 Z" fill="#000000" fill-rule="evenodd" fill-opacity="1" /><path clip-path="url(#clip290)" d="M 0 0 M711.902 640.879 Q708.291 640.879 706.463 644.443 Q704.657 647.985 704.657 655.115 Q704.657 662.221 706.463 665.786 Q708.291 669.327 711.902 669.327 Q715.537 669.327 717.342 665.786 Q719.171 662.221 719.171 655.115 Q719.171 647.985 717.342 644.443 Q715.537 640.879 711.902 640.879 M711.902 637.175 Q717.713 637.175 720.768 641.781 Q723.847 646.365 723.847 655.115 Q723.847 663.841 720.768 668.448 Q717.713 673.031 711.902 673.031 Q706.092 673.031 703.014 668.448 Q699.958 663.841 699.958 655.115 Q699.958 646.365 703.014 641.781 Q706.092 637.175 711.902 637.175 Z" fill="#000000" fill-rule="evenodd" fill-opacity="1" /><path clip-path="url(#clip290)" d="M 0 0 M920.604 637.8 L942.826 637.8 L942.826 639.791 L930.28 672.36 L925.396 672.36 L937.201 641.735 L920.604 641.735 L920.604 637.8 Z" fill="#000000" fill-rule="evenodd" fill-opacity="1" /><path clip-path="url(#clip290)" d="M 0 0 M947.896 666.48 L952.78 666.48 L952.78 672.36 L947.896 672.36 L947.896 666.48 Z" fill="#000000" fill-rule="evenodd" fill-opacity="1" /><path clip-path="url(#clip290)" d="M 0 0 M957.896 637.8 L976.252 637.8 L976.252 641.735 L962.178 641.735 L962.178 650.207 Q963.197 649.86 964.215 649.698 Q965.234 649.513 966.252 649.513 Q972.039 649.513 975.419 652.684 Q978.798 655.855 978.798 661.272 Q978.798 666.851 975.326 669.952 Q971.854 673.031 965.535 673.031 Q963.359 673.031 961.09 672.661 Q958.845 672.29 956.437 671.55 L956.437 666.851 Q958.521 667.985 960.743 668.54 Q962.965 669.096 965.442 669.096 Q969.447 669.096 971.785 666.99 Q974.122 664.883 974.122 661.272 Q974.122 657.661 971.785 655.554 Q969.447 653.448 965.442 653.448 Q963.567 653.448 961.692 653.865 Q959.84 654.281 957.896 655.161 L957.896 637.8 Z" fill="#000000" fill-rule="evenodd" fill-opacity="1" /><path clip-path="url(#clip290)" d="M 0 0 M1163.61 668.425 L1171.25 668.425 L1171.25 642.059 L1162.94 643.726 L1162.94 639.467 L1171.2 637.8 L1175.88 637.8 L1175.88 668.425 L1183.52 668.425 L1183.52 672.36 L1163.61 672.36 L1163.61 668.425 Z" fill="#000000" fill-rule="evenodd" fill-opacity="1" /><path clip-path="url(#clip290)" d="M 0 0 M1198.59 640.879 Q1194.98 640.879 1193.15 644.443 Q1191.34 647.985 1191.34 655.115 Q1191.34 662.221 1193.15 665.786 Q1194.98 669.327 1198.59 669.327 Q1202.22 669.327 1204.03 665.786 Q1205.86 662.221 1205.86 655.115 Q1205.86 647.985 1204.03 644.443 Q1202.22 640.879 1198.59 640.879 M1198.59 637.175 Q1204.4 637.175 1207.45 641.781 Q1210.53 646.365 1210.53 655.115 Q1210.53 663.841 1207.45 668.448 Q1204.4 673.031 1198.59 673.031 Q1192.78 673.031 1189.7 668.448 Q1186.64 663.841 1186.64 655.115 Q1186.64 646.365 1189.7 641.781 Q1192.78 637.175 1198.59 637.175 Z" fill="#000000" fill-rule="evenodd" fill-opacity="1" /><path clip-path="url(#clip290)" d="M 0 0 M1215.6 666.48 L1220.49 666.48 L1220.49 672.36 L1215.6 672.36 L1215.6 666.48 Z" fill="#000000" fill-rule="evenodd" fill-opacity="1" /><path clip-path="url(#clip290)" d="M 0 0 M1235.56 640.879 Q1231.94 640.879 1230.12 644.443 Q1228.31 647.985 1228.31 655.115 Q1228.31 662.221 1230.12 665.786 Q1231.94 669.327 1235.56 669.327 Q1239.19 669.327 1241 665.786 Q1242.82 662.221 1242.82 655.115 Q1242.82 647.985 1241 644.443 Q1239.19 640.879 1235.56 640.879 M1235.56 637.175 Q1241.37 637.175 1244.42 641.781 Q1247.5 646.365 1247.5 655.115 Q1247.5 663.841 1244.42 668.448 Q1241.37 673.031 1235.56 673.031 Q1229.75 673.031 1226.67 668.448 Q1223.61 663.841 1223.61 655.115 Q1223.61 646.365 1226.67 641.781 Q1229.75 637.175 1235.56 637.175 Z" fill="#000000" fill-rule="evenodd" fill-opacity="1" /><polyline clip-path="url(#clip292)" style="stroke:#000000; stroke-width:2; stroke-opacity:0.1; fill:none" points="
  152.574,604.434 1232.76,604.434 
  "/>
<polyline clip-path="url(#clip292)" style="stroke:#000000; stroke-width:2; stroke-opacity:0.1; fill:none" points="
  152.574,459.771 1232.76,459.771 
  "/>
<polyline clip-path="url(#clip292)" style="stroke:#000000; stroke-width:2; stroke-opacity:0.1; fill:none" points="
  152.574,315.108 1232.76,315.108 
  "/>
<polyline clip-path="url(#clip292)" style="stroke:#000000; stroke-width:2; stroke-opacity:0.1; fill:none" points="
  152.574,170.445 1232.76,170.445 
  "/>
<polyline clip-path="url(#clip290)" style="stroke:#000000; stroke-width:4; stroke-opacity:1; fill:none" points="
  152.574,620.648 152.574,47.2441 
  "/>
<polyline clip-path="url(#clip290)" style="stroke:#000000; stroke-width:4; stroke-opacity:1; fill:none" points="
  152.574,604.434 165.536,604.434 
  "/>
<polyline clip-path="url(#clip290)" style="stroke:#000000; stroke-width:4; stroke-opacity:1; fill:none" points="
  152.574,459.771 165.536,459.771 
  "/>
<polyline clip-path="url(#clip290)" style="stroke:#000000; stroke-width:4; stroke-opacity:1; fill:none" points="
  152.574,315.108 165.536,315.108 
  "/>
<polyline clip-path="url(#clip290)" style="stroke:#000000; stroke-width:4; stroke-opacity:1; fill:none" points="
  152.574,170.445 165.536,170.445 
  "/>
<path clip-path="url(#clip290)" d="M 0 0 M121.43 590.233 Q117.819 590.233 115.99 593.797 Q114.184 597.339 114.184 604.469 Q114.184 611.575 115.99 615.14 Q117.819 618.682 121.43 618.682 Q125.064 618.682 126.87 615.14 Q128.698 611.575 128.698 604.469 Q128.698 597.339 126.87 593.797 Q125.064 590.233 121.43 590.233 M121.43 586.529 Q127.24 586.529 130.295 591.135 Q133.374 595.719 133.374 604.469 Q133.374 613.195 130.295 617.802 Q127.24 622.385 121.43 622.385 Q115.62 622.385 112.541 617.802 Q109.485 613.195 109.485 604.469 Q109.485 595.719 112.541 591.135 Q115.62 586.529 121.43 586.529 Z" fill="#000000" fill-rule="evenodd" fill-opacity="1" /><path clip-path="url(#clip290)" d="M 0 0 M59.4393 473.116 L67.0782 473.116 L67.0782 446.75 L58.768 448.417 L58.768 444.158 L67.0319 442.491 L71.7078 442.491 L71.7078 473.116 L79.3466 473.116 L79.3466 477.051 L59.4393 477.051 L59.4393 473.116 Z" fill="#000000" fill-rule="evenodd" fill-opacity="1" /><path clip-path="url(#clip290)" d="M 0 0 M94.416 445.57 Q90.8049 445.57 88.9762 449.134 Q87.1707 452.676 87.1707 459.806 Q87.1707 466.912 88.9762 470.477 Q90.8049 474.019 94.416 474.019 Q98.0502 474.019 99.8558 470.477 Q101.684 466.912 101.684 459.806 Q101.684 452.676 99.8558 449.134 Q98.0502 445.57 94.416 445.57 M94.416 441.866 Q100.226 441.866 103.282 446.472 Q106.36 451.056 106.36 459.806 Q106.36 468.532 103.282 473.139 Q100.226 477.722 94.416 477.722 Q88.6058 477.722 85.5272 473.139 Q82.4716 468.532 82.4716 459.806 Q82.4716 451.056 85.5272 446.472 Q88.6058 441.866 94.416 441.866 Z" fill="#000000" fill-rule="evenodd" fill-opacity="1" /><path clip-path="url(#clip290)" d="M 0 0 M121.43 445.57 Q117.819 445.57 115.99 449.134 Q114.184 452.676 114.184 459.806 Q114.184 466.912 115.99 470.477 Q117.819 474.019 121.43 474.019 Q125.064 474.019 126.87 470.477 Q128.698 466.912 128.698 459.806 Q128.698 452.676 126.87 449.134 Q125.064 445.57 121.43 445.57 M121.43 441.866 Q127.24 441.866 130.295 446.472 Q133.374 451.056 133.374 459.806 Q133.374 468.532 130.295 473.139 Q127.24 477.722 121.43 477.722 Q115.62 477.722 112.541 473.139 Q109.485 468.532 109.485 459.806 Q109.485 451.056 112.541 446.472 Q115.62 441.866 121.43 441.866 Z" fill="#000000" fill-rule="evenodd" fill-opacity="1" /><path clip-path="url(#clip290)" d="M 0 0 M63.0273 328.453 L79.3466 328.453 L79.3466 332.388 L57.4023 332.388 L57.4023 328.453 Q60.0643 325.698 64.6476 321.069 Q69.2541 316.416 70.4346 315.073 Q72.68 312.55 73.5596 310.814 Q74.4624 309.055 74.4624 307.365 Q74.4624 304.61 72.518 302.874 Q70.5967 301.138 67.4948 301.138 Q65.2958 301.138 62.8421 301.902 Q60.4115 302.666 57.6338 304.217 L57.6338 299.495 Q60.4578 298.36 62.9115 297.782 Q65.3652 297.203 67.4023 297.203 Q72.7726 297.203 75.967 299.888 Q79.1614 302.573 79.1614 307.064 Q79.1614 309.194 78.3513 311.115 Q77.5642 313.013 75.4578 315.606 Q74.8791 316.277 71.7772 319.495 Q68.6754 322.689 63.0273 328.453 Z" fill="#000000" fill-rule="evenodd" fill-opacity="1" /><path clip-path="url(#clip290)" d="M 0 0 M94.416 300.907 Q90.8049 300.907 88.9762 304.471 Q87.1707 308.013 87.1707 315.143 Q87.1707 322.249 88.9762 325.814 Q90.8049 329.356 94.416 329.356 Q98.0502 329.356 99.8558 325.814 Q101.684 322.249 101.684 315.143 Q101.684 308.013 99.8558 304.471 Q98.0502 300.907 94.416 300.907 M94.416 297.203 Q100.226 297.203 103.282 301.809 Q106.36 306.393 106.36 315.143 Q106.36 323.869 103.282 328.476 Q100.226 333.059 94.416 333.059 Q88.6058 333.059 85.5272 328.476 Q82.4716 323.869 82.4716 315.143 Q82.4716 306.393 85.5272 301.809 Q88.6058 297.203 94.416 297.203 Z" fill="#000000" fill-rule="evenodd" fill-opacity="1" /><path clip-path="url(#clip290)" d="M 0 0 M121.43 300.907 Q117.819 300.907 115.99 304.471 Q114.184 308.013 114.184 315.143 Q114.184 322.249 115.99 325.814 Q117.819 329.356 121.43 329.356 Q125.064 329.356 126.87 325.814 Q128.698 322.249 128.698 315.143 Q128.698 308.013 126.87 304.471 Q125.064 300.907 121.43 300.907 M121.43 297.203 Q127.24 297.203 130.295 301.809 Q133.374 306.393 133.374 315.143 Q133.374 323.869 130.295 328.476 Q127.24 333.059 121.43 333.059 Q115.62 333.059 112.541 328.476 Q109.485 323.869 109.485 315.143 Q109.485 306.393 112.541 301.809 Q115.62 297.203 121.43 297.203 Z" fill="#000000" fill-rule="evenodd" fill-opacity="1" /><path clip-path="url(#clip290)" d="M 0 0 M72.217 169.091 Q75.5735 169.808 77.4485 172.077 Q79.3466 174.345 79.3466 177.679 Q79.3466 182.794 75.8281 185.595 Q72.3096 188.396 65.8282 188.396 Q63.6523 188.396 61.3375 187.956 Q59.0458 187.54 56.5921 186.683 L56.5921 182.169 Q58.5366 183.304 60.8514 183.882 Q63.1662 184.461 65.6893 184.461 Q70.0874 184.461 72.3791 182.725 Q74.6939 180.989 74.6939 177.679 Q74.6939 174.623 72.5411 172.91 Q70.4115 171.174 66.5921 171.174 L62.5643 171.174 L62.5643 167.332 L66.7773 167.332 Q70.2263 167.332 72.055 165.966 Q73.8837 164.577 73.8837 161.984 Q73.8837 159.322 71.9856 157.91 Q70.1106 156.475 66.5921 156.475 Q64.6708 156.475 62.4717 156.892 Q60.2727 157.308 57.6338 158.188 L57.6338 154.021 Q60.2958 153.281 62.6106 152.91 Q64.9486 152.54 67.0087 152.54 Q72.3328 152.54 75.4346 154.971 Q78.5365 157.378 78.5365 161.498 Q78.5365 164.369 76.8929 166.359 Q75.2494 168.327 72.217 169.091 Z" fill="#000000" fill-rule="evenodd" fill-opacity="1" /><path clip-path="url(#clip290)" d="M 0 0 M94.416 156.244 Q90.8049 156.244 88.9762 159.808 Q87.1707 163.35 87.1707 170.48 Q87.1707 177.586 88.9762 181.151 Q90.8049 184.693 94.416 184.693 Q98.0502 184.693 99.8558 181.151 Q101.684 177.586 101.684 170.48 Q101.684 163.35 99.8558 159.808 Q98.0502 156.244 94.416 156.244 M94.416 152.54 Q100.226 152.54 103.282 157.146 Q106.36 161.73 106.36 170.48 Q106.36 179.207 103.282 183.813 Q100.226 188.396 94.416 188.396 Q88.6058 188.396 85.5272 183.813 Q82.4716 179.207 82.4716 170.48 Q82.4716 161.73 85.5272 157.146 Q88.6058 152.54 94.416 152.54 Z" fill="#000000" fill-rule="evenodd" fill-opacity="1" /><path clip-path="url(#clip290)" d="M 0 0 M121.43 156.244 Q117.819 156.244 115.99 159.808 Q114.184 163.35 114.184 170.48 Q114.184 177.586 115.99 181.151 Q117.819 184.693 121.43 184.693 Q125.064 184.693 126.87 181.151 Q128.698 177.586 128.698 170.48 Q128.698 163.35 126.87 159.808 Q125.064 156.244 121.43 156.244 M121.43 152.54 Q127.24 152.54 130.295 157.146 Q133.374 161.73 133.374 170.48 Q133.374 179.207 130.295 183.813 Q127.24 188.396 121.43 188.396 Q115.62 188.396 112.541 183.813 Q109.485 179.207 109.485 170.48 Q109.485 161.73 112.541 157.146 Q115.62 152.54 121.43 152.54 Z" fill="#000000" fill-rule="evenodd" fill-opacity="1" /><polyline clip-path="url(#clip292)" style="stroke:#009af9; stroke-width:12; stroke-opacity:1; fill:none" points="
  183.145,604.419 239.373,548.976 286.459,496.53 326.774,447.08 361.841,400.628 392.744,357.172 420.271,316.714 444.999,279.252 467.365,244.787 487.705,213.319 
  506.285,184.848 523.32,159.374 538.99,136.897 553.448,117.417 566.853,100.934 579.434,87.448 591.405,76.9587 602.787,69.4664 614.983,64.971 633.57,63.4725 
  657.528,64.971 674.644,69.4664 689.946,76.9587 704.374,87.448 718.426,100.934 732.287,117.417 746.091,136.897 759.998,159.374 774.214,184.848 789.012,213.319 
  804.753,244.787 821.923,279.252 841.204,316.714 863.578,357.172 890.519,400.628 924.346,447.08 968.821,496.53 1030.15,548.976 1118.91,604.419 
  "/>
<polyline clip-path="url(#clip292)" style="stroke:#e26f46; stroke-width:4; stroke-opacity:1; fill:none" points="
  225.308,563.57 1050.7,563.57 1073.92,508.004 1094.63,452.437 1113.46,396.871 1130.79,341.304 1146.87,285.738 1161.91,230.172 1176.07,174.605 1189.46,119.039 
  1202.18,63.4725 
  "/>
<path clip-path="url(#clip292)" d="M1061.2 547.336 L1054.27 543.336 L1054.27 535.336 L1061.2 531.336 L1068.13 535.336 L1068.13 543.336 Z" fill="#008000" fill-rule="evenodd" fill-opacity="0.6" stroke="#000000" stroke-opacity="0.6" stroke-width="4.32"/>
</svg>
