<?xml version="1.0" encoding="utf-8"?>
<svg xmlns="http://www.w3.org/2000/svg" xmlns:xlink="http://www.w3.org/1999/xlink" width="320" height="180" viewBox="0 0 1280 720">
<defs>
  <clipPath id="clip310">
    <rect x="0" y="0" width="1280" height="720"/>
  </clipPath>
</defs>
<path clip-path="url(#clip310)" d="
M0 720 L1280 720 L1280 0 L0 0  Z
  " fill="#ffffff" fill-rule="evenodd" fill-opacity="1"/>
<defs>
  <clipPath id="clip311">
    <rect x="256" y="0" width="897" height="720"/>
  </clipPath>
</defs>
<path clip-path="url(#clip310)" d="
M152.574 620.648 L1232.76 620.648 L1232.76 47.2441 L152.574 47.2441  Z
  " fill="#ffffff" fill-rule="evenodd" fill-opacity="1"/>
<defs>
  <clipPath id="clip312">
    <rect x="152" y="47" width="1081" height="574"/>
  </clipPath>
</defs>
<polyline clip-path="url(#clip312)" style="stroke:#000000; stroke-width:2; stroke-opacity:0.1; fill:none" points="
  183.145,620.648 183.145,47.2441 
  "/>
<polyline clip-path="url(#clip312)" style="stroke:#000000; stroke-width:2; stroke-opacity:0.1; fill:none" points="
  420.947,620.648 420.947,47.2441 
  "/>
<polyline clip-path="url(#clip312)" style="stroke:#000000; stroke-width:2; stroke-opacity:0.1; fill:none" points="
  658.748,620.648 658.748,47.2441 
  "/>
<polyline clip-path="url(#clip312)" style="stroke:#000000; stroke-width:2; stroke-opacity:0.1; fill:none" points="
  896.549,620.648 896.549,47.2441 
  "/>
<polyline clip-path="url(#clip312)" style="stroke:#000000; stroke-width:2; stroke-opacity:0.1; fill:none" points="
  1134.35,620.648 1134.35,47.2441 
  "/>
<polyline clip-path="url(#clip310)" style="stroke:#000000; stroke-width:4; stroke-opacity:1; fill:none" points="
  152.574,620.648 1232.76,620.648 
  "/>
<polyline clip-path="url(#clip310)" style="stroke:#000000; stroke-width:4; stroke-opacity:1; fill:none" points="
  183.145,620.648 183.145,613.767 
  "/>
<polyline clip-path="url(#clip310)" style="stroke:#000000; stroke-width:4; stroke-opacity:1; fill:none" points="
  420.947,620.648 420.947,613.767 
  "/>
<polyline clip-path="url(#clip310)" style="stroke:#000000; stroke-width:4; stroke-opacity:1; fill:none" points="
  658.748,620.648 658.748,613.767 
  "/>
<polyline clip-path="url(#clip310)" style="stroke:#000000; stroke-width:4; stroke-opacity:1; fill:none" points="
  896.549,620.648 896.549,613.767 
  "/>
<polyline clip-path="url(#clip310)" style="stroke:#000000; stroke-width:4; stroke-opacity:1; fill:none" points="
  1134.35,620.648 1134.35,613.767 
  "/>
<path clip-path="url(#clip310)" d="M 0 0 M164.662 640.879 Q161.051 640.879 159.222 644.443 Q157.416 647.985 157.416 655.115 Q157.416 662.221 159.222 665.786 Q161.051 669.327 164.662 669.327 Q168.296 669.327 170.101 665.786 Q171.93 662.221 171.93 655.115 Q171.93 647.985 170.101 644.443 Q168.296 640.879 164.662 640.879 M164.662 637.175 Q170.472 637.175 173.527 641.781 Q176.606 646.365 176.606 655.115 Q176.606 663.841 173.527 668.448 Q170.472 673.031 164.662 673.031 Q158.851 673.031 155.773 668.448 Q152.717 663.841 152.717 655.115 Q152.717 646.365 155.773 641.781 Q158.851 637.175 164.662 637.175 Z" fill="#000000" fill-rule="evenodd" fill-opacity="1" /><path clip-path="url(#clip310)" d="M 0 0 M181.675 666.48 L186.56 666.48 L186.56 672.36 L181.675 672.36 L181.675 666.48 Z" fill="#000000" fill-rule="evenodd" fill-opacity="1" /><path clip-path="url(#clip310)" d="M 0 0 M201.629 640.879 Q198.018 640.879 196.189 644.443 Q194.384 647.985 194.384 655.115 Q194.384 662.221 196.189 665.786 Q198.018 669.327 201.629 669.327 Q205.263 669.327 207.069 665.786 Q208.897 662.221 208.897 655.115 Q208.897 647.985 207.069 644.443 Q205.263 640.879 201.629 640.879 M201.629 637.175 Q207.439 637.175 210.495 641.781 Q213.573 646.365 213.573 655.115 Q213.573 663.841 210.495 668.448 Q207.439 673.031 201.629 673.031 Q195.819 673.031 192.74 668.448 Q189.685 663.841 189.685 655.115 Q189.685 646.365 192.74 641.781 Q195.819 637.175 201.629 637.175 Z" fill="#000000" fill-rule="evenodd" fill-opacity="1" /><path clip-path="url(#clip310)" d="M 0 0 M397.613 668.425 L413.933 668.425 L413.933 672.36 L391.988 672.36 L391.988 668.425 Q394.65 665.67 399.234 661.04 Q403.84 656.388 405.021 655.045 Q407.266 652.522 408.146 650.786 Q409.048 649.027 409.048 647.337 Q409.048 644.582 407.104 642.846 Q405.183 641.11 402.081 641.11 Q399.882 641.11 397.428 641.874 Q394.998 642.638 392.22 644.189 L392.22 639.467 Q395.044 638.332 397.498 637.754 Q399.951 637.175 401.988 637.175 Q407.359 637.175 410.553 639.86 Q413.747 642.545 413.747 647.036 Q413.747 649.166 412.937 651.087 Q412.15 652.985 410.044 655.578 Q409.465 656.249 406.363 659.466 Q403.261 662.661 397.613 668.425 Z" fill="#000000" fill-rule="evenodd" fill-opacity="1" /><path clip-path="url(#clip310)" d="M 0 0 M419.002 666.48 L423.886 666.48 L423.886 672.36 L419.002 672.36 L419.002 666.48 Z" fill="#000000" fill-rule="evenodd" fill-opacity="1" /><path clip-path="url(#clip310)" d="M 0 0 M429.002 637.8 L447.358 637.8 L447.358 641.735 L433.284 641.735 L433.284 650.207 Q434.303 649.86 435.321 649.698 Q436.34 649.513 437.358 649.513 Q443.145 649.513 446.525 652.684 Q449.905 655.855 449.905 661.272 Q449.905 666.851 446.432 669.952 Q442.96 673.031 436.641 673.031 Q434.465 673.031 432.196 672.661 Q429.951 672.29 427.544 671.55 L427.544 666.851 Q429.627 667.985 431.849 668.54 Q434.071 669.096 436.548 669.096 Q440.553 669.096 442.891 666.99 Q445.229 664.883 445.229 661.272 Q445.229 657.661 442.891 655.554 Q440.553 653.448 436.548 653.448 Q434.673 653.448 432.798 653.865 Q430.946 654.281 429.002 655.161 L429.002 637.8 Z" fill="#000000" fill-rule="evenodd" fill-opacity="1" /><path clip-path="url(#clip310)" d="M 0 0 M630.542 637.8 L648.898 637.8 L648.898 641.735 L634.824 641.735 L634.824 650.207 Q635.843 649.86 636.861 649.698 Q637.88 649.513 638.898 649.513 Q644.685 649.513 648.065 652.684 Q651.445 655.855 651.445 661.272 Q651.445 666.851 647.972 669.952 Q644.5 673.031 638.181 673.031 Q636.005 673.031 633.736 672.661 Q631.491 672.29 629.084 671.55 L629.084 666.851 Q631.167 667.985 633.389 668.54 Q635.611 669.096 638.088 669.096 Q642.093 669.096 644.431 666.99 Q646.769 664.883 646.769 661.272 Q646.769 657.661 644.431 655.554 Q642.093 653.448 638.088 653.448 Q636.213 653.448 634.338 653.865 Q632.486 654.281 630.542 655.161 L630.542 637.8 Z" fill="#000000" fill-rule="evenodd" fill-opacity="1" /><path clip-path="url(#clip310)" d="M 0 0 M656.514 666.48 L661.398 666.48 L661.398 672.36 L656.514 672.36 L656.514 666.48 Z" fill="#000000" fill-rule="evenodd" fill-opacity="1" /><path clip-path="url(#clip310)" d="M 0 0 M676.468 640.879 Q672.856 640.879 671.028 644.443 Q669.222 647.985 669.222 655.115 Q669.222 662.221 671.028 665.786 Q672.856 669.327 676.468 669.327 Q680.102 669.327 681.907 665.786 Q683.736 662.221 683.736 655.115 Q683.736 647.985 681.907 644.443 Q680.102 640.879 676.468 640.879 M676.468 637.175 Q682.278 637.175 685.333 641.781 Q688.412 646.365 688.412 655.115 Q688.412 663.841 685.333 668.448 Q682.278 673.031 676.468 673.031 Q670.657 673.031 667.579 668.448 Q664.523 663.841 664.523 655.115 Q664.523 646.365 667.579 641.781 Q670.657 637.175 676.468 637.175 Z" fill="#000000" fill-rule="evenodd" fill-opacity="1" /><path clip-path="url(#clip310)" d="M 0 0 M867.452 637.8 L889.674 637.8 L889.674 639.791 L877.128 672.36 L872.244 672.36 L884.049 641.735 L867.452 641.735 L867.452 637.8 Z" fill="#000000" fill-rule="evenodd" fill-opacity="1" /><path clip-path="url(#clip310)" d="M 0 0 M894.743 666.48 L899.628 666.48 L899.628 672.36 L894.743 672.36 L894.743 666.48 Z" fill="#000000" fill-rule="evenodd" fill-opacity="1" /><path clip-path="url(#clip310)" d="M 0 0 M904.743 637.8 L923.1 637.8 L923.1 641.735 L909.026 641.735 L909.026 650.207 Q910.044 649.86 911.063 649.698 Q912.081 649.513 913.1 649.513 Q918.887 649.513 922.266 652.684 Q925.646 655.855 925.646 661.272 Q925.646 666.851 922.174 669.952 Q918.702 673.031 912.382 673.031 Q910.206 673.031 907.938 672.661 Q905.692 672.29 903.285 671.55 L903.285 666.851 Q905.368 667.985 907.591 668.54 Q909.813 669.096 912.29 669.096 Q916.294 669.096 918.632 666.99 Q920.97 664.883 920.97 661.272 Q920.97 657.661 918.632 655.554 Q916.294 653.448 912.29 653.448 Q910.415 653.448 908.54 653.865 Q906.688 654.281 904.743 655.161 L904.743 637.8 Z" fill="#000000" fill-rule="evenodd" fill-opacity="1" /><path clip-path="url(#clip310)" d="M 0 0 M1092.74 668.425 L1100.38 668.425 L1100.38 642.059 L1092.07 643.726 L1092.07 639.467 L1100.33 637.8 L1105.01 637.8 L1105.01 668.425 L1112.65 668.425 L1112.65 672.36 L1092.74 672.36 L1092.74 668.425 Z" fill="#000000" fill-rule="evenodd" fill-opacity="1" /><path clip-path="url(#clip310)" d="M 0 0 M1127.72 640.879 Q1124.11 640.879 1122.28 644.443 Q1120.47 647.985 1120.47 655.115 Q1120.47 662.221 1122.28 665.786 Q1124.11 669.327 1127.72 669.327 Q1131.35 669.327 1133.16 665.786 Q1134.99 662.221 1134.99 655.115 Q1134.99 647.985 1133.16 644.443 Q1131.35 640.879 1127.72 640.879 M1127.72 637.175 Q1133.53 637.175 1136.58 641.781 Q1139.66 646.365 1139.66 655.115 Q1139.66 663.841 1136.58 668.448 Q1133.53 673.031 1127.72 673.031 Q1121.91 673.031 1118.83 668.448 Q1115.77 663.841 1115.77 655.115 Q1115.77 646.365 1118.83 641.781 Q1121.91 637.175 1127.72 637.175 Z" fill="#000000" fill-rule="evenodd" fill-opacity="1" /><path clip-path="url(#clip310)" d="M 0 0 M1144.73 666.48 L1149.62 666.48 L1149.62 672.36 L1144.73 672.36 L1144.73 666.48 Z" fill="#000000" fill-rule="evenodd" fill-opacity="1" /><path clip-path="url(#clip310)" d="M 0 0 M1164.69 640.879 Q1161.07 640.879 1159.25 644.443 Q1157.44 647.985 1157.44 655.115 Q1157.44 662.221 1159.25 665.786 Q1161.07 669.327 1164.69 669.327 Q1168.32 669.327 1170.13 665.786 Q1171.95 662.221 1171.95 655.115 Q1171.95 647.985 1170.13 644.443 Q1168.32 640.879 1164.69 640.879 M1164.69 637.175 Q1170.5 637.175 1173.55 641.781 Q1176.63 646.365 1176.63 655.115 Q1176.63 663.841 1173.55 668.448 Q1170.5 673.031 1164.69 673.031 Q1158.88 673.031 1155.8 668.448 Q1152.74 663.841 1152.74 655.115 Q1152.74 646.365 1155.8 641.781 Q1158.88 637.175 1164.69 637.175 Z" fill="#000000" fill-rule="evenodd" fill-opacity="1" /><polyline clip-path="url(#clip312)" style="stroke:#000000; stroke-width:2; stroke-opacity:0.1; fill:none" points="
  152.574,604.434 1232.76,604.434 
  "/>
<polyline clip-path="url(#clip312)" style="stroke:#000000; stroke-width:2; stroke-opacity:0.1; fill:none" points="
  152.574,459.771 1232.76,459.771 
  "/>
<polyline clip-path="url(#clip312)" style="stroke:#000000; stroke-width:2; stroke-opacity:0.1; fill:none" points="
  152.574,315.108 1232.76,315.108 
  "/>
<polyline clip-path="url(#clip312)" style="stroke:#000000; stroke-width:2; stroke-opacity:0.1; fill:none" points="
  152.574,170.445 1232.76,170.445 
  "/>
<polyline clip-path="url(#clip310)" style="stroke:#000000; stroke-width:4; stroke-opacity:1; fill:none" points="
  152.574,620.648 152.574,47.2441 
  "/>
<polyline clip-path="url(#clip310)" style="stroke:#000000; stroke-width:4; stroke-opacity:1; fill:none" points="
  152.574,604.434 165.536,604.434 
  "/>
<polyline clip-path="url(#clip310)" style="stroke:#000000; stroke-width:4; stroke-opacity:1; fill:none" points="
  152.574,459.771 165.536,459.771 
  "/>
<polyline clip-path="url(#clip310)" style="stroke:#000000; stroke-width:4; stroke-opacity:1; fill:none" points="
  152.574,315.108 165.536,315.108 
  "/>
<polyline clip-path="url(#clip310)" style="stroke:#000000; stroke-width:4; stroke-opacity:1; fill:none" points="
  152.574,170.445 165.536,170.445 
  "/>
<path clip-path="url(#clip310)" d="M 0 0 M121.43 590.233 Q117.819 590.233 115.99 593.797 Q114.184 597.339 114.184 604.469 Q114.184 611.575 115.99 615.14 Q117.819 618.682 121.43 618.682 Q125.064 618.682 126.87 615.14 Q128.698 611.575 128.698 604.469 Q128.698 597.339 126.87 593.797 Q125.064 590.233 121.43 590.233 M121.43 586.529 Q127.24 586.529 130.295 591.135 Q133.374 595.719 133.374 604.469 Q133.374 613.195 130.295 617.802 Q127.24 622.385 121.43 622.385 Q115.62 622.385 112.541 617.802 Q109.485 613.195 109.485 604.469 Q109.485 595.719 112.541 591.135 Q115.62 586.529 121.43 586.529 Z" fill="#000000" fill-rule="evenodd" fill-opacity="1" /><path clip-path="url(#clip310)" d="M 0 0 M59.4393 473.116 L67.0782 473.116 L67.0782 446.75 L58.768 448.417 L58.768 444.158 L67.0319 442.491 L71.7078 442.491 L71.7078 473.116 L79.3466 473.116 L79.3466 477.051 L59.4393 477.051 L59.4393 473.116 Z" fill="#000000" fill-rule="evenodd" fill-opacity="1" /><path clip-path="url(#clip310)" d="M 0 0 M94.416 445.57 Q90.8049 445.57 88.9762 449.134 Q87.1707 452.676 87.1707 459.806 Q87.1707 466.912 88.9762 470.477 Q90.8049 474.019 94.416 474.019 Q98.0502 474.019 99.8558 470.477 Q101.684 466.912 101.684 459.806 Q101.684 452.676 99.8558 449.134 Q98.0502 445.57 94.416 445.57 M94.416 441.866 Q100.226 441.866 103.282 446.472 Q106.36 451.056 106.36 459.806 Q106.36 468.532 103.282 473.139 Q100.226 477.722 94.416 477.722 Q88.6058 477.722 85.5272 473.139 Q82.4716 468.532 82.4716 459.806 Q82.4716 451.056 85.5272 446.472 Q88.6058 441.866 94.416 441.866 Z" fill="#000000" fill-rule="evenodd" fill-opacity="1" /><path clip-path="url(#clip310)" d="M 0 0 M121.43 445.57 Q117.819 445.57 115.99 449.134 Q114.184 452.676 114.184 459.806 Q114.184 466.912 115.99 470.477 Q117.819 474.019 121.43 474.019 Q125.064 474.019 126.87 470.477 Q128.698 466.912 128.698 459.806 Q128.698 452.676 126.87 449.134 Q125.064 445.57 121.43 445.57 M121.43 441.866 Q127.24 441.866 130.295 446.472 Q133.374 451.056 133.374 459.806 Q133.374 468.532 130.295 473.139 Q127.24 477.722 121.43 477.722 Q115.62 477.722 112.541 473.139 Q109.485 468.532 109.485 459.806 Q109.485 451.056 112.541 446.472 Q115.62 441.866 121.43 441.866 Z" fill="#000000" fill-rule="evenodd" fill-opacity="1" /><path clip-path="url(#clip310)" d="M 0 0 M63.0273 328.453 L79.3466 328.453 L79.3466 332.388 L57.4023 332.388 L57.4023 328.453 Q60.0643 325.698 64.6476 321.069 Q69.2541 316.416 70.4346 315.073 Q72.68 312.55 73.5596 310.814 Q74.4624 309.055 74.4624 307.365 Q74.4624 304.61 72.518 302.874 Q70.5967 301.138 67.4948 301.138 Q65.2958 301.138 62.8421 301.902 Q60.4115 302.666 57.6338 304.217 L57.6338 299.495 Q60.4578 298.36 62.9115 297.782 Q65.3652 297.203 67.4023 297.203 Q72.7726 297.203 75.967 299.888 Q79.1614 302.573 79.1614 307.064 Q79.1614 309.194 78.3513 311.115 Q77.5642 313.013 75.4578 315.606 Q74.8791 316.277 71.7772 319.495 Q68.6754 322.689 63.0273 328.453 Z" fill="#000000" fill-rule="evenodd" fill-opacity="1" /><path clip-path="url(#clip310)" d="M 0 0 M94.416 300.907 Q90.8049 300.907 88.9762 304.471 Q87.1707 308.013 87.1707 315.143 Q87.1707 322.249 88.9762 325.814 Q90.8049 329.356 94.416 329.356 Q98.0502 329.356 99.8558 325.814 Q101.684 322.249 101.684 315.143 Q101.684 308.013 99.8558 304.471 Q98.0502 300.907 94.416 300.907 M94.416 297.203 Q100.226 297.203 103.282 301.809 Q106.36 306.393 106.36 315.143 Q106.36 323.869 103.282 328.476 Q100.226 333.059 94.416 333.059 Q88.6058 333.059 85.5272 328.476 Q82.4716 323.869 82.4716 315.143 Q82.4716 306.393 85.5272 301.809 Q88.6058 297.203 94.416 297.203 Z" fill="#000000" fill-rule="evenodd" fill-opacity="1" /><path clip-path="url(#clip310)" d="M 0 0 M121.43 300.907 Q117.819 300.907 115.99 304.471 Q114.184 308.013 114.184 315.143 Q114.184 322.249 115.99 325.814 Q117.819 329.356 121.43 329.356 Q125.064 329.356 126.87 325.814 Q128.698 322.249 128.698 315.143 Q128.698 308.013 126.87 304.471 Q125.064 300.907 121.43 300.907 M121.43 297.203 Q127.24 297.203 130.295 301.809 Q133.374 306.393 133.374 315.143 Q133.374 323.869 130.295 328.476 Q127.24 333.059 121.43 333.059 Q115.62 333.059 112.541 328.476 Q109.485 323.869 109.485 315.143 Q109.485 306.393 112.541 301.809 Q115.62 297.203 121.43 297.203 Z" fill="#000000" fill-rule="evenodd" fill-opacity="1" /><path clip-path="url(#clip310)" d="M 0 0 M72.217 169.091 Q75.5735 169.808 77.4485 172.077 Q79.3466 174.345 79.3466 177.679 Q79.3466 182.794 75.8281 185.595 Q72.3096 188.396 65.8282 188.396 Q63.6523 188.396 61.3375 187.956 Q59.0458 187.54 56.5921 186.683 L56.5921 182.169 Q58.5366 183.304 60.8514 183.882 Q63.1662 184.461 65.6893 184.461 Q70.0874 184.461 72.3791 182.725 Q74.6939 180.989 74.6939 177.679 Q74.6939 174.623 72.5411 172.91 Q70.4115 171.174 66.5921 171.174 L62.5643 171.174 L62.5643 167.332 L66.7773 167.332 Q70.2263 167.332 72.055 165.966 Q73.8837 164.577 73.8837 161.984 Q73.8837 159.322 71.9856 157.91 Q70.1106 156.475 66.5921 156.475 Q64.6708 156.475 62.4717 156.892 Q60.2727 157.308 57.6338 158.188 L57.6338 154.021 Q60.2958 153.281 62.6106 152.91 Q64.9486 152.54 67.0087 152.54 Q72.3328 152.54 75.4346 154.971 Q78.5365 157.378 78.5365 161.498 Q78.5365 164.369 76.8929 166.359 Q75.2494 168.327 72.217 169.091 Z" fill="#000000" fill-rule="evenodd" fill-opacity="1" /><path clip-path="url(#clip310)" d="M 0 0 M94.416 156.244 Q90.8049 156.244 88.9762 159.808 Q87.1707 163.35 87.1707 170.48 Q87.1707 177.586 88.9762 181.151 Q90.8049 184.693 94.416 184.693 Q98.0502 184.693 99.8558 181.151 Q101.684 177.586 101.684 170.48 Q101.684 163.35 99.8558 159.808 Q98.0502 156.244 94.416 156.244 M94.416 152.54 Q100.226 152.54 103.282 157.146 Q106.36 161.73 106.36 170.48 Q106.36 179.207 103.282 183.813 Q100.226 188.396 94.416 188.396 Q88.6058 188.396 85.5272 183.813 Q82.4716 179.207 82.4716 170.48 Q82.4716 161.73 85.5272 157.146 Q88.6058 152.54 94.416 152.54 Z" fill="#000000" fill-rule="evenodd" fill-opacity="1" /><path clip-path="url(#clip310)" d="M 0 0 M121.43 156.244 Q117.819 156.244 115.99 159.808 Q114.184 163.35 114.184 170.48 Q114.184 177.586 115.99 181.151 Q117.819 184.693 121.43 184.693 Q125.064 184.693 126.87 181.151 Q128.698 177.586 128.698 170.48 Q128.698 163.35 126.87 159.808 Q125.064 156.244 121.43 156.244 M121.43 152.54 Q127.24 152.54 130.295 157.146 Q133.374 161.73 133.374 170.48 Q133.374 179.207 130.295 183.813 Q127.24 188.396 121.43 188.396 Q115.62 188.396 112.541 183.813 Q109.485 179.207 109.485 170.48 Q109.485 161.73 112.541 157.146 Q115.62 152.54 121.43 152.54 Z" fill="#000000" fill-rule="evenodd" fill-opacity="1" /><polyline clip-path="url(#clip312)" style="stroke:#009af9; stroke-width:12; stroke-opacity:1; fill:none" points="
  183.145,604.419 235.474,548.976 279.295,496.53 316.815,447.08 349.45,400.628 378.211,357.172 403.828,316.714 426.842,279.252 447.658,244.787 466.587,213.319 
  483.879,184.848 499.732,159.374 514.316,136.897 527.772,117.417 540.247,100.934 551.955,87.448 563.096,76.9587 573.689,69.4664 585.04,64.971 602.338,63.4725 
  624.635,64.971 640.564,69.4664 654.805,76.9587 668.233,87.448 681.311,100.934 694.21,117.417 707.057,136.897 719.999,159.374 733.23,184.848 747.002,213.319 
  761.651,244.787 777.631,279.252 795.575,316.714 816.397,357.172 841.471,400.628 872.952,447.08 914.343,496.53 971.418,548.976 1054.02,604.419 
  "/>
<polyline clip-path="url(#clip312)" style="stroke:#e26f46; stroke-width:4; stroke-opacity:1; fill:none" points="
  187.766,599.839 1046.07,599.839 1070.84,540.243 1092.64,480.647 1112.22,421.05 1130.06,361.454 1146.48,301.858 1161.74,242.261 1176.02,182.665 1189.46,123.069 
  1202.18,63.4725 
  "/>
<path clip-path="url(#clip312)" d="M1053.55 590.734 L1046.62 586.734 L1046.62 578.734 L1053.55 574.734 L1060.48 578.734 L1060.48 586.734 Z" fill="#008000" fill-rule="evenodd" fill-opacity="0.6" stroke="#000000" stroke-opacity="0.6" stroke-width="4.32"/>
</svg>
