<?xml version="1.0" encoding="UTF-8" standalone="no"?>
<svg
   xmlns:dc="http://purl.org/dc/elements/1.1/"
   xmlns:cc="http://creativecommons.org/ns#"
   xmlns:rdf="http://www.w3.org/1999/02/22-rdf-syntax-ns#"
   xmlns:svg="http://www.w3.org/2000/svg"
   xmlns="http://www.w3.org/2000/svg"
   xmlns:sodipodi="http://sodipodi.sourceforge.net/DTD/sodipodi-0.dtd"
   xmlns:inkscape="http://www.inkscape.org/namespaces/inkscape"
   width="1024"
   height="407"
   viewBox="0 0 270.93331 107.68541"
   version="1.1"
   id="svg962"
   inkscape:version="1.0 (4035a4fb49, 2020-05-01)"
   sodipodi:docname="UTFPR-logo-W.svg">
  <defs
     id="defs956" />
  <sodipodi:namedview
     id="base"
     pagecolor="#ffffff"
     bordercolor="#666666"
     borderopacity="1.0"
     inkscape:pageopacity="0.0"
     inkscape:pageshadow="2"
     inkscape:zoom="0.94603152"
     inkscape:cx="460.91567"
     inkscape:cy="125.56103"
     inkscape:document-units="mm"
     inkscape:current-layer="layer1"
     showgrid="false"
     units="px"
     inkscape:document-rotation="0"
     inkscape:window-width="1920"
     inkscape:window-height="1055"
     inkscape:window-x="0"
     inkscape:window-y="0"
     inkscape:window-maximized="1" />
  <metadata
     id="metadata959">
    <rdf:RDF>
      <cc:Work
         rdf:about="">
        <dc:format>image/svg+xml</dc:format>
        <dc:type
           rdf:resource="http://purl.org/dc/dcmitype/StillImage" />
        <dc:title />
      </cc:Work>
    </rdf:RDF>
  </metadata>
  <g
     inkscape:label="Layer 1"
     inkscape:groupmode="layer"
     id="layer1"
     transform="translate(0,-189.31461)">
    <path
       style="fill:#7f7f7f;fill-opacity:1;stroke-width:0.99999994"
       d="m 10.058594,19.570312 0.365234,112.749998 c 0.397455,123.15077 0.150105,117.77232 6.304688,137.40625 13.042722,41.60789 45.790999,65.2673 97.910154,70.73828 h 0.002 c 20.59999,2.16192 49.7549,0.92333 68.18165,-2.89648 42.33263,-8.77546 69.87934,-32.94514 80.33007,-70.48242 5.29149,-19.00607 5.23876,-17.97293 5.6875,-110.76563 l 0.41993,-86.749998 h 36.43945 36.43945 v 133.499998 133.5 h 32 32 v -133.5 -133.499998 h 126.5 126.5 v -25 -25 h -227 -227 l -0.0176,98.749998 c -0.0208,105.2456 -0.21584,110.20135 -4.99218,127.25 -6.25369,22.32193 -19.39676,37.00524 -38.48829,42.9961 -9.62706,3.02093 -26.22666,3.77035 -37.23828,1.68164 -27.809269,-5.27498 -44.190597,-26.25287 -49.197262,-63 -0.694979,-5.10146 -1.064453,-42.58055 -1.064453,-107.75 V 19.570312 H 42.099609 Z"
       transform="matrix(0.26458333,0,0,0.26458333,0,189.31461)"
       id="path1657" />
    <path
       style="fill:#dfd2a0;fill-opacity:1;stroke-width:0.99999994"
       d="m 420.14062,82.570312 v 126.999998 127 h 31.5 31.5 v -102 -102 h 87.5 87.5 v -25 -24.999998 h -119 z"
       transform="matrix(0.26458333,0,0,0.26458333,0,189.31461)"
       id="path1655" />
    <path
       style="fill:#7f7f7f;fill-opacity:1;stroke-width:0.99999994"
       d="M 685.14062 146.57031 L 685.14062 241.07031 L 685.14062 335.57031 L 704.64062 335.57031 L 724.14062 335.57031 L 724.14062 300.20703 L 724.14062 264.8418 L 751.89062 264.27344 C 783.17963 263.63152 789.32774 262.71775 800.99805 256.97461 C 819.82879 247.70774 830.14063 229.34301 830.14062 205.07031 C 830.14063 186.67191 825.49447 174.11332 814.63086 163.13867 C 807.83663 156.27501 801.21247 152.35354 792.56445 150.07422 C 784.2603 147.88549 757.33019 146.62021 718.39062 146.59375 L 685.14062 146.57031 z M 724.14062 178.57031 L 735.39062 178.60742 C 752.50463 178.66392 771.28748 180.18743 775.24219 181.83984 C 780.20168 183.91205 785.87293 189.1447 788.39648 193.97656 C 790.02716 197.09883 790.53516 199.85147 790.53516 205.57031 C 790.53516 214.35654 788.42118 219.36102 782.52148 224.54102 C 777.50371 228.9467 773.98531 230.27802 764.06836 231.52148 L 764.06836 231.51953 C 759.46142 232.09719 748.59294 232.57031 739.91602 232.57031 L 724.14062 232.57031 L 724.14062 205.57031 L 724.14062 178.57031 z "
       transform="matrix(0.26458333,0,0,0.26458333,0,189.31461)"
       id="path1653" />
    <path
       style="fill:#7f7f7f;fill-opacity:1;stroke-width:0.99999994"
       d="M 841.14062 146.57031 L 841.14062 241.07031 L 841.14062 335.57031 L 860.64062 335.57031 L 880.14062 335.57031 L 880.14062 295.93359 L 880.14062 256.29688 L 890.69531 257.00391 C 896.50138 257.39286 903.36386 258.34098 905.94531 259.11133 C 915.33578 261.91355 920.53536 268.14357 949.14062 310.87109 L 965.64062 335.51562 L 988.44922 335.54297 C 1006.4203 335.56417 1011.1054 335.30518 1010.5371 334.32031 C 1007.0026 328.19411 983.38165 290.91864 978.02734 283.01758 C 970.2981 271.61198 961.37787 262.22881 952.8457 256.53125 C 947.08177 252.68225 947.04769 252.63251 949.82812 252.01758 C 971.32808 247.26267 983.82495 238.7618 990.74023 224.18945 C 995.10805 214.98536 996.50369 207.2652 995.82031 196.07031 C 994.94826 181.78487 991.12266 172.76105 981.67773 162.70898 C 968.57846 148.76763 955.2693 146.59324 882.89062 146.57812 L 841.14062 146.57031 z M 880.14062 178.57031 L 899.39062 178.63477 C 909.97814 178.66997 923.88559 179.05188 930.29688 179.48438 C 944.12729 180.41738 949.44336 182.78897 953.53516 189.84766 C 960.57982 202.00024 956.22611 217.84116 944.31641 223.39453 C 938.65218 226.03585 938.5741 226.04304 909.39062 226.40625 L 880.14062 226.77148 L 880.14062 202.67188 L 880.14062 178.57031 z "
       transform="matrix(0.26458333,0,0,0.26458333,0,189.31461)"
       id="path1651" />
    <path
       style="fill:#7f7f7f;fill-opacity:1;stroke-width:0.99999994"
       d="m 498.14062,147.57031 v 94.5 94.5 h 30 30 v -69.5 -69.5 h 50 50 v -25 -25 h -80 z"
       transform="matrix(0.26458333,0,0,0.26458333,0,189.31461)"
       id="path1649" />
    <g
       id="g1798">
      <path
         id="path1643"
         d="m 127.0956,282.33425 c -0.79538,0 -1.38131,0.55436 -1.38131,1.30587 0,0.52773 0.69269,0.28377 1.45521,-0.51212 l 0.76016,-0.79375 z"
         style="fill:#808080;fill-opacity:1;stroke-width:0.26458332"
         inkscape:connector-curvature="0" />
      <path
         id="path1641"
         d="m 265.77086,282.33425 c -0.60135,0 -0.87736,0.16778 -1.10794,0.67387 -0.16889,0.37063 -0.30697,0.72785 -0.30697,0.79375 10e-6,0.38012 0.80057,0.009 1.45521,-0.67387 l 0.76017,-0.79375 z"
         style="fill:#808080;fill-opacity:1;stroke-width:0.26458332"
         inkscape:connector-curvature="0" />
      <path
         id="path1639"
         d="m 144.78754,284.21269 c -0.85104,0.0338 -1.68964,0.43624 -2.36678,1.17512 -0.85739,0.93562 -0.8848,1.03272 -0.786,2.78175 0.11511,2.03727 0.71877,2.97808 2.1885,3.41012 1.2053,0.35432 2.30837,0.0714 3.12384,-0.8015 0.71504,-0.76542 0.9621,-1.56476 0.48421,-1.56476 -0.13362,0 -0.42014,-0.0681 -0.63717,-0.15141 -0.2493,-0.0957 -0.45896,0.0508 -0.56896,0.39739 -0.23097,0.72772 -1.09066,1.16125 -1.90014,0.95808 -1.33993,-0.3363 -1.78665,-3.22125 -0.68833,-4.44521 0.55634,-0.62002 1.72751,-0.58656 2.3182,0.0661 0.5088,0.56222 1.31803,0.70043 1.58389,0.27027 0.26238,-0.42455 -0.35161,-1.29337 -1.23817,-1.75183 -0.4873,-0.252 -1.00246,-0.36442 -1.51309,-0.34417 z"
         style="fill:#808080;fill-opacity:1;stroke-width:0.26458332"
         inkscape:connector-curvature="0" />
      <path
         id="path1637"
         d="m 97.77491,284.21889 c -0.885992,0.0269 -1.850248,0.36404 -2.36678,0.88057 -1.829232,1.82923 -1.246056,5.38572 1.046964,6.38411 1.000958,0.43581 0.876855,0.42961 2.060855,0.10077 0.96029,-0.2667 2.062921,-1.32419 2.062921,-1.9787 0,-0.18168 -0.26343,-0.39907 -0.584974,-0.48317 -0.439941,-0.11505 -0.759468,0.0564 -1.290878,0.69298 -0.63346,0.75879 -0.78336,0.81875 -1.45986,0.58085 -0.414769,-0.14587 -0.91072,-0.56104 -1.101741,-0.92243 -0.451149,-0.85352 -0.258024,-2.77867 0.345715,-3.44578 0.62303,-0.6885 1.837497,-0.672 2.330609,0.032 0.414189,0.59137 1.504829,0.62506 1.693439,0.0522 0.14698,-0.44644 -1.063082,-1.60273 -1.896012,-1.81178 -0.258448,-0.0649 -0.544928,-0.0906 -0.840258,-0.0817 z"
         style="fill:#808080;fill-opacity:1;stroke-width:0.26458332"
         inkscape:connector-curvature="0" />
      <path
         id="path1635"
         d="m 134.36234,284.22561 c -0.55874,0.0111 -1.12651,0.13334 -1.63504,0.37466 -2.83506,1.34533 -2.36768,6.26959 0.66352,6.99078 1.07333,0.25537 2.16153,0.10969 3.36982,-0.45113 0.82759,-0.3841 0.8599,-0.45771 0.8599,-1.95647 v -1.55753 h -1.5875 c -1.5169,0 -1.5875,0.0294 -1.5875,0.66146 0,0.56186 0.12194,0.66146 0.81183,0.66146 0.68312,0 0.79871,0.0913 0.72761,0.57464 -0.11402,0.77488 -1.31793,1.16903 -2.31252,0.75706 -0.87394,-0.362 -1.34359,-1.25238 -1.34359,-2.54661 0,-1.82032 2.18196,-2.93898 3.30729,-1.69551 0.26339,0.29104 0.70208,0.52917 0.97514,0.52917 0.81015,0 0.88767,-0.77063 0.15141,-1.50689 -0.56309,-0.56309 -1.46914,-0.85359 -2.40037,-0.83509 z"
         style="fill:#808080;fill-opacity:1;stroke-width:0.26458332"
         inkscape:connector-curvature="0" />
      <path
         id="path1633"
         d="m 219.57058,284.22665 c -0.54575,-0.002 -1.10134,0.11457 -1.6211,0.36121 -1.22329,0.58049 -1.74769,1.63767 -1.74769,3.52175 0,1.3263 0.114,1.72858 0.68316,2.40502 0.37587,0.4467 1.06049,0.92503 1.52136,1.06299 0.89653,0.26836 2.37517,0.13409 3.16259,-0.28732 1.46528,-0.7842 2.00063,-3.78464 0.97565,-5.46582 -0.62018,-1.01721 -1.77333,-1.5936 -2.97397,-1.59783 z m 0.061,1.25573 c 0.4672,-0.0102 0.94261,0.16643 1.33274,0.55656 0.80874,0.80874 0.74051,2.98739 -0.12041,3.84834 -0.78871,0.78872 -1.44185,0.82116 -2.33732,0.11679 -0.84288,-0.66301 -1.11766,-1.82744 -0.71727,-3.04064 0.30658,-0.92898 1.06359,-1.46409 1.84226,-1.48105 z"
         style="fill:#808080;fill-opacity:1;stroke-width:0.26458332"
         inkscape:connector-curvature="0" />
      <path
         id="path1631"
         d="m 112.27377,284.26075 c -0.88411,2.2e-4 -1.74651,0.27166 -2.31356,0.83871 -1.89665,1.89665 -1.10705,5.77336 1.3193,6.47661 0.96505,0.2797 2.44065,0.0818 3.23288,-0.43357 1.45072,-0.94376 1.83823,-4.04566 0.69763,-5.58674 -0.6268,-0.84689 -1.79954,-1.29528 -2.93625,-1.29501 z m 0.22117,1.2485 c 1.72672,0 2.54973,3.021 1.19269,4.37803 -1.5334,1.53341 -3.61497,-0.0548 -3.22926,-2.46393 0.18546,-1.15836 0.98948,-1.9141 2.03657,-1.9141 z"
         style="fill:#808080;fill-opacity:1;stroke-width:0.26458332"
         inkscape:connector-curvature="0" />
      <path
         id="path1629"
         d="m 126.20728,284.2623 c -1.05507,0.036 -2.05453,0.43194 -2.51406,1.13326 -1.4869,2.2693 -0.63811,5.52915 1.60921,6.18051 0.99058,0.2871 2.44668,0.0781 3.2923,-0.47233 1.78756,-1.16371 1.75449,-5.06304 -0.0527,-6.24716 -0.65992,-0.4324 -1.51412,-0.62227 -2.33474,-0.59428 z m 0.34003,1.24695 c 1.69841,0 2.50516,3.03612 1.16324,4.37803 -1.56787,1.56788 -3.66918,-0.18213 -3.20291,-2.66754 0.19374,-1.03274 1.00167,-1.71049 2.03967,-1.71049 z"
         style="fill:#808080;fill-opacity:1;stroke-width:0.26458332"
         inkscape:connector-curvature="0" />
      <path
         id="path1627"
         d="m 43.29658,284.31863 c -1.327089,0 -1.57739,0.0886 -2.159039,0.76481 -0.49085,0.57029 -0.6149,0.94045 -0.488861,1.45521 0.241091,0.98462 0.681538,1.34611 2.273248,1.865 1.68203,0.54834 2.209649,1.18609 1.44849,1.75132 -0.77466,0.57523 -1.635453,0.46024 -2.232422,-0.29869 -0.37615,-0.47819 -0.736047,-0.65512 -1.211297,-0.59532 l -0.675925,0.0847 0.464571,0.92604 c 0.31591,0.62988 0.760733,1.02699 1.39061,1.24179 1.170231,0.39904 1.245058,0.4011 2.468068,0.0615 0.798679,-0.22177 1.098198,-0.48419 1.413867,-1.23971 0.35909,-0.85941 0.358008,-1.04809 -0.01085,-1.8216 -0.346948,-0.72756 -0.672174,-0.93968 -2.075325,-1.35289 -1.30392,-0.384 -1.663465,-0.60127 -1.663465,-1.00459 3e-6,-0.78137 1.537531,-0.86365 2.064991,-0.11058 0.25327,0.36159 0.613069,0.53368 0.996839,0.47748 0.852839,-0.12489 0.899102,-0.5746 0.148312,-1.44745 -0.573849,-0.66711 -0.828437,-0.75706 -2.151809,-0.75706 z"
         style="fill:#808080;fill-opacity:1;stroke-width:0.26458332"
         inkscape:connector-curvature="0" />
      <path
         id="path1625"
         d="m 254.83095,284.41785 v 3.58841 l -5.3e-4,3.58893 h 0.78342 0.7829 l 0.077,-2.16886 0.0765,-2.16834 1.30949,2.16834 c 1.13955,1.88722 1.40556,2.16886 2.05052,2.16886 h 0.74104 v -3.57188 -3.57187 h -0.65113 c -0.6345,0 -0.6531,0.0568 -0.7276,2.24069 l -0.076,2.2412 -1.34203,-2.17506 c -1.17726,-1.90824 -1.44487,-2.18504 -2.18281,-2.25774 z"
         style="fill:#808080;fill-opacity:1;stroke-width:0.26458332"
         inkscape:connector-curvature="0" />
      <path
         id="path1623"
         d="m 25.920381,284.42095 -0.816487,0.0811 c -0.77993,0.0776 -0.853682,0.19334 -1.647962,2.57969 l -0.831473,2.49804 -0.901237,-2.56419 c -0.84754,-2.41107 -0.945423,-2.56418 -1.636593,-2.56418 -0.4043,0 -0.734839,0.0962 -0.734839,0.21394 0,0.11778 0.535785,1.68849 1.190625,3.49023 0.65485,1.80172 1.190625,3.31241 1.190625,3.35741 0,0.0451 0.359781,0.0822 0.799951,0.0822 0.89817,0 0.758856,0.25291 2.375566,-4.31499 z"
         style="fill:#808080;fill-opacity:1;stroke-width:0.26458332"
         inkscape:connector-curvature="0" />
      <path
         id="path1621"
         d="m 2.3435262,284.45092 0.1384928,2.92644 c 0.12124,2.55791 0.2130916,3.00587 0.7312215,3.5574 0.3260301,0.34704 0.9060235,0.68311 1.2882935,0.74621 1.2906999,0.21319 2.5313137,-0.0929 3.1424438,-0.77463 0.5406099,-0.60313 0.5953125,-0.92973 0.5953125,-3.55947 v -2.89595 H 7.5778319 c -0.65846,0 -0.6614583,0.0127 -0.6614583,2.45463 0,2.67767 -0.363248,3.63079 -1.3833782,3.63079 -1.2310599,0 -1.5270384,-0.6747 -1.5270384,-3.48041 v -2.60501 H 3.1744832 Z"
         style="fill:#808080;fill-opacity:1;stroke-width:0.26458332"
         inkscape:connector-curvature="0" />
      <path
         id="path1619"
         d="m 9.8267902,284.45144 v 3.57187 l -5.291e-4,3.57188 h 0.6511229 c 0.636,0 0.652904,-0.0537 0.727604,-2.30115 l 0.07648,-2.30064 1.409733,2.30064 c 1.252821,2.04497 1.495543,2.30115 2.182813,2.30115 h 0.773596 v -3.57188 -3.57187 h -0.661458 c -0.65748,0 -0.661492,0.0135 -0.662492,2.44739 l -10e-4,2.4474 -1.468644,-2.4474 c -1.32044,-2.20053 -1.547175,-2.44739 -2.247925,-2.44739 z"
         style="fill:#808080;fill-opacity:1;stroke-width:0.26458332"
         inkscape:connector-curvature="0" />
      <path
         id="path1617"
         d="m 16.97054,284.45144 v 3.57187 3.57188 h 0.79375 0.79375 v -3.57188 -3.57187 h -0.79375 z"
         style="fill:#808080;fill-opacity:1;stroke-width:0.26458332"
         inkscape:connector-curvature="0" />
      <path
         id="path1615"
         d="m 26.760122,284.45144 v 3.57187 3.57188 h 2.778125 2.778125 v -0.66146 c 0,-0.65046 -0.03527,-0.66146 -2.116667,-0.66146 h -2.116666 v -0.92604 -0.92604 h 1.852083 c 1.79919,0 1.852083,-0.0189 1.852083,-0.66146 0,-0.64256 -0.05291,-0.66146 -1.852083,-0.66146 h -1.852083 v -0.79375 -0.79375 h 1.984375 c 1.80799,0 1.984375,-0.047 1.984375,-0.52916 0,-0.49388 -0.176393,-0.52917 -2.645834,-0.52917 z"
         style="fill:#808080;fill-opacity:1;stroke-width:0.26458332"
         inkscape:connector-curvature="0" />
      <path
         id="path1613"
         d="m 33.374705,284.45144 v 3.57187 3.57188 h 0.79375 c 0.785752,0 0.793753,-0.0147 0.79375,-1.45521 0,-1.35254 0.04377,-1.45521 0.623737,-1.45521 0.462859,0 0.873392,0.37579 1.590082,1.45521 0.81266,1.22396 1.092176,1.45521 1.757516,1.45521 0.435081,0 0.791165,-0.0919 0.791165,-0.20361 0,-0.31406 -1.340405,-2.26914 -1.816425,-2.64945 -0.37991,-0.30352 -0.361331,-0.35577 0.177249,-0.49661 0.759302,-0.19856 1.460847,-1.50894 1.224217,-2.28617 -0.4025,-1.32203 -0.829731,-1.50791 -3.462838,-1.50791 z m 1.5875,1.02939 1.229384,0.0806 c 1.40698,0.0923 2.016927,0.67957 1.434536,1.38131 -0.220397,0.26557 -0.77185,0.4191 -1.505849,0.4191 -1.151221,0 -1.158068,-0.006 -1.158071,-0.94052 z"
         style="fill:#808080;fill-opacity:1;stroke-width:0.26458332"
         inkscape:connector-curvature="0" />
      <path
         id="path1611"
         d="m 47.397622,284.45144 v 3.57187 3.57188 h 0.79375 0.79375 v -3.57188 -3.57187 h -0.79375 z"
         style="fill:#808080;fill-opacity:1;stroke-width:0.26458332"
         inkscape:connector-curvature="0" />
      <path
         id="path1609"
         d="m 50.308038,284.45144 v 3.59874 3.59927 l 2.273766,-0.0935 c 2.157386,-0.0886 2.306659,-0.13386 2.903696,-0.88263 1.233742,-1.54725 1.059506,-4.58964 -0.325043,-5.67872 -0.56379,-0.44346 -1.072938,-0.54312 -2.771407,-0.54312 z m 1.322917,1.05833 h 0.937929 c 1.362369,0 2.237074,0.95458 2.237071,2.44223 3e-6,0.62908 -0.18533,1.40877 -0.411861,1.73219 -0.32054,0.45763 -0.672589,0.58808 -1.5875,0.58808 h -1.175639 v -2.38125 z"
         style="fill:#808080;fill-opacity:1;stroke-width:0.26458332"
         inkscape:connector-curvature="0" />
      <path
         id="path1607"
         d="m 64.860122,284.45144 v 3.57187 3.57188 l 1.918229,-0.004 c 1.055031,-0.002 2.21589,-0.15257 2.579687,-0.33435 1.386832,-0.69294 1.992392,-3.20753 1.218531,-5.05964 -0.58506,-1.40025 -1.309341,-1.74562 -3.65869,-1.74562 z m 1.5875,0.98857 1.115179,0.14934 c 0.61641,0.0827 1.267277,0.35794 1.455208,0.61495 0.489799,0.66989 0.438436,3.13759 -0.07597,3.65198 -0.23686,0.23687 -0.863049,0.41599 -1.455208,0.41599 h -1.039214 v -2.41639 z"
         style="fill:#808080;fill-opacity:1;stroke-width:0.26458332"
         inkscape:connector-curvature="0" />
      <path
         id="path1605"
         d="m 72.268455,284.45144 v 3.57187 3.57188 h 2.645833 2.645833 v -0.66146 c 0,-0.64675 -0.0441,-0.66146 -1.984375,-0.66146 h -1.984375 v -0.92604 -0.92604 h 1.852084 c 1.799182,0 1.852083,-0.0189 1.852083,-0.66146 0,-0.64255 -0.05292,-0.66146 -1.852083,-0.66146 h -1.852084 v -0.79375 -0.79375 h 1.984375 c 1.807983,0 1.984375,-0.047 1.984375,-0.52916 0,-0.49388 -0.176392,-0.52917 -2.645833,-0.52917 z"
         style="fill:#808080;fill-opacity:1;stroke-width:0.26458332"
         inkscape:connector-curvature="0" />
      <path
         id="path1603"
         d="m 84.042413,284.45144 c -2.60173,0 -2.778125,0.0336 -2.778125,0.52917 0,0.44096 0.176395,0.52916 1.058333,0.52916 h 1.058334 v 3.04271 3.04271 h 0.661458 0.661458 v -3.04271 -3.04271 h 1.058334 c 0.881941,0 1.058333,-0.0882 1.058333,-0.52916 0,-0.49557 -0.176385,-0.52917 -2.778125,-0.52917 z"
         style="fill:#808080;fill-opacity:1;stroke-width:0.26458332"
         inkscape:connector-curvature="0" />
      <path
         id="path1601"
         d="m 87.878871,284.45144 v 3.57187 3.57188 h 2.778125 2.778125 v -0.66146 c 0,-0.65045 -0.03527,-0.66146 -2.116666,-0.66146 h -2.116667 v -0.92604 -0.92604 h 1.852083 c 1.799191,0 1.852084,-0.0189 1.852084,-0.66146 0,-0.64255 -0.05291,-0.66146 -1.852084,-0.66146 h -1.852083 v -0.79375 -0.79375 h 1.984375 c 1.80799,0 1.984375,-0.047 1.984375,-0.52916 0,-0.49388 -0.176393,-0.52917 -2.645833,-0.52917 z"
         style="fill:#808080;fill-opacity:1;stroke-width:0.26458332"
         inkscape:connector-curvature="0" />
      <path
         id="path1599"
         d="m 101.90179,284.45144 v 3.57187 l -5.3e-4,3.57188 h 0.65164 c 0.6358,0 0.653,-0.0543 0.7276,-2.29289 l 0.0765,-2.29236 1.3994,2.29236 c 1.2508,2.04892 1.48278,2.29289 2.18282,2.29289 h 0.78341 v -3.57188 -3.57187 h -0.66146 c -0.65746,0 -0.66146,0.0132 -0.66146,2.44533 v 2.44532 l -1.48725,-2.44532 c -1.32186,-2.17381 -1.5717,-2.44533 -2.24895,-2.44533 z"
         style="fill:#808080;fill-opacity:1;stroke-width:0.26458332"
         inkscape:connector-curvature="0" />
      <path
         id="path1597"
         d="m 116.98304,284.45144 v 3.57187 3.57188 h 2.64583 2.64583 v -0.66146 c 1e-5,-0.64255 -0.0529,-0.66146 -1.85208,-0.66146 h -1.85208 v -2.91041 -2.91042 h -0.79375 z"
         style="fill:#808080;fill-opacity:1;stroke-width:0.26458332"
         inkscape:connector-curvature="0" />
      <path
         id="path1595"
         d="m 138.94345,284.45144 v 3.57187 3.57188 h 0.66146 0.66146 v -3.57188 -3.57187 h -0.66146 z"
         style="fill:#808080;fill-opacity:1;stroke-width:0.26458332"
         inkscape:connector-curvature="0" />
      <path
         id="path1593"
         d="m 158.7872,284.45144 v 3.57187 3.57188 h 0.79375 0.79375 v -1.5875 -1.5875 h 1.45521 c 1.27881,0 1.45521,-0.0641 1.45521,-0.52917 0,-0.46507 -0.1764,-0.52916 -1.45521,-0.52916 h -1.45521 v -0.92605 -0.92604 h 1.7198 c 1.5434,0 1.71979,-0.0543 1.71979,-0.52916 0,-0.49208 -0.17639,-0.52917 -2.51354,-0.52917 z"
         style="fill:#808080;fill-opacity:1;stroke-width:0.26458332"
         inkscape:connector-curvature="0" />
      <path
         id="path1591"
         d="m 164.87262,284.45144 v 3.57187 3.57188 h 2.77813 2.77812 v -0.66146 c 0,-0.64675 -0.0441,-0.66146 -1.98437,-0.66146 h -1.98438 v -0.92604 -0.92604 h 1.85208 c 1.79919,0 1.85209,-0.0189 1.85209,-0.66146 0,-0.64255 -0.0529,-0.66146 -1.85209,-0.66146 h -1.85208 v -0.79375 -0.79375 h 1.98438 c 1.80798,0 1.98437,-0.047 1.98437,-0.52916 0,-0.49557 -0.17639,-0.52917 -2.77812,-0.52917 z"
         style="fill:#808080;fill-opacity:1;stroke-width:0.26458332"
         inkscape:connector-curvature="0" />
      <path
         id="path1589"
         d="m 171.75179,284.45144 v 3.57187 3.57188 h 1.865 c 2.412,0 3.24223,-0.42672 3.83077,-1.96784 0.61901,-1.62085 0.34837,-3.40594 -0.67127,-4.42557 -0.70066,-0.70064 -0.8932,-0.75034 -2.88768,-0.75034 z m 1.32291,1.05833 h 0.93793 c 1.36237,0 2.23707,0.95458 2.23707,2.44223 1e-5,0.62908 -0.18533,1.40877 -0.41186,1.73219 -0.32054,0.45763 -0.67258,0.58808 -1.5875,0.58808 h -1.17564 v -2.38125 z"
         style="fill:#808080;fill-opacity:1;stroke-width:0.26458332"
         inkscape:connector-curvature="0" />
      <path
         id="path1587"
         d="m 178.89554,284.45144 v 3.57187 3.57188 h 2.77812 2.77813 v -0.66146 c 0,-0.64675 -0.0441,-0.66146 -1.98438,-0.66146 h -1.98437 v -0.92604 -0.92604 h 1.85208 c 1.79919,0 1.85208,-0.0189 1.85208,-0.66146 0,-0.64255 -0.0529,-0.66146 -1.85208,-0.66146 h -1.85208 v -0.79375 -0.79375 h 1.98437 c 1.80798,0 1.98438,-0.047 1.98438,-0.52916 0,-0.49557 -0.1764,-0.52917 -2.77813,-0.52917 z"
         style="fill:#808080;fill-opacity:1;stroke-width:0.26458332"
         inkscape:connector-curvature="0" />
      <path
         id="path1585"
         d="m 185.7747,284.45144 v 3.57187 3.57136 h 0.66146 c 0.62635,0 0.66146,-0.0782 0.66146,-1.47278 0,-1.44856 0.0115,-1.47136 0.72296,-1.38906 0.53214,0.0616 0.9692,0.44807 1.65364,1.46296 0.79985,1.18602 1.05217,1.38106 1.79731,1.38906 l 0.86661,0.0103 -0.39429,-0.76223 c -0.21673,-0.41912 -0.69082,-1.11492 -1.05368,-1.54616 l -0.65991,-0.78393 0.78238,-0.57878 c 0.96207,-0.71129 1.08325,-2.11398 0.25373,-2.94349 -0.45077,-0.45077 -0.88195,-0.52916 -2.91042,-0.52916 z m 2.4474,1.06246 c 1.41195,0.005 1.85602,0.28156 1.74253,1.08418 -0.0794,0.56169 -0.24252,0.63996 -1.47795,0.71106 l -1.38906,0.0801 v -0.93999 c 0,-0.92981 0.0118,-0.93935 1.12448,-0.93535 z"
         style="fill:#808080;fill-opacity:1;stroke-width:0.26458332"
         inkscape:connector-curvature="0" />
      <path
         id="path1583"
         d="m 200.32679,284.45144 v 3.57187 3.57188 h 2.51354 c 2.50454,0 2.51354,-0.002 2.51354,-0.66146 0,-0.63775 -0.0617,-0.66146 -1.71979,-0.66146 h -1.71979 v -2.91041 -2.91042 h -0.79375 z"
         style="fill:#808080;fill-opacity:1;stroke-width:0.26458332"
         inkscape:connector-curvature="0" />
      <path
         id="path1581"
         d="m 209.05804,284.45144 v 3.57187 3.57188 h 2.08101 c 1.66839,0 2.21174,-0.10331 2.74195,-0.52038 1.54231,-1.21318 1.7221,-4.38355 0.33073,-5.83582 -0.71895,-0.7504 -0.85951,-0.78755 -2.95434,-0.78755 z m 1.5875,0.98857 1.11518,0.14934 c 0.61641,0.0827 1.26727,0.35794 1.4552,0.61495 0.40774,0.55766 0.4502,2.83824 0.0661,3.55586 -0.20801,0.38867 -0.55807,0.51211 -1.45521,0.51211 h -1.18132 v -2.41639 z"
         style="fill:#808080;fill-opacity:1;stroke-width:0.26458332"
         inkscape:connector-curvature="0" />
      <path
         id="path1579"
         d="m 227.0497,284.45144 v 3.57187 3.57188 h 0.79375 c 0.77335,0 0.79376,-0.0332 0.79375,-1.28933 v -1.28933 l 1.37305,-0.13177 c 1.06605,-0.10243 1.51023,-0.29111 1.98437,-0.84233 0.7577,-0.88089 0.78147,-1.97989 0.0625,-2.89388 -0.51491,-0.65464 -0.68443,-0.69711 -2.77812,-0.69711 z m 2.26602,1.05833 c 1.42109,0 2.1879,0.99588 1.38492,1.79886 -0.17463,0.17463 -0.7104,0.31781 -1.19062,0.31781 -0.84222,0 -0.87282,-0.0374 -0.87282,-1.05833 0,-0.95974 0.0629,-1.05834 0.67852,-1.05834 z"
         style="fill:#808080;fill-opacity:1;stroke-width:0.26458332"
         inkscape:connector-curvature="0" />
      <path
         id="path1577"
         d="m 235.90291,284.45144 c -0.83402,0 -0.85731,0.036 -2.09651,3.24114 -0.68921,1.78263 -1.31361,3.38998 -1.38752,3.57188 -0.0899,0.2211 0.12973,0.33073 0.66198,0.33073 0.64675,0 0.84803,-0.14896 1.0728,-0.79375 0.26306,-0.75455 0.34998,-0.79375 1.75958,-0.79375 1.40961,0 1.49601,0.0391 1.75907,0.79375 0.22477,0.64479 0.42605,0.79375 1.0728,0.79375 0.64666,0 0.76441,-0.087 0.62632,-0.46302 -0.0935,-0.25466 -0.72217,-1.86201 -1.39733,-3.57188 -1.20898,-3.06186 -1.24057,-3.10885 -2.07119,-3.10885 z m 0.0413,1.5875 0.42323,1.32292 0.42272,1.32291 h -0.91933 c -0.99823,0 -1.00737,-0.0744 -0.23926,-1.90117 z"
         style="fill:#808080;fill-opacity:1;stroke-width:0.26458332"
         inkscape:connector-curvature="0" />
      <path
         id="path1575"
         d="m 240.27887,284.45144 v 3.57187 3.57188 h 0.79375 c 0.78575,0 0.79375,-0.0147 0.79375,-1.45521 0,-1.35253 0.0438,-1.45521 0.62374,-1.45521 0.46286,0 0.87339,0.3758 1.59008,1.45521 l 0.96635,1.45521 h 1.73064 c 1.68529,0 1.73821,-0.0209 2.00763,-0.79375 0.26183,-0.75105 0.35424,-0.79375 1.71979,-0.79375 1.36555,0 1.45796,0.0426 1.71979,0.79375 0.22174,0.63605 0.42959,0.79375 1.0449,0.79375 0.42233,0 0.76792,-0.0581 0.76791,-0.12919 0,-0.0711 -0.60415,-1.67842 -1.34203,-3.57188 -1.33221,-3.41856 -1.34754,-3.44268 -2.18953,-3.44268 -0.84317,0 -0.85487,0.0193 -2.1637,3.43855 -0.72392,1.89121 -1.39324,3.43905 -1.48724,3.43958 -0.094,5.3e-4 -0.55267,-0.59427 -1.01958,-1.32188 -0.4669,-0.7276 -0.98565,-1.32777 -1.15238,-1.33377 -0.16673,-0.006 0.0298,-0.19124 0.43666,-0.41186 1.27579,-0.69173 1.50809,-2.2122 0.51108,-3.3476 -0.33275,-0.37892 -0.8559,-0.46302 -2.87941,-0.46302 z m 1.5875,1.02939 1.22938,0.0806 c 1.40697,0.0923 2.01694,0.67956 1.43454,1.38131 -0.2204,0.26556 -0.77185,0.4191 -1.50585,0.4191 -1.15023,0 -1.15807,-0.006 -1.15807,-0.94052 z m 8.56744,0.55811 0.31316,0.74466 c 0.17216,0.40946 0.39515,1.00488 0.49609,1.32291 0.16468,0.51883 0.0893,0.57826 -0.73587,0.57826 h -0.91933 l 0.42272,-1.32291 z"
         style="fill:#808080;fill-opacity:1;stroke-width:0.26458332"
         inkscape:connector-curvature="0" />
      <path
         id="path1573"
         d="m 265.05461,284.45195 c -0.82345,8e-4 -0.8439,0.034 -2.19262,3.57188 l -1.36116,3.57136 h 0.7798 c 0.62863,0 0.83323,-0.15392 1.05626,-0.79375 0.26213,-0.75195 0.3533,-0.79375 1.72909,-0.79375 1.37073,0 1.46908,0.0446 1.75184,0.79375 0.23394,0.61983 0.46108,0.79375 1.0356,0.79375 0.40468,0 0.73639,-0.0893 0.73639,-0.19844 0,-0.10914 -0.60746,-1.71649 -1.35133,-3.57187 -1.33083,-3.31923 -1.36599,-3.37372 -2.18387,-3.37293 z m -0.006,1.85157 c 0.11515,0 0.40518,0.69463 0.74517,1.78594 0.16804,0.53942 0.0982,0.59531 -0.74258,0.59531 h -0.92759 l 0.40566,-1.19062 c 0.22311,-0.65484 0.45663,-1.19063 0.51934,-1.19063 z"
         style="fill:#808080;fill-opacity:1;stroke-width:0.26458332"
         inkscape:connector-curvature="0" />
      <path
         id="path1571"
         d="m 60.846414,284.45712 c -0.118285,0.001 -0.255233,0.035 -0.437182,0.0507 -0.85788,0.074 -0.905272,0.14461 -2.013831,2.98638 -0.624441,1.60073 -1.219203,3.1783 -1.321882,3.50573 -0.163621,0.5217 -0.09352,0.59531 0.566891,0.59531 0.594339,0 0.816864,-0.16772 1.053163,-0.79375 0.282771,-0.74915 0.381122,-0.79375 1.751833,-0.79375 1.375799,0 1.466972,0.0418 1.729092,0.79375 0.225552,0.647 0.424968,0.79375 1.080039,0.79375 h 0.804085 l -0.485759,-1.25677 c -2.043544,-5.28782 -2.213872,-5.88732 -2.726449,-5.8813 z m -0.363802,2.00867 c 0.03487,0.005 0.06299,0.0385 0.08372,0.10232 0.07086,0.21827 0.286057,0.78383 0.478007,1.25677 l 0.348816,0.85989 h -0.912606 c -1.04322,0 -1.07147,-0.0894 -0.477491,-1.48931 0.209754,-0.49434 0.374952,-0.74354 0.479558,-0.72967 z"
         style="fill:#808080;fill-opacity:1;stroke-width:0.26458332"
         inkscape:connector-curvature="0" />
      <path
         id="path1569"
         d="m 151.88737,284.58373 c -0.85871,0 -0.874,0.0227 -2.12597,3.175 -0.69356,1.74625 -1.26792,3.32383 -1.27693,3.50573 -0.009,0.19279 0.30612,0.33073 0.75655,0.33073 0.64346,0 0.80206,-0.13279 0.94723,-0.79375 0.16884,-0.76875 0.22163,-0.79375 1.68258,-0.79375 1.43311,0 1.52352,0.0397 1.80816,0.79375 0.24121,0.63906 0.4542,0.79375 1.09347,0.79375 h 0.79427 l -1.40715,-3.50573 c -1.40314,-3.49573 -1.40971,-3.50573 -2.27221,-3.50573 z m -0.0537,1.5875 0.43408,1.02423 c 0.23864,0.56348 0.43408,1.12902 0.43408,1.25677 0,0.12776 -0.35719,0.23254 -0.79375,0.23254 -0.87737,0 -0.92688,-0.18931 -0.41393,-1.5875 z"
         style="fill:#808080;fill-opacity:1;stroke-width:0.26458332"
         inkscape:connector-curvature="0" />
      <path
         id="path1567"
         d="m 195.84541,284.58373 c -0.86515,0 -0.88022,0.0222 -1.99419,2.91042 -0.6174,1.60073 -1.20738,3.1783 -1.31052,3.50573 -0.16581,0.52641 -0.0959,0.59531 0.60306,0.59531 0.66327,0 0.81906,-0.1278 0.96532,-0.79375 0.16937,-0.77115 0.21798,-0.79375 1.71462,-0.79375 1.4739,0 1.55274,0.0344 1.81746,0.79375 0.22572,0.6475 0.42514,0.79375 1.08211,0.79375 h 0.80512 l -0.44494,-1.12448 c -2.42073,-6.11297 -2.29656,-5.88698 -3.23804,-5.88698 z m 0.093,1.87224 c 0.0349,0.009 0.0635,0.046 0.0863,0.11214 0.0754,0.21827 0.29432,0.78383 0.48627,1.25677 l 0.34882,0.85989 h -0.91261 c -1.03415,0 -1.08248,-0.15355 -0.48576,-1.53014 0.21304,-0.49148 0.37221,-0.72439 0.47698,-0.69866 z"
         style="fill:#808080;fill-opacity:1;stroke-width:0.26458332"
         inkscape:connector-curvature="0" />
    </g>
  </g>
</svg>
